<svg width="14" height="13" viewBox="0 0 14 13" fill="none" xmlns="http://www.w3.org/2000/svg">
<g clip-path="url(#clip0)">
<path fill-rule="evenodd" clip-rule="evenodd" d="M0.846191 6.5383C0.846191 6.33428 0.927235 6.13863 1.07149 5.99437C1.21575 5.85011 1.41141 5.76907 1.61542 5.76907H10.5277L7.22465 2.46753C7.08021 2.32309 6.99907 2.12718 6.99907 1.92291C6.99907 1.71864 7.08021 1.52274 7.22465 1.3783C7.36909 1.23386 7.565 1.15271 7.76927 1.15271C7.97354 1.15271 8.16944 1.23386 8.31388 1.3783L12.9293 5.99368C13.0009 6.06514 13.0577 6.15002 13.0965 6.24348C13.1353 6.33693 13.1553 6.43712 13.1553 6.5383C13.1553 6.63948 13.1353 6.73966 13.0965 6.83312C13.0577 6.92657 13.0009 7.01146 12.9293 7.08291L8.31388 11.6983C8.16944 11.8427 7.97354 11.9239 7.76927 11.9239C7.565 11.9239 7.36909 11.8427 7.22465 11.6983C7.08021 11.5539 6.99907 11.358 6.99907 11.1537C6.99907 10.9494 7.08021 10.7535 7.22465 10.6091L10.5277 7.30753H1.61542C1.41141 7.30753 1.21575 7.22648 1.07149 7.08223C0.927235 6.93797 0.846191 6.74231 0.846191 6.5383Z" fill="white"/>
</g>
<defs>
<clipPath id="clip0">
<rect width="12.3077" height="12.3077" fill="white" transform="translate(0.846191 0.384613)"/>
</clipPath>
</defs>
</svg>
