<svg width="16" height="16" viewBox="0 0 16 16" fill="none" xmlns="http://www.w3.org/2000/svg">
<path d="M10.4772 7.52669L7.14387 4.19335C7.08171 4.13119 7.00791 4.08189 6.9267 4.04825C6.84548 4.01461 6.75844 3.99729 6.67053 3.99729C6.493 3.99729 6.32273 4.06782 6.1972 4.19335C6.13504 4.25551 6.08573 4.32931 6.05209 4.41052C6.01845 4.49173 6.00114 4.57878 6.00114 4.66669C6.00114 4.84422 6.07166 5.01448 6.1972 5.14002L9.06387 8.00002L6.1972 10.86C6.13471 10.922 6.08512 10.9957 6.05127 11.077C6.01743 11.1582 6 11.2453 6 11.3334C6 11.4214 6.01743 11.5085 6.05127 11.5897C6.08512 11.671 6.13471 11.7447 6.1972 11.8067C6.25917 11.8692 6.33291 11.9188 6.41415 11.9526C6.49539 11.9865 6.58252 12.0039 6.67053 12.0039C6.75854 12.0039 6.84568 11.9865 6.92692 11.9526C7.00816 11.9188 7.08189 11.8692 7.14387 11.8067L10.4772 8.47335C10.5397 8.41138 10.5893 8.33764 10.6231 8.2564C10.657 8.17516 10.6744 8.08803 10.6744 8.00002C10.6744 7.91201 10.657 7.82487 10.6231 7.74363C10.5893 7.6624 10.5397 7.58866 10.4772 7.52669Z" fill="#2F80ED"/>
</svg>
