<svg width="512" height="512" viewBox="0 0 512 512" fill="none" xmlns="http://www.w3.org/2000/svg">
<path d="M262.034 0H249.966C199.471 0 158.537 40.934 158.537 91.4286V254.171C158.537 304.666 199.471 345.6 249.966 345.6H262.034C312.529 345.6 353.463 304.666 353.463 254.171V91.4286C353.463 40.934 312.529 0 262.034 0Z" fill="#C61D19"/>
<path d="M426.624 215.644C421.774 215.644 417.123 217.57 413.694 220.999C410.265 224.429 408.338 229.08 408.338 233.929C408.338 274.332 392.288 313.08 363.719 341.649C335.15 370.218 296.403 386.268 256 386.268C215.597 386.268 176.849 370.218 148.28 341.649C119.712 313.08 103.662 274.332 103.662 233.929C103.662 229.08 101.735 224.429 98.3059 220.999C94.8766 217.57 90.2256 215.644 85.3759 215.644C80.5263 215.644 75.8752 217.57 72.446 220.999C69.0167 224.429 67.0902 229.08 67.0902 233.929C67.155 280.842 84.6513 326.057 116.182 360.795C147.712 395.532 191.027 417.312 237.714 421.906V475.429H176.768C171.918 475.429 167.267 477.355 163.838 480.784C160.409 484.214 158.482 488.865 158.482 493.714C158.482 498.564 160.409 503.215 163.838 506.644C167.267 510.074 171.918 512 176.768 512H335.232C340.082 512 344.733 510.074 348.162 506.644C351.591 503.215 353.518 498.564 353.518 493.714C353.518 488.865 351.591 484.214 348.162 480.784C344.733 477.355 340.082 475.429 335.232 475.429H274.286V421.906C320.973 417.312 364.288 395.532 395.818 360.795C427.349 326.057 444.845 280.842 444.91 233.929C444.91 229.08 442.983 224.429 439.554 220.999C436.125 217.57 431.474 215.644 426.624 215.644Z" fill="#C61D19"/>
</svg>
