<svg width="20" height="20" viewBox="0 0 20 20" fill="none" xmlns="http://www.w3.org/2000/svg">
<path d="M0.909091 5.71429H19.0909C19.593 5.71429 20 5.28787 20 4.76191C20 4.23594 19.593 3.80952 19.0909 3.80952H0.909091C0.40703 3.80952 0 4.23594 0 4.76191C0 5.28787 0.40703 5.71429 0.909091 5.71429Z" fill="black"/>
<path d="M19.0909 8.96104H0.909091C0.40703 8.96104 0 9.38746 0 9.91342C0 10.4394 0.40703 10.8658 0.909091 10.8658H19.0909C19.593 10.8658 20 10.4394 20 9.91342C20 9.38746 19.593 8.96104 19.0909 8.96104Z" fill="black"/>
<path d="M19.0909 14.1125H0.909091C0.40703 14.1125 0 14.539 0 15.0649C0 15.5909 0.40703 16.0173 0.909091 16.0173H19.0909C19.593 16.0173 20 15.5909 20 15.0649C20 14.539 19.593 14.1125 19.0909 14.1125Z" fill="black"/>
</svg>
