<svg width="40" height="40" viewBox="0 0 40 40" fill="none" xmlns="http://www.w3.org/2000/svg">
<path d="M33.1167 14.3334C32.9925 14.0479 32.7909 13.8029 32.5346 13.6262C32.2783 13.4494 31.9777 13.348 31.6667 13.3334H24.0334L26.1501 5.43337C26.2175 5.18617 26.227 4.92674 26.1778 4.67526C26.1287 4.42379 26.0222 4.18702 25.8667 3.98338C25.7115 3.78168 25.5121 3.61823 25.2838 3.50556C25.0556 3.39289 24.8046 3.33399 24.5501 3.33337H12.8834C12.5071 3.32049 12.1376 3.43537 11.8349 3.65933C11.5323 3.88328 11.3144 4.20311 11.2167 4.56671L6.75006 21.2334C6.68265 21.4806 6.67314 21.74 6.72228 21.9915C6.77142 22.243 6.87788 22.4797 7.03339 22.6834C7.19037 22.8873 7.39244 23.0521 7.62376 23.1649C7.85509 23.2777 8.10938 23.3353 8.36673 23.3334H14.8167L11.8001 34.5667C11.7012 34.9289 11.7276 35.3139 11.8749 35.6593C12.0222 36.0047 12.2818 36.2902 12.6117 36.4696C12.9415 36.649 13.3223 36.7117 13.6922 36.6477C14.0622 36.5836 14.3997 36.3965 14.6501 36.1167L32.8167 16.1167C33.033 15.8798 33.1764 15.5856 33.2296 15.2693C33.2828 14.9529 33.2436 14.628 33.1167 14.3334V14.3334ZM16.8001 28.8L18.5834 22.1334C18.6508 21.8862 18.6603 21.6267 18.6112 21.3753C18.562 21.1238 18.4556 20.887 18.3001 20.6834C18.1448 20.4817 17.9454 20.3182 17.7172 20.2056C17.4889 20.0929 17.2379 20.034 16.9834 20.0334H10.5834L14.1501 6.66671H22.3667L20.2501 14.5667C20.1821 14.8185 20.1742 15.0827 20.2269 15.338C20.2796 15.5934 20.3915 15.8329 20.5537 16.0371C20.7158 16.2414 20.9235 16.4048 21.1603 16.5141C21.397 16.6235 21.6561 16.6757 21.9167 16.6667H27.8667L16.8001 28.8Z" fill="#F8CB2D"/>
</svg>
