<svg width="26" height="27" viewBox="0 0 26 27" fill="none" xmlns="http://www.w3.org/2000/svg">
<path fill-rule="evenodd" clip-rule="evenodd" d="M6.49935 5.8335C4.6584 5.8335 3.16602 7.32588 3.16602 9.16683V20.0002C3.16602 21.8411 4.6584 23.3335 6.49935 23.3335H19.4993C21.3403 23.3335 22.8327 21.8411 22.8327 20.0002V9.16683C22.8327 7.32588 21.3403 5.8335 19.4993 5.8335H6.49935ZM1.16602 9.16683C1.16602 6.22131 3.55383 3.8335 6.49935 3.8335H19.4993C22.4449 3.8335 24.8327 6.22131 24.8327 9.16683V20.0002C24.8327 22.9457 22.4449 25.3335 19.4993 25.3335H6.49935C3.55383 25.3335 1.16602 22.9457 1.16602 20.0002V9.16683Z" fill="#C61D19"/>
<path fill-rule="evenodd" clip-rule="evenodd" d="M8.66602 1.66675C9.2183 1.66675 9.66602 2.11446 9.66602 2.66675V7.00008C9.66602 7.55237 9.2183 8.00008 8.66602 8.00008C8.11373 8.00008 7.66602 7.55237 7.66602 7.00008V2.66675C7.66602 2.11446 8.11373 1.66675 8.66602 1.66675Z" fill="#C61D19"/>
<path fill-rule="evenodd" clip-rule="evenodd" d="M17.332 1.66675C17.8843 1.66675 18.332 2.11446 18.332 2.66675V7.00008C18.332 7.55237 17.8843 8.00008 17.332 8.00008C16.7797 8.00008 16.332 7.55237 16.332 7.00008V2.66675C16.332 2.11446 16.7797 1.66675 17.332 1.66675Z" fill="#C61D19"/>
<path fill-rule="evenodd" clip-rule="evenodd" d="M1.16602 11.3335C1.16602 10.7812 1.61373 10.3335 2.16602 10.3335H23.8327C24.385 10.3335 24.8327 10.7812 24.8327 11.3335C24.8327 11.8858 24.385 12.3335 23.8327 12.3335H2.16602C1.61373 12.3335 1.16602 11.8858 1.16602 11.3335Z" fill="#C61D19"/>
</svg>
