<svg width="24" height="24" viewBox="0 0 24 24" fill="none" xmlns="http://www.w3.org/2000/svg">
<path d="M21 16H7C6.73478 16 6.48043 15.8946 6.29289 15.7071C6.10536 15.5196 6 15.2652 6 15C6 14.7348 6.10536 14.4804 6.29289 14.2929C6.48043 14.1054 6.73478 14 7 14H17.44C18.1087 14 18.7582 13.7767 19.2854 13.3654C19.8126 12.9542 20.1873 12.3786 20.35 11.73L22 5.24C22.0375 5.09241 22.0407 4.93821 22.0095 4.78917C21.9783 4.64013 21.9135 4.50018 21.82 4.38C21.7227 4.25673 21.5978 4.1581 21.4554 4.09208C21.3129 4.02606 21.1569 3.99452 21 4H6.76C6.55369 3.41645 6.17193 2.911 5.66707 2.55294C5.1622 2.19488 4.55894 2.00174 3.94 2H3C2.73478 2 2.48043 2.10536 2.29289 2.29289C2.10536 2.48043 2 2.73478 2 3C2 3.26522 2.10536 3.51957 2.29289 3.70711C2.48043 3.89464 2.73478 4 3 4H3.94C4.16843 3.99334 4.39226 4.06513 4.57421 4.20341C4.75615 4.34169 4.88525 4.53812 4.94 4.76L5 5.24L6.73 12C5.93435 12.0358 5.18551 12.3862 4.64822 12.9741C4.11093 13.5621 3.8292 14.3394 3.865 15.135C3.9008 15.9306 4.25121 16.6795 4.83914 17.2168C5.42707 17.7541 6.20435 18.0358 7 18H7.18C7.01554 18.4531 6.96269 18.9392 7.02593 19.4171C7.08917 19.895 7.26665 20.3506 7.54332 20.7454C7.81999 21.1401 8.18772 21.4624 8.61535 21.6849C9.04299 21.9074 9.51795 22.0235 10 22.0235C10.4821 22.0235 10.957 21.9074 11.3846 21.6849C11.8123 21.4624 12.18 21.1401 12.4567 20.7454C12.7334 20.3506 12.9108 19.895 12.9741 19.4171C13.0373 18.9392 12.9845 18.4531 12.82 18H15.18C15.0155 18.4531 14.9627 18.9392 15.0259 19.4171C15.0892 19.895 15.2666 20.3506 15.5433 20.7454C15.82 21.1401 16.1877 21.4624 16.6154 21.6849C17.043 21.9074 17.5179 22.0235 18 22.0235C18.4821 22.0235 18.957 21.9074 19.3846 21.6849C19.8123 21.4624 20.18 21.1401 20.4567 20.7454C20.7334 20.3506 20.9108 19.895 20.9741 19.4171C21.0373 18.9392 20.9845 18.4531 20.82 18H21C21.2652 18 21.5196 17.8946 21.7071 17.7071C21.8946 17.5196 22 17.2652 22 17C22 16.7348 21.8946 16.4804 21.7071 16.2929C21.5196 16.1054 21.2652 16 21 16ZM19.72 6L18.41 11.24C18.3552 11.4619 18.2262 11.6583 18.0442 11.7966C17.8623 11.9349 17.6384 12.0067 17.41 12H8.78L7.28 6H19.72ZM10 20C9.80222 20 9.60888 19.9414 9.44443 19.8315C9.27998 19.7216 9.15181 19.5654 9.07612 19.3827C9.00043 19.2 8.98063 18.9989 9.01921 18.8049C9.0578 18.6109 9.15304 18.4327 9.29289 18.2929C9.43275 18.153 9.61093 18.0578 9.80491 18.0192C9.99889 17.9806 10.2 18.0004 10.3827 18.0761C10.5654 18.1518 10.7216 18.28 10.8315 18.4444C10.9414 18.6089 11 18.8022 11 19C11 19.2652 10.8946 19.5196 10.7071 19.7071C10.5196 19.8946 10.2652 20 10 20ZM18 20C17.8022 20 17.6089 19.9414 17.4444 19.8315C17.28 19.7216 17.1518 19.5654 17.0761 19.3827C17.0004 19.2 16.9806 18.9989 17.0192 18.8049C17.0578 18.6109 17.153 18.4327 17.2929 18.2929C17.4327 18.153 17.6109 18.0578 17.8049 18.0192C17.9989 17.9806 18.2 18.0004 18.3827 18.0761C18.5654 18.1518 18.7216 18.28 18.8315 18.4444C18.9414 18.6089 19 18.8022 19 19C19 19.2652 18.8946 19.5196 18.7071 19.7071C18.5196 19.8946 18.2652 20 18 20Z" fill="#27AE60"/>
<path fill-rule="evenodd" clip-rule="evenodd" d="M18.1928 12.853C18.3547 12.7871 18.5083 12.6999 18.6493 12.5927C19.0128 12.3165 19.2709 11.9241 19.3806 11.4809C19.3807 11.4805 19.3808 11.48 19.3809 11.4796L21.0008 5H21.0175L21.0293 4.99959L19.3808 11.4836L19.3801 11.4867C19.2716 11.919 19.0218 12.3028 18.6703 12.577C18.5237 12.6913 18.3628 12.7839 18.1928 12.853ZM22 5.24L20.35 11.73C20.1873 12.3786 19.8126 12.9542 19.2854 13.3654C18.7582 13.7767 18.1087 14 17.44 14H7C6.73478 14 6.48043 14.1054 6.29289 14.2929C6.10536 14.4804 6 14.7348 6 15C6 15.2652 6.10536 15.5196 6.29289 15.7071C6.48043 15.8946 6.73478 16 7 16H21C21.2652 16 21.5196 16.1054 21.7071 16.2929C21.8946 16.4804 22 16.7348 22 17C22 17.2449 21.9101 17.4806 21.7487 17.6629C21.7353 17.678 21.7214 17.6928 21.7071 17.7071C21.5196 17.8946 21.2652 18 21 18H20.82C20.9367 18.3216 20.9972 18.6599 20.9999 19C21.001 19.1391 20.9924 19.2784 20.9741 19.4171C20.9108 19.895 20.7334 20.3506 20.4567 20.7454C20.18 21.1401 19.8123 21.4624 19.3846 21.6849C18.957 21.9074 18.4821 22.0235 18 22.0235C17.5179 22.0235 17.043 21.9074 16.6154 21.6849C16.1877 21.4624 15.82 21.1401 15.5433 20.7454C15.2666 20.3506 15.0892 19.895 15.0259 19.4171C15.0076 19.2784 14.999 19.1391 15.0001 19C15.0028 18.6599 15.0633 18.3216 15.18 18H12.82C12.9367 18.3216 12.9972 18.6599 12.9999 19C13.001 19.1391 12.9924 19.2784 12.9741 19.4171C12.9108 19.895 12.7334 20.3506 12.4567 20.7454C12.18 21.1401 11.8123 21.4624 11.3846 21.6849C10.957 21.9074 10.4821 22.0235 10 22.0235C9.51795 22.0235 9.04299 21.9074 8.61535 21.6849C8.18772 21.4624 7.81999 21.1401 7.54332 20.7454C7.26665 20.3506 7.08917 19.895 7.02593 19.4171C7.00761 19.2787 6.99903 19.1396 7.00009 19.0008C7.00009 19.0005 7.00009 19.001 7.00009 19.0008C7.00109 18.8724 7.01034 18.7435 7.02774 18.6165C7.05644 18.4069 7.10732 18.2002 7.18 18H7C6.71355 18.0129 6.42949 17.9846 6.15578 17.9181C5.66922 17.7998 5.2154 17.5606 4.83914 17.2168C4.25121 16.6795 3.9008 15.9306 3.865 15.135C3.8292 14.3394 4.11093 13.5621 4.64822 12.9741C4.95672 12.6366 5.33496 12.3773 5.75175 12.2109C6.06087 12.0875 6.39119 12.0152 6.73 12L5 5.24L4.94 4.76C4.88525 4.53812 4.75615 4.34169 4.57421 4.20341C4.39226 4.06513 4.16843 3.99334 3.94 4H3C2.73478 4 2.48043 3.89464 2.29289 3.70711C2.10536 3.51957 2 3.26522 2 3C2 2.73478 2.10536 2.48043 2.29289 2.29289C2.48043 2.10536 2.73478 2 3 2H3.94C4.55894 2.00174 5.1622 2.19488 5.66707 2.55294C6.17193 2.911 6.55369 3.41645 6.76 4H21C21.1569 3.99452 21.3129 4.02606 21.4554 4.09208C21.5978 4.1581 21.7227 4.25673 21.82 4.38C21.9135 4.50018 21.9783 4.64013 22.0095 4.78917C22.0407 4.93821 22.0375 5.09241 22 5.24ZM5.9367 4.67137L6.05289 5H5.99922L7.19982 9.80237L5.98444 5.05328L5.9367 4.67137ZM7.98535 12.9445L6.77495 12.999C6.24425 13.0229 5.74478 13.2566 5.3864 13.6487C5.02802 14.0409 4.84011 14.5593 4.86399 15.09C4.88787 15.6207 5.12159 16.1202 5.51374 16.4786C5.90589 16.837 6.42434 17.0249 6.95505 17.001L6.97751 17H7C6.46957 17 5.96086 16.7893 5.58579 16.4142C5.21071 16.0391 5 15.5304 5 15C5 14.4696 5.21071 13.9609 5.58579 13.5858C5.96086 13.2107 6.46957 13 7 13H7.99922L7.98535 12.9445ZM18.41 11.24L19.72 6H7.28L8.78 12H17.41C17.6384 12.0067 17.8623 11.9349 18.0442 11.7966C18.2262 11.6583 18.3552 11.4619 18.41 11.24ZM8.18861 18.1521C8.2866 17.9428 8.42064 17.7509 8.58579 17.5858C8.86549 17.3061 9.22186 17.1156 9.60982 17.0384C9.73829 17.0129 9.86831 17.0001 9.99804 17H8.60678L8.18861 18.1521ZM8.00003 19.0118C7.9995 19.1032 8.00523 19.1948 8.01729 19.2859C8.05945 19.6045 8.17776 19.9082 8.36221 20.1714C8.54666 20.4346 8.79181 20.6494 9.0769 20.7978C9.36199 20.9461 9.67863 21.0235 10 21.0235C10.3214 21.0235 10.638 20.9461 10.9231 20.7978C11.2082 20.6494 11.4533 20.4346 11.6378 20.1714C11.8222 19.9082 11.9406 19.6045 11.9827 19.2859C11.9948 19.1948 12.0005 19.1032 12 19.0118C11.9969 19.538 11.7865 20.0419 11.4142 20.4142C11.0391 20.7893 10.5304 21 10 21C9.60444 21 9.21776 20.8827 8.88886 20.6629C8.55996 20.4432 8.30361 20.1308 8.15224 19.7654C8.05277 19.5252 8.00156 19.2692 8.00003 19.0118ZM11.8114 18.1521L11.3932 17H10.0019C10.2627 17.0003 10.5221 17.0515 10.7654 17.1522C11.1308 17.3036 11.4432 17.56 11.6629 17.8889C11.7192 17.9731 11.7688 18.0611 11.8114 18.1521ZM16.1886 18.1521C16.2866 17.9428 16.4206 17.7509 16.5858 17.5858C16.8655 17.3061 17.2219 17.1156 17.6098 17.0384C17.7383 17.0129 17.8683 17.0001 17.998 17H16.6068L16.1886 18.1521ZM16 19.0118C15.9995 19.1032 16.0052 19.1948 16.0173 19.2859C16.0594 19.6045 16.1778 19.9082 16.3622 20.1714C16.5467 20.4346 16.7918 20.6494 17.0769 20.7978C17.362 20.9461 17.6786 21.0235 18 21.0235C18.3214 21.0235 18.638 20.9461 18.9231 20.7978C19.2082 20.6494 19.4533 20.4346 19.6378 20.1714C19.8222 19.9082 19.9405 19.6045 19.9827 19.2859C19.9948 19.1947 20.0005 19.1031 20 19.0117C19.9969 19.5379 19.7865 20.0419 19.4142 20.4142C19.0391 20.7893 18.5304 21 18 21C17.6044 21 17.2178 20.8827 16.8889 20.6629C16.56 20.4432 16.3036 20.1308 16.1522 19.7654C16.0528 19.5252 16.0016 19.2692 16 19.0118ZM19.8114 18.1521L19.3932 17H18.0019C18.2627 17.0003 18.5221 17.0515 18.7654 17.1522C19.1308 17.3036 19.4432 17.56 19.6629 17.8889C19.7192 17.9731 19.7688 18.0611 19.8114 18.1521ZM9.44443 19.8315C9.60888 19.9414 9.80222 20 10 20C10.2652 20 10.5196 19.8946 10.7071 19.7071C10.8946 19.5196 11 19.2652 11 19C11 18.8022 10.9414 18.6089 10.8315 18.4444C10.7216 18.28 10.5654 18.1518 10.3827 18.0761C10.2 18.0004 9.99889 17.9806 9.80491 18.0192C9.61093 18.0578 9.43275 18.153 9.29289 18.2929C9.15304 18.4327 9.0578 18.6109 9.01921 18.8049C8.98063 18.9989 9.00043 19.2 9.07612 19.3827C9.15181 19.5654 9.27998 19.7216 9.44443 19.8315ZM17.4444 19.8315C17.6089 19.9414 17.8022 20 18 20C18.2652 20 18.5196 19.8946 18.7071 19.7071C18.8946 19.5196 19 19.2652 19 19C19 18.8022 18.9414 18.6089 18.8315 18.4444C18.7216 18.28 18.5654 18.1518 18.3827 18.0761C18.2 18.0004 17.9989 17.9806 17.8049 18.0192C17.6109 18.0578 17.4327 18.153 17.2929 18.2929C17.153 18.4327 17.0578 18.6109 17.0192 18.8049C16.9806 18.9989 17.0004 19.2 17.0761 19.3827C17.1518 19.5654 17.28 19.7216 17.4444 19.8315Z" fill="#27AE60"/>
</svg>
