<svg width="16" height="12" viewBox="0 0 16 12" fill="none" xmlns="http://www.w3.org/2000/svg">
<path d="M14.7085 1.20998C14.6155 1.11625 14.5049 1.04186 14.3831 0.991091C14.2612 0.940323 14.1305 0.914185 13.9985 0.914185C13.8665 0.914185 13.7358 0.940323 13.6139 0.991091C13.492 1.04186 13.3814 1.11625 13.2885 1.20998L5.83849 8.66998L2.70849 5.52998C2.61196 5.43674 2.49802 5.36343 2.37317 5.31423C2.24831 5.26502 2.11499 5.24089 1.98081 5.24321C1.84663 5.24554 1.71422 5.27426 1.59114 5.32776C1.46806 5.38125 1.35672 5.45846 1.26348 5.55498C1.17025 5.6515 1.09693 5.76545 1.04773 5.8903C0.998524 6.01516 0.974394 6.14848 0.976715 6.28266C0.979037 6.41684 1.00776 6.54925 1.06126 6.67233C1.11475 6.79541 1.19196 6.90674 1.28848 6.99998L5.12849 10.84C5.22145 10.9337 5.33205 11.0081 5.45391 11.0589C5.57577 11.1096 5.70647 11.1358 5.83849 11.1358C5.9705 11.1358 6.1012 11.1096 6.22306 11.0589C6.34492 11.0081 6.45552 10.9337 6.54849 10.84L14.7085 2.67998C14.81 2.58634 14.891 2.47269 14.9464 2.34619C15.0018 2.21969 15.0304 2.08308 15.0304 1.94498C15.0304 1.80688 15.0018 1.67028 14.9464 1.54378C14.891 1.41728 14.81 1.30363 14.7085 1.20998V1.20998Z" fill="#219653"/>
</svg>
