<svg width="24" height="24" viewBox="0 0 24 24" fill="none" xmlns="http://www.w3.org/2000/svg">
<path d="M23.3125 3.28105C22.9595 2.92738 22.3866 2.92677 22.0335 3.27955L11.1823 14.1021L7.26721 9.84997C6.92892 9.48275 6.35695 9.45894 5.98912 9.79719C5.62157 10.1355 5.59804 10.7077 5.93634 11.0753L10.4891 16.0197C10.6559 16.2009 10.8892 16.3062 11.1352 16.3113C11.1419 16.3116 11.1482 16.3116 11.1546 16.3116C11.3937 16.3116 11.6237 16.2166 11.7931 16.0477L23.3107 4.56032C23.6647 4.20758 23.6653 3.63472 23.3125 3.28105Z" fill="#C61D19"/>
<path d="M23.0955 11.0955C22.5959 11.0955 22.191 11.5004 22.191 12C22.191 17.6195 17.6195 22.191 12 22.191C6.38081 22.191 1.80905 17.6195 1.80905 12C1.80905 6.38081 6.38081 1.80905 12 1.80905C12.4996 1.80905 12.9045 1.40414 12.9045 0.904547C12.9045 0.404906 12.4996 0 12 0C5.38312 0 0 5.38312 0 12C0 18.6166 5.38312 24 12 24C18.6166 24 24 18.6166 24 12C24 11.5004 23.5951 11.0955 23.0955 11.0955Z" fill="#C61D19"/>
</svg>
