<svg width="24" height="24" viewBox="0 0 24 24" fill="none" xmlns="http://www.w3.org/2000/svg">
<path d="M12.7042 12L13.0586 11.6462L19.3583 5.35645C19.3584 5.35636 19.3585 5.35626 19.3586 5.35617C19.453 5.26166 19.506 5.13356 19.506 5C19.506 4.86631 19.4529 4.73809 19.3583 4.64356C19.2638 4.54902 19.1356 4.49591 19.0019 4.49591C18.8683 4.49591 18.7402 4.54891 18.6457 4.64327L12.7042 12ZM12.7042 12L13.0586 12.3538L19.3586 18.6438L19.3598 18.645C19.4067 18.6915 19.4439 18.7468 19.4692 18.8077C19.4946 18.8686 19.5077 18.934 19.5077 19C19.5077 19.066 19.4946 19.1314 19.4692 19.1923C19.4439 19.2532 19.4067 19.3085 19.3598 19.355L19.3569 19.3579C19.3104 19.4048 19.2551 19.442 19.1942 19.4673C19.1333 19.4927 19.0679 19.5058 19.0019 19.5058C18.9359 19.5058 18.8705 19.4927 18.8096 19.4673C18.7487 19.442 18.6934 19.4048 18.6469 19.3579L18.6457 19.3567L12.3557 13.0567L12.0019 12.7023L11.6481 13.0567L5.35806 19.3567L5.35689 19.3579C5.31041 19.4048 5.25511 19.442 5.19418 19.4673C5.13325 19.4927 5.0679 19.5058 5.00189 19.5058C4.93588 19.5058 4.87053 19.4927 4.8096 19.4673C4.74868 19.442 4.69338 19.4048 4.64689 19.3579L4.64399 19.355C4.59713 19.3085 4.55993 19.2532 4.53455 19.1923C4.50916 19.1314 4.49609 19.066 4.49609 19C4.49609 18.934 4.50916 18.8686 4.53455 18.8077C4.55993 18.7468 4.59713 18.6915 4.644 18.645L4.64516 18.6438L10.9452 12.3538L11.2996 12L10.9452 11.6462L4.64545 5.35645C4.64541 5.35641 4.64537 5.35638 4.64534 5.35634C4.55087 5.26181 4.4978 5.13364 4.4978 5C4.4978 4.86631 4.55091 4.73809 4.64545 4.64356C4.73998 4.54902 4.8682 4.49591 5.00189 4.49591C5.13553 4.49591 5.2637 4.54898 5.35823 4.64345C5.35827 4.64348 5.3583 4.64352 5.35834 4.64356L11.6481 10.9433L12.0019 11.2977L12.3557 10.9433L18.6454 4.64356L12.7042 12Z" fill="#B0B4BB" stroke="#B0B4BB"/>
</svg>
