<svg width="20" height="21" viewBox="0 0 20 21" fill="none" xmlns="http://www.w3.org/2000/svg">
<g clip-path="url(#clip0_1855:3963)">
<path d="M6.87142 7.51935C6.93168 7.56041 7.0024 7.58209 7.0759 7.58209H7.07683C7.27772 7.58209 7.4412 7.41873 7.4412 7.21795C7.4412 7.18297 7.43628 7.14844 7.42657 7.11508C7.20758 6.15618 7.31167 5.38348 7.73589 4.81828C8.23037 4.15945 8.44942 3.31424 8.32186 2.55739C8.20927 1.88728 7.849 1.33028 7.28038 0.946943C7.15854 0.864365 6.9909 0.865117 6.86957 0.94862C6.74559 1.03397 6.68736 1.18409 6.72148 1.3319C6.95793 2.34059 6.74322 2.97907 6.20473 3.9478C5.87199 4.54625 5.73609 5.21839 5.82203 5.84038C5.91918 6.5431 6.28257 7.12404 6.87142 7.51935Z" fill="#C61D19"/>
<path d="M9.97361 7.35735C10.0305 7.39627 10.097 7.4168 10.1658 7.4168H10.1662C10.3548 7.4168 10.5082 7.26333 10.5082 7.07469C10.5082 7.04254 10.5037 7.01068 10.4948 6.97974C10.3285 6.24891 10.4066 5.6619 10.7269 5.23502C11.1224 4.70833 11.2975 4.0318 11.1953 3.42548C11.1047 2.88652 10.8149 2.43836 10.3572 2.1295C10.2432 2.05247 10.089 2.05149 9.97095 2.13187C9.85581 2.21179 9.80064 2.35693 9.8332 2.49092C10.0136 3.26043 9.84858 3.74966 9.43511 4.49309C9.16916 4.97144 9.06068 5.50906 9.12961 6.00679C9.20768 6.57228 9.50017 7.03971 9.97361 7.35735Z" fill="#C61D19"/>
<path d="M19.6891 9.69365C19.4622 9.4266 19.1376 9.27954 18.7751 9.27954H17.0141C17.0412 8.97531 16.9925 8.57763 16.7696 8.31521C16.6139 8.1319 16.3919 8.03503 16.1275 8.03503H0.988221C0.596148 8.03503 0.370504 8.2036 0.25028 8.34499C0.0034133 8.63529 -0.0304738 9.07061 0.0200677 9.38126C0.436775 11.9415 1.33698 14.2671 2.55483 15.9296C3.28768 16.9299 4.12272 17.6965 5.05374 18.2269C4.91721 18.4218 4.83637 18.6584 4.83637 18.9138C4.83637 19.5758 5.37492 20.1143 6.03693 20.1143H10.9841C11.6461 20.1143 12.1847 19.5758 12.1847 18.9138C12.1847 18.6627 12.1069 18.4296 11.9746 18.2367C12.7232 17.8146 13.408 17.2412 14.0258 16.5176C16.9784 16.2436 19.563 13.4133 19.9799 10.869C20.0067 10.7052 20.065 10.1363 19.6891 9.69365ZM15.4967 14.2557C16.0369 13.1682 16.4092 12.0412 16.6658 11.0144H18.1697C17.8086 12.2393 16.7694 13.5414 15.4967 14.2557Z" fill="#C61D19"/>
</g>
<defs>
<clipPath id="clip0_1855:3963">
<rect width="20" height="20" fill="white" transform="translate(0 0.5)"/>
</clipPath>
</defs>
</svg>
