<?xml version="1.0" encoding="iso-8859-1"?>
<!-- Generator: Adobe Illustrator 16.0.0, SVG Export Plug-In . SVG Version: 6.00 Build 0)  -->
<!DOCTYPE svg PUBLIC "-//W3C//DTD SVG 1.1//EN" "http://www.w3.org/Graphics/SVG/1.1/DTD/svg11.dtd">
<svg version="1.1" id="Capa_1" xmlns="http://www.w3.org/2000/svg" xmlns:xlink="http://www.w3.org/1999/xlink" x="0px" y="0px"
	 width="121.981px" height="121.982px" viewBox="0 0 121.981 121.982" style="enable-background:new 0 0 121.981 121.982;"
	 xml:space="preserve">
<g>
	<path d="M112.091,47.393c9.1,1.6,9.6-11.8,1.4-11.9c-9.9,0-18.801,0.5-27.2-5.1c-5-3.3-10.101-5.8-15.7-6.9
		c1.7-2.1,2.7-4.7,2.7-7.6c0-6.6-5.4-12.1-12.4-11.9c-6.8-0.2-12.3,5.2-12.3,12c0,2.9,1,5.5,2.7,7.6c-5.6,1.1-10.7,3.5-15.7,6.9
		c-8.4,5.6-17.4,5.1-27.2,5.1c-8.2,0-7.7,13.5,1.4,11.9c0.1,0.1,0,0,0.1,0.1c-6.1,10-13.2,25.2-8.2,35.3c2.1,4.2,7,9.2,18.9,9.2
		c11.9,0,16.8-5,18.9-9.2c5.3-10.6-2.8-26.8-9-36.7c1.3-0.3,2.5-0.8,3.8-1.3c4.3-1.8,8-4.5,11.9-6.9c2.8-1.7,5.7-2.5,8.8-2.8v70.8
		h-14.9c-3.1,0-5.8,2.2-6.2,5.2c-0.4,3.6,2.4,6.8,6,6.8h42.101c3.6,0,6.399-3.101,6-6.8c-0.4-3-3.101-5.2-6.2-5.2h-14.9v-70.9
		c3,0.3,6.101,1.1,8.9,2.8c3.899,2.4,7.6,5.1,11.899,6.9c1.2,0.5,2.5,0.9,3.801,1.3c-6.2,9.9-14.301,26.101-9,36.7
		c2.1,4.2,7.1,9.2,18.899,9.2s16.8-5,18.9-9.2c5-10.1-2.101-25.3-8.2-35.3C112.091,47.493,112.091,47.493,112.091,47.393z
		 M11.19,71.994c1.1-5.9,5.1-14,9.4-20.8c4.3,6.8,8.3,14.9,9.3,20.8H11.19z M91.891,71.994c1.101-6,5.101-14,9.4-20.8
		c4.3,6.8,8.3,14.8,9.399,20.8H91.891z"/>
</g>
<g>
</g>
<g>
</g>
<g>
</g>
<g>
</g>
<g>
</g>
<g>
</g>
<g>
</g>
<g>
</g>
<g>
</g>
<g>
</g>
<g>
</g>
<g>
</g>
<g>
</g>
<g>
</g>
<g>
</g>
</svg>
