<svg width="16" height="16" viewBox="0 0 16 16" fill="none" xmlns="http://www.w3.org/2000/svg">
<path d="M14 9.33333C13.8232 9.33333 13.6536 9.40357 13.5286 9.52859C13.4036 9.65361 13.3333 9.82318 13.3333 10V12.6667C13.3333 12.8435 13.2631 13.013 13.1381 13.1381C13.0131 13.2631 12.8435 13.3333 12.6667 13.3333H3.33334C3.15653 13.3333 2.98696 13.2631 2.86194 13.1381C2.73691 13.013 2.66668 12.8435 2.66668 12.6667V10C2.66668 9.82318 2.59644 9.65361 2.47141 9.52859C2.34639 9.40357 2.17682 9.33333 2.00001 9.33333C1.8232 9.33333 1.65363 9.40357 1.52861 9.52859C1.40358 9.65361 1.33334 9.82318 1.33334 10V12.6667C1.33334 13.1971 1.54406 13.7058 1.91913 14.0809C2.2942 14.4559 2.80291 14.6667 3.33334 14.6667H12.6667C13.1971 14.6667 13.7058 14.4559 14.0809 14.0809C14.456 13.7058 14.6667 13.1971 14.6667 12.6667V10C14.6667 9.82318 14.5964 9.65361 14.4714 9.52859C14.3464 9.40357 14.1768 9.33333 14 9.33333ZM7.52668 10.4733C7.59008 10.534 7.66484 10.5816 7.74668 10.6133C7.82648 10.6486 7.91276 10.6668 8.00001 10.6668C8.08726 10.6668 8.17354 10.6486 8.25334 10.6133C8.33518 10.5816 8.40994 10.534 8.47334 10.4733L11.14 7.80666C11.2655 7.68113 11.3361 7.51086 11.3361 7.33333C11.3361 7.15579 11.2655 6.98553 11.14 6.85999C11.0145 6.73446 10.8442 6.66393 10.6667 6.66393C10.4891 6.66393 10.3189 6.73446 10.1933 6.85999L8.66668 8.39333V1.99999C8.66668 1.82318 8.59644 1.65361 8.47141 1.52859C8.34639 1.40357 8.17682 1.33333 8.00001 1.33333C7.8232 1.33333 7.65363 1.40357 7.52861 1.52859C7.40358 1.65361 7.33334 1.82318 7.33334 1.99999V8.39333L5.80668 6.85999C5.74452 6.79784 5.67072 6.74853 5.58951 6.71489C5.5083 6.68125 5.42125 6.66393 5.33334 6.66393C5.24544 6.66393 5.15839 6.68125 5.07718 6.71489C4.99596 6.74853 4.92217 6.79784 4.86001 6.85999C4.79785 6.92215 4.74854 6.99595 4.7149 7.07716C4.68126 7.15838 4.66395 7.24542 4.66395 7.33333C4.66395 7.42123 4.68126 7.50828 4.7149 7.58949C4.74854 7.67071 4.79785 7.7445 4.86001 7.80666L7.52668 10.4733Z" fill="#1B1C1E"/>
</svg>
