<svg width="85" height="85" viewBox="0 0 85 85" fill="none" xmlns="http://www.w3.org/2000/svg">
<path d="M72.5705 12.4412C55.9976 -4.13167 29.023 -4.13167 12.4501 12.4412C4.4222 20.4723 0 31.1477 0 42.5012C0 53.8548 4.4222 64.5302 12.4501 72.5582C20.7382 80.8463 31.6243 84.9885 42.5102 84.9885C53.3961 84.9885 64.2824 80.8463 72.5703 72.5582C89.1431 55.9853 89.1431 29.0172 72.5705 12.4412ZM67.9143 67.9021C53.9066 81.9098 31.1138 81.9098 17.1061 67.9021C10.323 61.1189 6.58557 52.0965 6.58557 42.5012C6.58557 32.9059 10.323 23.8836 17.1061 17.0971C31.1138 3.08941 53.9066 3.09273 67.9143 17.0971C81.9187 31.1048 81.9187 53.8977 67.9143 67.9021Z" fill="#EF370F"/>
<path d="M56.6991 51.6026L47.3771 42.2939L56.6991 32.9851C57.9832 31.701 57.9832 29.6166 56.7024 28.329C55.415 27.0382 53.3306 27.0415 52.0431 28.3257L42.7146 37.6411L33.3861 28.3257C32.0987 27.0415 30.0143 27.0382 28.7269 28.329C27.4427 29.6165 27.4427 31.7008 28.7302 32.9851L38.0522 42.2939L28.7302 51.6026C27.4427 52.8868 27.4427 54.9711 28.7269 56.2588C29.369 56.9041 30.2152 57.2235 31.0582 57.2235C31.9013 57.2235 32.7441 56.9008 33.3863 56.2619L42.7148 46.9465L52.0433 56.2619C52.6855 56.9041 53.5283 57.2235 54.3714 57.2235C55.2144 57.2235 56.0606 56.9008 56.7027 56.2588C57.9866 54.9711 57.9866 52.8868 56.6991 51.6026Z" fill="#EF370F"/>
</svg>
