<svg width="33" height="32" viewBox="0 0 33 32" fill="none" xmlns="http://www.w3.org/2000/svg">
<g clip-path="url(#clip0)">
<path d="M32.2611 15.3747C31.9755 15.0561 25.1052 7.5625 16.5 7.5625C7.89491 7.5625 1.02466 15.0561 0.738969 15.3747C0.420344 15.7308 0.420344 16.2692 0.738969 16.6253C1.02466 16.9439 7.89503 24.4375 16.5 24.4375C25.105 24.4375 31.9754 16.9439 32.2611 16.6253C32.5797 16.2692 32.5797 15.7308 32.2611 15.3747ZM16.5 22.5625C12.8818 22.5625 9.93753 19.6182 9.93753 16C9.93753 12.3818 12.8818 9.4375 16.5 9.4375C20.1182 9.4375 23.0625 12.3818 23.0625 16C23.0625 19.6182 20.1182 22.5625 16.5 22.5625Z" fill="white"/>
<path d="M17.4375 14.125C17.4375 13.1819 17.9057 12.3522 18.6179 11.8419C17.9788 11.5147 17.2659 11.3125 16.5 11.3125C13.9154 11.3125 11.8125 13.4154 11.8125 16C11.8125 18.5846 13.9154 20.6875 16.5 20.6875C18.814 20.6875 20.7292 18.9979 21.1076 16.7901C19.2197 17.3979 17.4375 15.9701 17.4375 14.125Z" fill="white"/>
</g>
<defs>
<clipPath id="clip0">
<rect width="32" height="32" fill="white" transform="translate(0.5)"/>
</clipPath>
</defs>
</svg>
