<svg width="20" height="20" viewBox="0 0 20 20" fill="none" xmlns="http://www.w3.org/2000/svg">
<path fill-rule="evenodd" clip-rule="evenodd" d="M1.36424 5.37098C1.41897 5.44533 1.47942 5.51553 1.54514 5.58093C1.54519 5.58098 1.54508 5.58088 1.54514 5.58093L7.92552 11.9199L1.36424 5.37098ZM8.71 11.29C8.80268 11.3834 8.87601 11.4943 8.92577 11.6161C8.97554 11.7379 9.00076 11.8684 9 12V17.38L11 16.38V12C10.9992 11.8684 11.0245 11.7379 11.0742 11.6161C11.124 11.4943 11.1973 11.3834 11.29 11.29L16.59 6H3.41L8.71 11.29ZM12 11.9942L12 11.9958L12.8305 11.1653L12 11.9942ZM19.71 5.43C19.5687 5.75097 19.3686 6.04266 19.12 6.29L13 12.41V17C12.9994 17.1847 12.9478 17.3656 12.8507 17.5227C12.7536 17.6798 12.6149 17.8069 12.45 17.89L8.45 19.89C8.31068 19.9614 8.15654 19.9991 8 20C7.81277 20.0006 7.62914 19.9486 7.47 19.85C7.32589 19.7599 7.20711 19.6346 7.12487 19.4859C7.04264 19.3372 6.99966 19.1699 7 19V12.41L0.84 6.29C0.591393 6.04266 0.39128 5.75097 0.25 5.43V5.37C0.0849666 4.99147 -0.000143027 4.58294 1.80422e-07 4.17V3C1.80422e-07 2.20435 0.316071 1.44129 0.87868 0.87868C1.44129 0.316071 2.20435 0 3 0H17C17.7956 0 18.5587 0.316071 19.1213 0.87868C19.6839 1.44129 20 2.20435 20 3V4.17C19.9876 4.58578 19.8888 4.99443 19.71 5.37V5.43ZM18 4V3C18 2.73478 17.8946 2.48043 17.7071 2.29289C17.5196 2.10536 17.2652 2 17 2H3C2.73478 2 2.48043 2.10536 2.29289 2.29289C2.10536 2.48043 2 2.73478 2 3V4H18Z" fill="#B0B4BB"/>
</svg>
