<svg width="18" height="21" viewBox="0 0 18 21" fill="none" xmlns="http://www.w3.org/2000/svg">
<path d="M16.3072 9.74836L9.55724 2.24836C9.27299 1.93186 8.72699 1.93186 8.44274 2.24836L1.69274 9.74836C1.59558 9.85606 1.53181 9.98966 1.50917 10.1329C1.48654 10.2762 1.50601 10.423 1.56524 10.5554C1.68524 10.8261 1.95374 11.0001 2.24999 11.0001H3.74999V16.2501C3.74999 16.449 3.82901 16.6398 3.96966 16.7804C4.11031 16.9211 4.30108 17.0001 4.49999 17.0001H6.74999C6.9489 17.0001 7.13967 16.9211 7.28032 16.7804C7.42097 16.6398 7.49999 16.449 7.49999 16.2501V13.2501H10.5V16.2501C10.5 16.449 10.579 16.6398 10.7197 16.7804C10.8603 16.9211 11.0511 17.0001 11.25 17.0001H13.5C13.6989 17.0001 13.8897 16.9211 14.0303 16.7804C14.171 16.6398 14.25 16.449 14.25 16.2501V11.0001H15.75C15.8952 11.0007 16.0375 10.9591 16.1595 10.8802C16.2815 10.8014 16.3779 10.6887 16.437 10.556C16.4961 10.4233 16.5152 10.2763 16.4922 10.1329C16.4692 9.98949 16.4049 9.85588 16.3072 9.74836Z" fill="#C61D19"/>
</svg>
