<svg width="15" height="15" viewBox="0 0 15 15" fill="none" xmlns="http://www.w3.org/2000/svg">
<g clip-path="url(#clip0)">
<path d="M14.8072 7.73737L8.05724 0.237375C7.77299 -0.079125 7.22699 -0.079125 6.94274 0.237375L0.192738 7.73737C0.0955801 7.84507 0.0318063 7.97868 0.00917104 8.12194C-0.0134643 8.26521 0.00601406 8.41197 0.0652378 8.54437C0.185238 8.81512 0.453738 8.98912 0.749988 8.98912H2.24999V14.2391C2.24999 14.438 2.32901 14.6288 2.46966 14.7695C2.61031 14.9101 2.80108 14.9891 2.99999 14.9891H5.24999C5.4489 14.9891 5.63967 14.9101 5.78032 14.7695C5.92097 14.6288 5.99999 14.438 5.99999 14.2391V11.2391H8.99999V14.2391C8.99999 14.438 9.07901 14.6288 9.21966 14.7695C9.36031 14.9101 9.55108 14.9891 9.74999 14.9891H12C12.1989 14.9891 12.3897 14.9101 12.5303 14.7695C12.671 14.6288 12.75 14.438 12.75 14.2391V8.98912H14.25C14.3952 8.98974 14.5375 8.94809 14.6595 8.86923C14.7815 8.79038 14.8779 8.67774 14.937 8.54504C14.9961 8.41235 15.0152 8.26533 14.9922 8.12192C14.9692 7.97851 14.9049 7.84489 14.8072 7.73737Z" fill="#C61D19"/>
</g>
<defs>
<clipPath id="clip0">
<rect width="15" height="15" fill="white"/>
</clipPath>
</defs>
</svg>
