<svg width="32" height="32" viewBox="0 0 32 32" fill="none" xmlns="http://www.w3.org/2000/svg">
<path d="M21.962 3H10.038C6.15716 3 3 6.15717 3 10.038V21.9622C3 25.8428 6.15716 29 10.038 29H21.9622C25.8428 29 29 25.8428 29 21.9622V10.038C29 6.15717 25.8428 3 21.962 3V3ZM16 23.1092C12.0799 23.1092 8.89081 19.9201 8.89081 16C8.89081 12.0799 12.0799 8.89082 16 8.89082C19.92 8.89082 23.1091 12.0799 23.1091 16C23.1091 19.9201 19.92 23.1092 16 23.1092V23.1092ZM23.2791 10.5674C22.1207 10.5674 21.1785 9.62517 21.1785 8.46672C21.1785 7.30827 22.1207 6.36584 23.2791 6.36584C24.4376 6.36584 25.38 7.30827 25.38 8.46672C25.38 9.62517 24.4376 10.5674 23.2791 10.5674Z" fill="#B0B4BB"/>
<path d="M15.999 10.415C12.9196 10.415 10.4141 12.9204 10.4141 16C10.4141 19.0794 12.9196 21.5849 15.999 21.5849C19.0786 21.5849 21.5839 19.0794 21.5839 16C21.5839 12.9204 19.0786 10.415 15.999 10.415V10.415Z" fill="#B0B4BB"/>
<path d="M23.2796 7.89014C22.9618 7.89014 22.7031 8.1488 22.7031 8.46658C22.7031 8.78436 22.9618 9.04303 23.2796 9.04303C23.5975 9.04303 23.8562 8.78456 23.8562 8.46658C23.8562 8.14861 23.5975 7.89014 23.2796 7.89014Z" fill="#B0B4BB"/>
</svg>
