<svg width="20" height="20" viewBox="0 0 20 20" fill="none" xmlns="http://www.w3.org/2000/svg">
<path d="M10 0C5.8 0 2.38281 3.41719 2.38281 7.61719C2.38281 9.2793 2.90781 10.8586 3.90234 12.1836L9.53047 19.7637C9.54453 19.7821 9.56602 19.7891 9.58164 19.8055C9.86289 20.1067 10.2688 20.0309 10.4691 19.7637C12.0898 17.6012 15.0605 13.5625 16.2027 12.0391C16.2027 12.0391 16.2031 12.0379 16.2035 12.0371L16.2105 12.0277C17.1309 10.7348 17.6172 9.20976 17.6172 7.61719C17.6172 3.41719 14.2 0 10 0ZM10 11.7266C7.73867 11.7266 5.89062 9.87851 5.89062 7.61719C5.89062 5.35586 7.73867 3.50781 10 3.50781C12.2613 3.50781 14.1094 5.35586 14.1094 7.61719C14.1094 9.87851 12.2613 11.7266 10 11.7266Z" fill="#C61D19"/>
</svg>
