<svg width="24" height="24" viewBox="0 0 24 24" fill="none" xmlns="http://www.w3.org/2000/svg">
<path fill-rule="evenodd" clip-rule="evenodd" d="M12.0009 1.99472C14.2513 1.99472 16.4096 2.8887 18.0009 4.48C19.5856 6.06468 20.4758 8.21395 20.4758 10.455C20.4758 12.6961 19.5856 14.8453 18.0009 16.43L12.6909 21.76C12.5979 21.8537 12.4873 21.9281 12.3655 21.9789C12.2436 22.0297 12.1129 22.0558 11.9809 22.0558C11.8489 22.0558 11.7182 22.0297 11.5963 21.9789C11.4745 21.9281 11.3639 21.8537 11.2709 21.76L6.00091 16.48C4.40961 14.8887 3.51562 12.7304 3.51563 10.48C3.51563 8.22957 4.40961 6.0713 6.00091 4.48C7.59221 2.8887 9.75047 1.99472 12.0009 1.99472ZM12.0009 19.59L16.5709 15C17.4738 14.0963 18.0884 12.9452 18.3372 11.6923C18.586 10.4393 18.4577 9.14075 17.9686 7.96068C17.4795 6.78062 16.6515 5.77205 15.5893 5.06248C14.5271 4.35291 13.2783 3.97418 12.0009 3.97418C10.7235 3.97418 9.47475 4.35291 8.41254 5.06248C7.35032 5.77205 6.52233 6.78062 6.03321 7.96068C5.54409 9.14075 5.41582 10.4393 5.6646 11.6923C5.91338 12.9452 6.52805 14.0963 7.43091 15L12.0009 19.59Z" fill="#B0B4BB"/>
<path fill-rule="evenodd" clip-rule="evenodd" d="M18.0009 16.43C19.5856 14.8453 20.4758 12.6961 20.4758 10.455C20.4758 8.21395 19.5856 6.06468 18.0009 4.48C16.4096 2.8887 14.2513 1.99472 12.0009 1.99472C9.75047 1.99472 7.59221 2.8887 6.00091 4.48C4.40961 6.0713 3.51562 8.22957 3.51562 10.48C3.51562 12.7304 4.40961 14.8887 6.00091 16.48L11.2709 21.76C11.3639 21.8537 11.4745 21.9281 11.5963 21.9789C11.7182 22.0297 11.8489 22.0558 11.9809 22.0558C12.1129 22.0558 12.2436 22.0297 12.3655 21.9789C12.4873 21.9281 12.5979 21.8537 12.6909 21.76L18.0009 16.43ZM18.3224 6.47305C19.0699 7.65518 19.4758 9.03417 19.4758 10.455C19.4758 12.4308 18.6909 14.3258 17.2938 15.7229L11.9825 21.0542L11.9809 21.0558L6.70868 15.7736C5.30492 14.3698 4.51562 12.4652 4.51562 10.48C4.51562 8.99209 4.95863 7.54984 5.7716 6.32962C5.5131 6.72194 5.29103 7.13963 5.10942 7.57779C4.54459 8.94053 4.39646 10.4401 4.68375 11.887C4.97098 13.3336 5.68056 14.6626 6.72281 15.7061C6.72258 15.7059 6.72303 15.7063 6.72281 15.7061L12.0009 21.0073L17.2783 15.7068C17.2786 15.7065 17.2788 15.7063 17.2791 15.706C18.3213 14.6626 19.0308 13.3336 19.3181 11.887C19.6054 10.4401 19.4572 8.94053 18.8924 7.57779C18.7327 7.19261 18.5418 6.82326 18.3224 6.47305ZM16.5709 15C17.4738 14.0963 18.0884 12.9452 18.3372 11.6923C18.586 10.4393 18.4577 9.14075 17.9686 7.96068C17.4795 6.78062 16.6515 5.77205 15.5893 5.06248C14.5271 4.35291 13.2783 3.97418 12.0009 3.97418C10.7235 3.97418 9.47475 4.35291 8.41254 5.06248C7.35032 5.77205 6.52233 6.78062 6.03321 7.96068C5.54409 9.14075 5.41582 10.4393 5.6646 11.6923C5.91338 12.9452 6.52805 14.0963 7.43091 15L12.0009 19.59L16.5709 15Z" fill="#B0B4BB"/>
<path d="M14 10C14 11.1046 13.1046 12 12 12C10.8954 12 10 11.1046 10 10C10 8.89543 10.8954 8 12 8C13.1046 8 14 8.89543 14 10Z" fill="#B0B4BB"/>
</svg>
