<svg width="42" height="42" viewBox="0 0 42 42" fill="none" xmlns="http://www.w3.org/2000/svg">
<path d="M40.5626 11.366L29.8626 0.24757C29.7102 0.0894141 29.5001 0 29.2806 0H13.3329C11.5481 0 10.0961 1.45146 10.0961 3.23548V14.5385H3.63307C2.29777 14.5385 1.21143 15.6245 1.21143 16.9595V29.0791C1.21143 30.414 2.29777 31.5 3.63307 31.5H10.0961V38.7702C10.0961 40.5511 11.5481 42 13.3329 42H37.5516C39.3363 42 40.7884 40.5519 40.7884 38.772V11.9261C40.7884 11.7173 40.7074 11.5165 40.5626 11.366ZM29.4807 2.18047L38.2645 11.3077H29.4807V2.18047ZM3.63307 29.8846C3.18846 29.8846 2.82687 29.5233 2.82687 29.0791V16.9595C2.82687 16.5153 3.18854 16.1538 3.63307 16.1538H25.4437C25.8883 16.1538 26.2499 16.5153 26.2499 16.9595V29.0791C26.2499 29.5233 25.8882 29.8846 25.4437 29.8846H3.63307ZM39.1729 38.772C39.1729 39.6612 38.4456 40.3846 37.5515 40.3846H13.3329C12.4388 40.3846 11.7114 39.6605 11.7114 38.7703V31.5H25.4437C26.779 31.5 27.8653 30.414 27.8653 29.0791V16.9595C27.8653 15.6245 26.779 14.5385 25.4437 14.5385H11.7114V3.23548C11.7114 2.34207 12.4388 1.61536 13.3329 1.61536H27.8653V12.1154C27.8653 12.5614 28.2269 12.923 28.6729 12.923H39.1729V38.772Z" fill="#C61D19"/>
<path d="M10.8676 20.4992C10.5995 20.1505 10.2666 19.9241 9.86907 19.82C9.61034 19.7506 9.05508 19.7159 8.20318 19.7159H5.9552V26.6539H7.35605V24.0368H8.26946C8.90365 24.0368 9.38796 24.0036 9.7224 23.9373C9.96849 23.8837 10.2106 23.7741 10.4489 23.6084C10.6871 23.4428 10.8835 23.2148 11.0381 22.9246C11.1927 22.6344 11.27 22.2762 11.27 21.8503C11.2699 21.2982 11.1358 20.8478 10.8676 20.4992ZM9.66793 22.4088C9.56227 22.5634 9.41634 22.6769 9.23013 22.7495C9.04392 22.8221 8.67486 22.8584 8.12271 22.8584H7.35605V20.8896H8.0328C8.53762 20.8896 8.87362 20.9054 9.0408 20.937C9.26795 20.978 9.45572 21.0805 9.60395 21.2446C9.75226 21.4087 9.82642 21.6169 9.82642 21.8693C9.8265 22.0743 9.77359 22.2542 9.66793 22.4088Z" fill="#C61D19"/>
<path d="M18.0044 21.6114C17.8529 21.1681 17.632 20.7934 17.3418 20.4874C17.0516 20.1813 16.7029 19.9684 16.2959 19.8484C15.993 19.7601 15.5529 19.7159 14.9755 19.7159H12.4152V26.6539H15.0512C15.5687 26.6539 15.982 26.605 16.2911 26.5071C16.7045 26.3747 17.0326 26.1901 17.2755 25.9534C17.5973 25.6411 17.845 25.2325 18.0186 24.7277C18.1606 24.3144 18.2315 23.8222 18.2315 23.2512C18.2315 22.6012 18.1558 22.0547 18.0044 21.6114ZM16.6413 24.4604C16.5467 24.7712 16.4244 24.9944 16.2746 25.13C16.1247 25.2657 15.9362 25.3619 15.709 25.4187C15.5355 25.4629 15.2531 25.4849 14.8619 25.4849H13.816V20.8896H14.4454C15.0165 20.8896 15.3999 20.9117 15.5954 20.9559C15.8573 21.0127 16.0734 21.1215 16.2438 21.2825C16.4142 21.4434 16.5467 21.6674 16.6413 21.9545C16.736 22.2416 16.7833 22.6533 16.7833 23.1897C16.7833 23.726 16.736 24.1496 16.6413 24.4604Z" fill="#C61D19"/>
<path d="M24.1851 20.8896V19.7159H19.4288V26.6539H20.8297V23.7055H23.726V22.5318H20.8297V20.8896H24.1851Z" fill="#C61D19"/>
</svg>
