<svg width="512" height="512" viewBox="0 0 512 512" fill="none" xmlns="http://www.w3.org/2000/svg">
<g clip-path="url(#clip0_3201_10360)">
<path d="M133.323 394.346C99.1705 394.346 68.7917 372.478 57.7595 339.922L57.0134 337.469C54.4114 328.848 53.3213 321.598 53.3213 314.344V168.887L1.56603 341.649C-5.09014 367.06 10.0782 393.405 35.5279 400.424L365.416 488.77C369.429 489.814 373.558 490.345 377.705 490.348C398.951 490.348 418.366 476.247 423.808 455.464L443.027 394.346H133.323ZM191.993 170.34C215.525 170.34 234.658 151.202 234.658 127.671C234.658 104.139 215.525 85.0017 191.993 85.0017C168.46 85.0017 149.324 104.14 149.324 127.671C149.324 151.201 168.461 170.34 191.993 170.34Z" fill="#C61D19"/>
<path d="M458.664 21H138.655C109.261 21 85.3221 44.9386 85.3221 74.3374V309.007C85.3221 338.407 109.261 362.345 138.655 362.345H458.664C488.063 362.345 512.001 338.407 512.001 309.007V74.3374C512.001 44.9386 488.063 21 458.664 21ZM138.655 63.6691H458.664C464.555 63.6691 469.332 68.4472 469.332 74.3374V225.786L401.94 147.148C394.791 138.765 384.444 134.284 373.329 134.031C362.279 134.093 351.911 138.999 344.829 147.491L265.593 242.596L239.779 216.845C225.189 202.255 201.443 202.255 186.872 216.845L127.991 275.706V74.3364C127.991 68.4462 132.769 63.6691 138.655 63.6691Z" fill="#C61D19"/>
</g>
<defs>
<clipPath id="clip0_3201_10360">
<rect width="512" height="512" fill="white"/>
</clipPath>
</defs>
</svg>
