<svg width="24" height="24" viewBox="0 0 24 24" fill="none" xmlns="http://www.w3.org/2000/svg">
<path d="M3.35782 6.5021H5.28005V1.95884C5.28005 1.75757 5.36 1.56455 5.50232 1.42223C5.64464 1.27991 5.83766 1.19996 6.03893 1.19995H17.9611C18.0608 1.19995 18.1595 1.21958 18.2516 1.25772C18.3436 1.29586 18.4273 1.35176 18.4978 1.42223C18.5682 1.4927 18.6241 1.57636 18.6623 1.66844C18.7004 1.76051 18.72 1.8592 18.72 1.95886V6.5021H20.64C21.2124 6.50377 21.7608 6.73188 22.1656 7.1366C22.5703 7.54132 22.7984 8.08975 22.8 8.6621V16.7672C22.8 16.8671 22.7804 16.966 22.7422 17.0583C22.7039 17.1505 22.6479 17.2344 22.5773 17.305C22.5066 17.3757 22.4228 17.4317 22.3305 17.4699C22.2382 17.5081 22.1393 17.5278 22.0394 17.5278H18.72V22.041C18.72 22.1407 18.7004 22.2394 18.6623 22.3315C18.6241 22.4235 18.5682 22.5072 18.4978 22.5777C18.4273 22.6481 18.3436 22.704 18.2516 22.7422C18.1595 22.7803 18.0608 22.7999 17.9611 22.7999H6.03896C5.93929 22.7999 5.84061 22.7803 5.74854 22.7422C5.65646 22.704 5.5728 22.6481 5.50233 22.5777C5.43186 22.5072 5.37596 22.4235 5.33782 22.3315C5.29968 22.2394 5.28005 22.1407 5.28005 22.041V17.5278H1.96277C1.76049 17.5278 1.56649 17.4474 1.42345 17.3044C1.28041 17.1614 1.20005 16.9674 1.20005 16.7651V8.65987C1.20005 8.37651 1.25586 8.09592 1.3643 7.83413C1.47274 7.57233 1.63168 7.33446 1.83205 7.1341C2.03241 6.93373 2.27028 6.77479 2.53208 6.66635C2.79387 6.55791 3.07446 6.5021 3.35782 6.5021ZM6.24017 21.84H17.7602V13.9332H6.24017V21.84ZM6.24017 6.5021H17.7602V2.15997H6.24017V6.5021ZM4.48007 10.6621C4.65412 10.6621 4.82425 10.6105 4.96897 10.5138C5.11368 10.4171 5.22647 10.2796 5.29307 10.1188C5.35967 9.95804 5.37709 9.7811 5.34313 9.6104C5.30918 9.4397 5.22536 9.2829 5.10229 9.15983C4.97922 9.03676 4.82241 8.95295 4.65171 8.919C4.48101 8.88505 4.30407 8.90248 4.14327 8.96909C3.98248 9.0357 3.84504 9.14849 3.74835 9.29321C3.65166 9.43792 3.60005 9.60806 3.60005 9.78211C3.60005 9.89767 3.62281 10.0121 3.66704 10.1189C3.71126 10.2256 3.77609 10.3227 3.85781 10.4044C3.93952 10.4861 4.03654 10.5509 4.1433 10.5951C4.25007 10.6393 4.36451 10.6621 4.48007 10.6621Z" fill="#B0B4BB"/>
<path d="M8.0562 15.1538H15.9441V16.1619H8.0562V15.1538Z" fill="#B0B4BB"/>
<path d="M8.0562 17.3826H15.9441V18.3906H8.0562V17.3826Z" fill="#B0B4BB"/>
</svg>
