<svg width="16" height="16" viewBox="0 0 16 16" fill="none" xmlns="http://www.w3.org/2000/svg">
<rect width="16" height="16" rx="8" fill="#F8CB2D"/>
<path d="M7.14144 11.2898C7.09644 11.3373 7.05449 11.3874 7.01585 11.4398C6.97624 11.4955 6.94457 11.5561 6.92166 11.6198C6.89148 11.6765 6.87032 11.7371 6.85886 11.7998C6.85372 11.8664 6.85372 11.9332 6.85886 11.9998C6.85532 12.131 6.884 12.2611 6.94259 12.3798C6.9896 12.5039 7.06459 12.6166 7.16226 12.7099C7.25993 12.8032 7.37788 12.8749 7.50776 12.9198C7.63304 12.9727 7.7685 13 7.90547 13C8.04244 13 8.1779 12.9727 8.30318 12.9198C8.43306 12.8749 8.55101 12.8032 8.64868 12.7099C8.74635 12.6166 8.82134 12.5039 8.86834 12.3798C8.91482 12.2582 8.93615 12.1291 8.93114 11.9998C8.93194 11.8682 8.90554 11.7377 8.85345 11.6159C8.80137 11.4941 8.72463 11.3832 8.62763 11.2898C8.53033 11.1961 8.41457 11.1217 8.28704 11.0709C8.1595 11.0202 8.0227 10.994 7.88454 10.994C7.74637 10.994 7.60957 11.0202 7.48203 11.0709C7.3545 11.1217 7.23874 11.1961 7.14144 11.2898ZM7.88454 3C7.33304 2.99966 6.79118 3.13812 6.31348 3.40143C5.83579 3.66475 5.43911 4.04364 5.16336 4.49997C5.08763 4.61378 5.03679 4.74106 5.01388 4.87413C4.99097 5.00721 4.99647 5.14334 5.03005 5.27433C5.06363 5.40533 5.1246 5.52848 5.20929 5.63637C5.29398 5.74427 5.40063 5.83468 5.52284 5.90218C5.64504 5.96967 5.78028 6.01285 5.9204 6.02911C6.06053 6.04537 6.20265 6.03438 6.33821 5.99681C6.47378 5.95923 6.59999 5.89584 6.70925 5.81045C6.81851 5.72507 6.90856 5.61944 6.97399 5.49994C7.0662 5.34734 7.19898 5.22073 7.35887 5.13293C7.51877 5.04513 7.70011 4.99925 7.88454 4.99995C8.16211 4.99995 8.42832 5.10531 8.6246 5.29284C8.82087 5.48037 8.93114 5.73472 8.93114 5.99993C8.93114 6.26514 8.82087 6.51949 8.6246 6.70702C8.42832 6.89455 8.16211 6.99991 7.88454 6.99991C7.60696 6.99991 7.34075 7.10526 7.14447 7.29279C6.9482 7.48033 6.83793 7.73467 6.83793 7.99988V8.99986C6.83793 9.26507 6.9482 9.51942 7.14447 9.70695C7.34075 9.89448 7.60696 9.99984 7.88454 9.99984C8.16211 9.99984 8.42832 9.89448 8.6246 9.70695C8.82087 9.51942 8.93114 9.26507 8.93114 8.99986V8.81986C9.62334 8.57989 10.2052 8.11511 10.5751 7.50676C10.945 6.89842 11.0793 6.18522 10.9546 5.49183C10.83 4.79845 10.4542 4.16899 9.89297 3.7135C9.33177 3.25801 8.62087 3.00546 7.88454 3Z" fill="#2A2B2E"/>
<path fill-rule="evenodd" clip-rule="evenodd" d="M6.97399 5.49994C7.0662 5.34734 7.19898 5.22073 7.35887 5.13293C7.51877 5.04513 7.70011 4.99926 7.88454 4.99995C8.16211 4.99995 8.42832 5.10531 8.6246 5.29284C8.82087 5.48037 8.93114 5.73472 8.93114 5.99993C8.93114 6.26514 8.82087 6.51949 8.6246 6.70702C8.42832 6.89455 8.16211 6.99991 7.88454 6.99991C7.60696 6.99991 7.34075 7.10526 7.14447 7.29279C6.9482 7.48033 6.83793 7.73467 6.83793 7.99988V8.99986C6.83793 9.26507 6.9482 9.51942 7.14447 9.70695C7.31907 9.87377 7.54901 9.97557 7.79307 9.99601C7.82337 9.99855 7.85388 9.99984 7.88454 9.99984C7.91519 9.99984 7.9457 9.99855 7.976 9.99601C8.22006 9.97557 8.45 9.87377 8.6246 9.70695C8.82087 9.51942 8.93114 9.26507 8.93114 8.99986V8.81986C9.62334 8.57989 10.2052 8.11511 10.5751 7.50676C10.945 6.89842 11.0793 6.18522 10.9546 5.49183C10.83 4.79845 10.4542 4.16899 9.89297 3.7135C9.33177 3.25801 8.62087 3.00546 7.88454 3C7.33304 2.99966 6.79118 3.13812 6.31348 3.40143C5.83579 3.66475 5.43911 4.04364 5.16336 4.49997C5.08763 4.61378 5.03679 4.74106 5.01388 4.87413C4.99097 5.00721 4.99647 5.14334 5.03005 5.27433C5.06363 5.40533 5.1246 5.52848 5.20929 5.63637C5.29398 5.74427 5.40063 5.83469 5.52284 5.90218C5.64504 5.96967 5.78028 6.01285 5.9204 6.02911C6.06053 6.04537 6.20265 6.03438 6.33821 5.99681C6.47378 5.95923 6.59999 5.89584 6.70925 5.81046C6.81851 5.72507 6.90856 5.61944 6.97399 5.49994ZM7.79988 4.00149C7.44495 4.01433 7.10024 4.10962 6.79622 4.2772C6.4685 4.45784 6.20205 4.7146 6.01923 5.01715L6.01177 5.0295C6.01822 5.03231 6.02629 5.03469 6.03569 5.03578C6.04799 5.0372 6.06025 5.03615 6.0711 5.03314C6.08191 5.03015 6.08928 5.0258 6.09347 5.02253C6.0957 5.02079 6.09681 5.01954 6.0972 5.01907L6.10709 5.00101L6.11811 4.98277C6.30354 4.67589 6.56709 4.42686 6.87756 4.25638C7.16177 4.10032 7.47813 4.01387 7.79988 4.00149ZM8.42372 4.0706C8.75437 4.15879 9.06237 4.32805 9.31541 4.56981C9.70391 4.941 9.93114 5.45442 9.93114 5.99993C9.93114 6.54544 9.70391 7.05886 9.31541 7.43005C8.92847 7.79976 8.41299 7.99991 7.88454 7.99991C7.86119 7.99991 7.8453 8.00799 7.83793 8.0136V8.98615C7.8453 8.99176 7.86119 8.99984 7.88454 8.99984C7.90788 8.99984 7.92377 8.99176 7.93114 8.98615V8.10816L8.60358 7.87503C9.08296 7.70884 9.47537 7.39067 9.72067 6.98724C9.96522 6.58502 10.0514 6.11919 9.97044 5.66883C9.88933 5.21782 9.64326 4.79876 9.26277 4.48994C9.01989 4.2928 8.73289 4.1496 8.42372 4.0706ZM7.97597 10.9978C7.94561 10.9953 7.91511 10.994 7.88454 10.994C7.85396 10.994 7.82346 10.9953 7.7931 10.9978C7.68628 11.0068 7.58135 11.0314 7.48203 11.0709C7.3545 11.1217 7.23874 11.1961 7.14144 11.2898C7.09644 11.3373 7.05449 11.3874 7.01585 11.4398C6.97624 11.4955 6.94457 11.5561 6.92166 11.6198C6.89148 11.6765 6.87032 11.7372 6.85886 11.7998C6.85372 11.8664 6.85372 11.9332 6.85886 11.9998C6.85532 12.131 6.884 12.2611 6.94259 12.3798C6.9896 12.5039 7.06459 12.6166 7.16226 12.7099C7.25993 12.8032 7.37788 12.8749 7.50776 12.9198C7.63304 12.9727 7.7685 13 7.90547 13C8.04244 13 8.1779 12.9727 8.30318 12.9198C8.43306 12.8749 8.55101 12.8032 8.64868 12.7099C8.74635 12.6166 8.82134 12.5039 8.86834 12.3798C8.91482 12.2582 8.93615 12.1291 8.93114 11.9998C8.93194 11.8682 8.90554 11.7377 8.85345 11.6159C8.80137 11.4941 8.72463 11.3832 8.62763 11.2898C8.53033 11.1961 8.41457 11.1217 8.28704 11.0709C8.18772 11.0314 8.08279 11.0068 7.97597 10.9978ZM7.8861 11.994L7.89678 11.9985C7.89805 11.9991 7.90115 12 7.90547 12C7.90933 12 7.91222 11.9993 7.91369 11.9987C7.9057 11.996 7.8963 11.9942 7.8861 11.994Z" fill="#2A2B2E"/>
</svg>
