<svg width="101" height="101" viewBox="0 0 101 101" fill="none" xmlns="http://www.w3.org/2000/svg">
<path d="M43.5393 55.4407L43.8933 55.7946L44.2469 55.4402L62.2991 37.3459C62.2994 37.3456 62.2997 37.3453 62.3 37.345C62.9947 36.6549 63.9342 36.2675 64.9135 36.2675C65.8932 36.2675 66.8331 36.6552 67.5279 37.3459L67.5283 37.3463C67.8759 37.691 68.1517 38.1012 68.34 38.553C68.5283 39.0049 68.6252 39.4896 68.6252 39.9792C68.6252 40.4687 68.5283 40.9534 68.34 41.4053C68.1517 41.8572 67.8759 42.2674 67.5283 42.6121L67.5268 42.6136L46.4866 63.6538C46.4863 63.6541 46.486 63.6544 46.4857 63.6547C45.7951 64.3392 44.8632 64.7251 43.8908 64.7292L43.89 64.7292C43.402 64.732 42.9182 64.6385 42.4664 64.4539C42.015 64.2696 41.6044 63.998 41.2581 63.6548C41.2578 63.6545 41.2574 63.6541 41.2571 63.6538L31.3697 53.7243L31.3557 53.7102L31.3406 53.6973C30.9524 53.3649 30.6371 52.9558 30.4146 52.4957C30.192 52.0357 30.0669 51.5345 30.0472 51.0238C30.0274 50.5131 30.1135 50.0038 30.2999 49.528C30.4864 49.0521 30.7691 48.6199 31.1305 48.2585C31.4919 47.8971 31.9241 47.6143 32.4 47.4279C32.8759 47.2415 33.3852 47.1554 33.8959 47.1751C34.4066 47.1949 34.9077 47.3199 35.3678 47.5425C35.8278 47.7651 36.2369 48.0804 36.5694 48.4686L36.5819 48.4832L36.5956 48.4969L43.5393 55.4407ZM27.3975 15.9247C34.2359 11.3555 42.2756 8.91669 50.5 8.91669C55.9608 8.91669 61.3681 9.99227 66.4132 12.082C71.4583 14.1718 76.0425 17.2348 79.9038 21.0962C83.7652 24.9575 86.8282 29.5416 88.918 34.5868C91.0077 39.6319 92.0833 45.0392 92.0833 50.5C92.0833 58.7244 89.6445 66.7641 85.0752 73.6025C80.506 80.4408 74.0116 85.7707 66.4132 88.918C58.8149 92.0654 50.4538 92.8889 42.3875 91.2843C34.3211 89.6798 26.9117 85.7194 21.0961 79.9039C15.2806 74.0883 11.3202 66.6789 9.71566 58.6125C8.11116 50.5462 8.93464 42.1851 12.082 34.5868C15.2293 26.9884 20.5592 20.494 27.3975 15.9247ZM31.518 78.9086C37.1367 82.6628 43.7424 84.6667 50.5 84.6667C59.5615 84.6667 68.252 81.067 74.6595 74.6595C81.0669 68.252 84.6666 59.5616 84.6666 50.5C84.6666 43.7425 82.6628 37.1367 78.9085 31.518C75.1542 25.8994 69.8181 21.5201 63.575 18.9341C57.3319 16.3481 50.4621 15.6715 43.8344 16.9899C37.2067 18.3082 31.1188 21.5622 26.3405 26.3405C21.5622 31.1188 18.3081 37.2068 16.9898 43.8344C15.6715 50.4621 16.3481 57.3319 18.9341 63.575C21.5201 69.8182 25.8993 75.1543 31.518 78.9086Z" fill="#27AE60" stroke="#27AE60"/>
</svg>
