<svg width="16" height="16" viewBox="0 0 16 16" fill="none" xmlns="http://www.w3.org/2000/svg">
<path fill-rule="evenodd" clip-rule="evenodd" d="M8.0013 0.666656C10.9519 0.666656 13.3346 3.13043 13.3346 6.15872V9.17459C13.3346 11.7691 11.5856 13.9493 9.22892 14.5206C9.02679 14.998 8.5532 15.3333 8.0013 15.3333C7.26492 15.3333 6.66797 14.7364 6.66797 14C6.66797 13.2636 7.26492 12.6667 8.0013 12.6667C8.43091 12.6667 8.81306 12.8698 9.0569 13.1853C10.7513 12.7056 12.0013 11.0948 12.0013 9.17459V6.15872C12.0013 3.85702 10.2054 1.99999 8.0013 1.99999C5.79724 1.99999 4.0013 3.85702 4.0013 6.15872V9.17459C4.0013 9.54278 3.70283 9.84126 3.33464 9.84126C2.96645 9.84126 2.66797 9.54278 2.66797 9.17459V6.15872C2.66797 3.13043 5.0507 0.666656 8.0013 0.666656ZM1.33464 5.33332C1.70283 5.33332 2.0013 5.6318 2.0013 5.99999V9.33332C2.0013 9.70151 1.70283 9.99999 1.33464 9.99999C0.966446 9.99999 0.667969 9.70151 0.667969 9.33332V5.99999C0.667969 5.6318 0.966446 5.33332 1.33464 5.33332ZM14.668 5.33332C15.0362 5.33332 15.3346 5.6318 15.3346 5.99999V9.33332C15.3346 9.70151 15.0362 9.99999 14.668 9.99999C14.2998 9.99999 14.0013 9.70151 14.0013 9.33332V5.99999C14.0013 5.6318 14.2998 5.33332 14.668 5.33332Z" fill="#242424"/>
</svg>
