<svg width="199" height="219" viewBox="0 0 199 219" fill="none" xmlns="http://www.w3.org/2000/svg">
<g opacity="0.4">
<path d="M188.855 160.098C185.905 158.013 182.41 156.852 178.808 156.761C175.205 156.669 171.656 157.651 168.606 159.584C166.211 161.485 164.302 163.936 163.037 166.731C161.773 169.526 161.189 172.586 161.335 175.654C161.26 177.338 161.41 179.025 161.781 180.668C162.03 181.779 162.405 182.857 162.897 183.882C163.874 185.815 165.223 187.533 166.866 188.934C168.508 190.336 170.411 191.394 172.464 192.046C180.724 195.035 190.195 190.792 195.999 183.85C197.179 182.495 198.046 180.892 198.536 179.158C199.027 177.424 199.13 175.601 198.837 173.822C198.122 170.985 196.858 168.318 195.118 165.973C193.377 163.629 191.195 161.655 188.696 160.163" fill="#FFE3E3"/>
<path fill-rule="evenodd" clip-rule="evenodd" d="M66.6915 59.8803C70.8797 73.4387 75.3237 88.2123 79.4799 101.771L107.55 92.913C110.942 90.941 113.806 88.1759 115.895 84.8546C119.455 80.187 121.04 74.3072 120.307 68.4822C119.727 65.1722 118.434 62.0279 116.519 59.2671C114.603 56.5063 112.11 54.1951 109.213 52.4935C103.842 49.7434 97.7354 50.8946 91.6289 52.0778L66.6915 59.7204V59.8803ZM0 29.3738L88.0801 2.38481C97.0781 0.175306 106.383 -0.505699 115.607 0.370238C128.509 1.73028 140.733 6.83191 150.775 15.0479C162.012 24.9796 170.092 37.9866 174.018 52.4615C177.085 64.5159 176.853 77.1737 173.347 89.1076C171.04 97.3363 166.709 104.856 160.75 110.98C154.99 117.321 148.359 122.812 141.056 127.289C134.003 131.363 126.49 134.584 118.676 136.882L93.5791 144.812L111.131 202.819L58.9545 219L0 29.3738Z" fill="#FFE3E3"/>
</g>
</svg>
