<svg width="21" height="20" viewBox="0 0 21 20" fill="none" xmlns="http://www.w3.org/2000/svg">
<g clip-path="url(#clip0)">
<path d="M19.4587 11.5775C20.0603 6.55502 19.1696 3.38419 17.5631 1.95002L17.5639 1.94919C14.9709 -0.499979 6.21385 -0.86248 3.11165 2.05919C1.71852 3.48835 1.22781 5.58585 1.17404 8.18252C1.12026 10.78 1.0564 15.6459 5.6282 16.9659H5.6324L5.6282 18.9817C5.6282 18.9817 5.59711 19.7984 6.1231 19.9625C6.72472 20.1559 6.99696 19.7767 8.8682 17.56C11.9973 17.8292 14.4004 17.2125 14.6735 17.1225C15.3053 16.9125 18.8806 16.4434 19.4587 11.5775ZM9.17657 16.1417C9.17657 16.1417 7.1961 18.5909 6.5802 19.2267C6.37854 19.4334 6.15755 19.4142 6.16091 19.0042C6.16091 18.735 6.17604 15.6575 6.17604 15.6575C2.29997 14.5559 2.52852 10.4125 2.57053 8.24502C2.61254 6.07669 3.0125 4.30085 4.19221 3.10502C6.91378 0.574187 14.5911 1.14002 16.5472 2.96335C18.9386 5.06585 18.0874 11.0059 18.0924 11.2084C17.6009 15.27 14.7037 15.5275 14.171 15.7034C13.9433 15.7784 11.8301 16.3175 9.17657 16.1417Z" fill="#7000FF"/>
<path d="M10.2709 3.58057C9.94745 3.58057 9.94745 4.08057 10.2709 4.08473C12.7808 4.1039 14.8478 5.8389 14.8705 9.0214C14.8705 9.35723 15.3662 9.35307 15.362 9.01723H15.3612C15.3343 5.58807 13.0774 3.59973 10.2709 3.58057Z" fill="#7000FF"/>
<path d="M13.5739 8.4942C13.5664 8.82586 14.0613 8.8417 14.0655 8.50586C14.1067 6.61503 12.9311 5.05753 10.7221 4.89336C10.3986 4.87003 10.365 5.3742 10.6877 5.39753C12.6034 5.5417 13.6126 6.83836 13.5739 8.4942Z" fill="#7000FF"/>
<path d="M13.0446 10.645C12.6296 10.4067 12.2069 10.555 12.0322 10.7892L11.6666 11.2583C11.4809 11.4967 11.1339 11.465 11.1339 11.465C8.60142 10.8008 7.92418 8.17251 7.92418 8.17251C7.92418 8.17251 7.89309 7.81667 8.125 7.62584L8.5821 7.25084C8.81064 7.07084 8.95516 6.63751 8.72242 6.21167C8.10063 5.09751 7.68303 4.71334 7.47045 4.41834C7.24694 4.14084 6.91084 4.07834 6.5613 4.26584H6.55374C5.82692 4.68751 5.03121 5.47667 5.28581 6.28917C5.72021 7.14584 6.51845 9.87667 9.06272 11.94C10.2584 12.9158 12.1506 13.9158 12.9539 14.1467L12.9615 14.1583C13.753 14.42 14.5226 13.6 14.9335 12.8575V12.8517C15.1159 12.4925 15.0554 12.1525 14.789 11.93C14.3168 11.4733 13.6043 10.9692 13.0446 10.645Z" fill="#7000FF"/>
<path d="M11.0668 6.75324C11.8743 6.7999 12.2659 7.21824 12.3079 8.07741C12.323 8.41324 12.8146 8.38991 12.7995 8.05408C12.7457 6.9324 12.1558 6.3074 11.0937 6.24907C10.7702 6.2299 10.74 6.73407 11.0668 6.75324Z" fill="#7000FF"/>
</g>
<defs>
<clipPath id="clip0">
<rect width="20.166" height="20" fill="white" transform="translate(0.00292969)"/>
</clipPath>
</defs>
</svg>
