<svg width="512" height="512" viewBox="0 0 512 512" fill="none" xmlns="http://www.w3.org/2000/svg">
<path d="M76.6333 16.6128L176.977 116.956H3.17184C6.71849 95.6515 15.212 75.4755 27.9702 58.0487C40.7284 40.6219 57.3957 26.4299 76.6333 16.6128ZM211.506 1.08619H140.13C135.727 1.08619 131.324 1.31793 126.921 1.54967L242.327 116.956H327.376L211.506 1.08619ZM371.87 1.08619H277.32L393.19 116.956H508.828C503.399 84.5605 486.658 55.1398 461.581 33.9242C436.505 12.7087 404.717 1.07315 371.87 1.08619ZM220.822 386.377L336.692 322.648C340.325 320.648 343.355 317.709 345.465 314.138C347.575 310.567 348.689 306.496 348.689 302.348C348.689 298.2 347.575 294.128 345.465 290.558C343.355 286.987 340.325 284.048 336.692 282.047L220.822 218.319C217.294 216.378 213.32 215.39 209.294 215.452C205.267 215.514 201.327 216.625 197.86 218.674C194.393 220.723 191.52 223.64 189.525 227.138C187.529 230.635 186.479 234.592 186.478 238.619V366.076C186.479 370.103 187.529 374.061 189.525 377.558C191.52 381.056 194.393 383.973 197.86 386.022C201.327 388.071 205.267 389.181 209.294 389.244C213.32 389.306 217.294 388.318 220.822 386.377ZM510.914 163.304V371.87C510.883 408.737 496.224 444.086 470.155 470.155C444.086 496.224 408.737 510.883 371.87 510.914H140.13C103.263 510.883 67.9142 496.224 41.8451 470.155C15.7759 444.086 1.11687 408.737 1.08618 371.87V163.304H510.914Z" fill="#C61D19"/>
</svg>
