<svg width="24" height="24" viewBox="0 0 24 24" fill="none" xmlns="http://www.w3.org/2000/svg">
<path fill-rule="evenodd" clip-rule="evenodd" d="M4 3V5H20V3H4ZM3 1C2.44772 1 2 1.44772 2 2V6C2 6.55228 2.44772 7 3 7H21C21.5523 7 22 6.55228 22 6V2C22 1.44772 21.5523 1 21 1H3Z" fill="#B0B4BB"/>
<path fill-rule="evenodd" clip-rule="evenodd" d="M4 11V13H20V11H4ZM3 9C2.44772 9 2 9.44772 2 10V14C2 14.5523 2.44772 15 3 15H21C21.5523 15 22 14.5523 22 14V10C22 9.44772 21.5523 9 21 9H3Z" fill="#B0B4BB"/>
<path fill-rule="evenodd" clip-rule="evenodd" d="M4 19V21H20V19H4ZM3 17C2.44772 17 2 17.4477 2 18V22C2 22.5523 2.44772 23 3 23H21C21.5523 23 22 22.5523 22 22V18C22 17.4477 21.5523 17 21 17H3Z" fill="#B0B4BB"/>
</svg>
