<svg width="32" height="32" viewBox="0 0 32 32" fill="none" xmlns="http://www.w3.org/2000/svg">
<path d="M16.1067 22.1931L16.1234 22.1943H16.1402C16.7588 22.1943 17.2457 22.1323 17.5755 21.9124C17.9847 21.6396 18.029 21.2259 18.029 20.9443V19.1943C18.029 19.124 18.0311 19.0696 18.0344 19.0276C18.0372 19.0276 18.04 19.0276 18.043 19.0276C18.1231 19.0276 18.4827 19.0358 19.6233 20.1344C19.943 20.4543 20.1968 20.7308 20.4113 20.9686C20.4517 21.0134 20.4913 21.0574 20.53 21.1006C20.6929 21.282 20.8413 21.4472 20.9766 21.5833C21.1461 21.7536 21.3259 21.9109 21.5368 22.0224C21.7588 22.1397 21.9918 22.1943 22.2513 22.1943H24.1957C24.5356 22.1943 24.9223 22.1119 25.1788 21.8139C25.4526 21.4959 25.4508 21.0869 25.3403 20.7278L25.3283 20.689L25.3103 20.6525C24.8705 19.7666 24.29 18.9578 23.5914 18.2578C23.3545 17.9799 23.0691 17.7005 22.8309 17.4673L22.8078 17.4446C22.5354 17.1779 22.3669 17.0078 22.3063 16.9169L22.2961 16.9017L22.2849 16.8873C22.2414 16.8313 22.2192 16.7947 22.2084 16.7737C22.209 16.7725 22.2096 16.7712 22.2103 16.7698C22.2269 16.7358 22.2537 16.6915 22.3015 16.6179C23.3472 15.1946 24.2377 13.6636 24.9579 12.0509L24.971 12.0215L24.9802 11.9907C25.0571 11.7345 25.1073 11.3638 24.8833 11.0476C24.6538 10.7236 24.2679 10.6387 23.918 10.6387H21.9888C21.7039 10.6231 21.4212 10.699 21.1822 10.8557C20.9422 11.0131 20.7593 11.2434 20.6603 11.5125C20.0835 12.889 19.3109 14.1748 18.3664 15.3304C18.2172 15.479 18.1103 15.5786 18.029 15.646V11.847C18.029 11.578 17.9977 11.2564 17.8061 11.0034C17.5857 10.7124 17.2597 10.6387 16.9736 10.6387H13.9271C13.6768 10.6309 13.4329 10.7193 13.2456 10.8858C13.055 11.0552 12.938 11.2923 12.9193 11.5466L12.918 11.5648V11.5832C12.918 11.8402 13.0181 12.0342 13.1149 12.1759C13.1605 12.2427 13.2112 12.306 13.2522 12.3571L13.2617 12.369C13.3019 12.419 13.3372 12.463 13.3729 12.5115C13.5054 12.6914 13.6589 12.9521 13.6957 13.4885V16.3332C13.6957 16.3725 13.6952 16.4084 13.6943 16.441C13.652 16.4034 13.6046 16.3577 13.5525 16.3031C13.3258 16.0655 13.0536 15.7062 12.7623 15.2462C12.1815 14.329 11.5595 13.0663 11.0997 11.7139L11.097 11.7059L11.094 11.6979C10.9939 11.4334 10.8663 11.1498 10.6395 10.9439C10.3867 10.7143 10.0801 10.6387 9.7513 10.6387H7.80689C7.4607 10.6387 7.13286 10.7202 6.90254 10.9629C6.67511 11.2025 6.64022 11.4983 6.64022 11.6943V11.7475L6.65143 11.7995C7.17363 14.2236 8.25202 16.493 9.80135 18.4288C10.4781 19.5047 11.399 20.4062 12.4894 21.0599C13.5884 21.7188 14.8282 22.1072 16.1067 22.1931ZM22.1987 16.7513C22.1988 16.7514 22.1993 16.7525 22.1997 16.7547C22.1989 16.7524 22.1987 16.7513 22.1987 16.7513ZM17.8346 15.7637C17.8375 15.7637 17.8403 15.7637 17.8431 15.7638C17.8406 15.7639 17.8386 15.7638 17.8369 15.7638C17.8361 15.7637 17.8353 15.7637 17.8346 15.7637ZM11.918 3.1665H20.0986C23.8434 3.1665 25.9503 3.62511 27.1647 4.84252C28.3794 6.06033 28.8346 8.17122 28.8346 11.9165V20.097C28.8346 23.8419 28.376 25.9488 27.1586 27.1632C25.9408 28.3779 23.8299 28.8332 20.0846 28.8332H11.904C8.15925 28.8332 6.05229 28.3745 4.83795 27.1571C3.6232 25.9393 3.16797 23.8284 3.16797 20.0832V11.9026C3.16797 8.16501 3.62646 6.05765 4.8442 4.84145C6.06218 3.62501 8.17332 3.1665 11.918 3.1665Z" fill="#B0B4BB" stroke="#B0B4BB"/>
</svg>
