<svg width="32" height="32" viewBox="0 0 32 32" fill="none" xmlns="http://www.w3.org/2000/svg">
<path d="M30.1696 12.9294L30.1693 12.938V12.9466C30.1693 13.7639 30.1689 18.2412 30.1172 18.9644L30.1158 18.985L30.116 19.0057C30.1331 20.49 29.9072 21.9671 29.4472 23.3784L29.4465 23.3806C29.3099 23.8068 29.0737 24.1943 28.7577 24.5112C28.2776 24.9798 27.6676 25.293 27.0072 25.4099C22.1967 25.7802 18.1249 25.8464 13.4764 25.78L13.4675 25.7799L13.4586 25.7801C10.5922 25.8413 7.7251 25.6962 4.87954 25.3457C4.23726 25.2233 3.64554 24.9136 3.17889 24.4556C2.77875 24.0028 2.496 23.4585 2.35564 22.8705L2.35574 22.8705L2.35314 22.8605C2.13473 22.0226 2.00591 21.1638 1.96885 20.2986L1.969 20.2986L1.96818 20.2864C1.77632 17.4333 1.77623 14.5706 1.96791 11.7175C1.97024 11.6896 1.97256 11.6617 1.97488 11.6337C2.03996 10.8508 2.10632 10.0524 2.28812 9.3146C2.47575 8.55312 2.7749 7.90869 3.27494 7.44754L3.27497 7.44757L3.27981 7.44299C3.74339 7.00389 4.32341 6.70759 4.95055 6.58924C8.62209 6.26181 12.3084 6.12962 15.994 6.19324L16.0024 6.19338L16.0109 6.19324C19.7101 6.13239 23.41 6.26901 27.0947 6.60254C27.8497 6.74406 28.5341 7.13755 29.0361 7.71808C29.8422 9.33331 30.232 11.1247 30.1696 12.9294ZM12.4893 19.8V20.639L13.2272 20.2397C14.562 19.5175 15.9353 18.8199 17.2536 18.1502L17.3674 18.0924C18.7173 17.4067 20.009 16.7492 21.125 16.1306L21.9353 15.6815L21.1152 15.2507L13.2218 11.104L12.4893 10.7192V11.5466V19.8Z" fill="#B0B4BB" stroke="#B0B4BB"/>
</svg>
