<svg xmlns="http://www.w3.org/2000/svg" viewBox="0 0 43.12 41.13"><defs><style>.cls-1{fill:#0071bc;}</style></defs><g id="Layer_2" data-name="Layer 2"><g id="Layer_1-2" data-name="Layer 1"><path class="cls-1" d="M2.75,20l-1.2.31a.66.66,0,0,1,0-.36c0-.67.05-1.33.15-2a24,24,0,0,1,.66-3.14,21.35,21.35,0,0,1,1-2.67,19.45,19.45,0,0,1,1.53-2.8A18.66,18.66,0,0,1,6.1,7.62,22.71,22.71,0,0,1,8,5.58c.42-.4.86-.78,1.31-1.14a20.36,20.36,0,0,1,1.88-1.31,15.91,15.91,0,0,1,2-1.08c.24-.1.46-.24.7-.35.48-.2,1-.38,1.45-.55A18.78,18.78,0,0,1,18,.43c.54-.11,1.08-.22,1.62-.28A9.68,9.68,0,0,1,20.84.06a7.25,7.25,0,0,1,1,0A8.53,8.53,0,0,0,23,0a7.13,7.13,0,0,1,1,.07c.38.07.77.1,1.15.14s.63.1.94.17S27,.6,27.41.71a14.17,14.17,0,0,1,1.78.57c.52.2,1,.4,1.54.64a22.34,22.34,0,0,1,4.55,2.87c.27.22.52.47.79.7s.72.76,1.1,1.12a9.63,9.63,0,0,1,.73.83,19.33,19.33,0,0,1,1.21,1.61c.24.34.45.7.68,1.06a.18.18,0,0,1,0,.17,9.6,9.6,0,0,1-1.23.3,19.29,19.29,0,0,0-9-7.79,18.78,18.78,0,0,0-11.83-1A18.85,18.85,0,0,0,7.16,8.32,19.4,19.4,0,0,0,2.75,20Z"/><path class="cls-1" d="M41.42,21.05c.41-.16.81-.23,1.2-.35.11.09.07.21.05.31a2.06,2.06,0,0,0,0,.35c0,.51-.08,1-.11,1.51A17.16,17.16,0,0,1,42.2,25a19.78,19.78,0,0,1-1.94,5.21,16.48,16.48,0,0,1-1.33,2.16l-.86,1.15a8.4,8.4,0,0,1-.73.85c-.27.28-.52.59-.8.86a22.54,22.54,0,0,1-2.17,1.85,15.76,15.76,0,0,1-1.44,1,11.59,11.59,0,0,1-1.59.86c-.37.16-.72.37-1.09.53s-.86.33-1.29.5c-.76.3-1.57.46-2.36.7a8.87,8.87,0,0,1-1,.18l-1,.18-.08,0a11.13,11.13,0,0,0-1.53.1c-.59,0-1.16,0-1.74,0A8.44,8.44,0,0,1,19.6,41c-.26,0-.53-.06-.79-.08a9,9,0,0,1-.9-.18,18.82,18.82,0,0,1-2.32-.6,19.48,19.48,0,0,1-2.83-1.19c-.45-.24-.9-.48-1.34-.74A20.66,20.66,0,0,1,9.29,36.7a16.44,16.44,0,0,1-1.47-1.28,18.07,18.07,0,0,1-1.47-1.56,22.41,22.41,0,0,1-1.49-2c-.2-.31-.39-.63-.58-.95a.16.16,0,0,1,0-.19c.37-.11.75-.21,1.16-.31A19.16,19.16,0,0,0,17.1,39.23a18.77,18.77,0,0,0,10.27-.1A19.31,19.31,0,0,0,41.42,21.05Z"/><path class="cls-1" d="M5.94,23.35l-.73-2.81,2.54-.66L9.87,28l-2.53.67c-.33-1.09-.55-2.18-.87-3.25l-2.66.69c.26,1.11.56,2.16.83,3.25-.85.22-1.66.47-2.53.65L0,21.92c.84-.25,1.68-.42,2.52-.68.28.92.47,1.85.75,2.77.17.09.32,0,.46-.06.67-.2,1.35-.35,2-.54Z"/><path class="cls-1" d="M11.58,18.89c.91-.29,1.83-.49,2.75-.75,1.72,2.44,3.43,4.86,5.18,7.3-.9.25-1.78.48-2.67.7-.27-.4-.46-.81-.77-1.21-.92.24-1.86.47-2.78.74a9.64,9.64,0,0,1-.08,1.43c-.83.22-1.66.44-2.55.65Zm1.94,1.92c-.07,1-.14,1.91-.14,2.89.58-.12,1.11-.27,1.68-.43C14.55,22.43,14.07,21.61,13.52,20.81Z"/><path class="cls-1" d="M34.85,15.37c-.7.37-1.37.74-2.05,1.05-.13,0-.16-.09-.21-.15a1.35,1.35,0,0,0-1.46-.58,1.51,1.51,0,0,0-.94.54,1.57,1.57,0,0,0-.36,1.19A6.44,6.44,0,0,0,30.18,19a4,4,0,0,0,.37.75,1.39,1.39,0,0,0,1.63.54,1.46,1.46,0,0,0,1.11-1.49c0-.11,0-.23,0-.34a.39.39,0,0,1,.06-.14c.78.07,1.56,0,2.35.11a6.75,6.75,0,0,1-.16,1.36,3,3,0,0,1-1.78,2,7.1,7.1,0,0,1-1.28.42,6.29,6.29,0,0,1-1.73.14,2.82,2.82,0,0,1-1.28-.4A4,4,0,0,1,28,20.4a5.31,5.31,0,0,1-.57-1.59,6.31,6.31,0,0,1-.16-1.06,4.11,4.11,0,0,1,.69-2.41,3.55,3.55,0,0,1,1.3-1.07,6.33,6.33,0,0,1,1.51-.54,2.64,2.64,0,0,1,.79-.1.79.79,0,0,0,.31,0A3.38,3.38,0,0,1,34.85,15.37Z"/><path class="cls-1" d="M24.58,20.58c.77,0,1.53.11,2.27.07a.37.37,0,0,1,.08.35,5.05,5.05,0,0,1-.22,1.21A3.14,3.14,0,0,1,26,23.42a4,4,0,0,1-1.76.94,6.92,6.92,0,0,1-1.18.26,3.5,3.5,0,0,1-2.44-.48,4,4,0,0,1-1.47-1.64,6.73,6.73,0,0,1-.54-1.77,4.67,4.67,0,0,1,.06-2A3.09,3.09,0,0,1,19.86,17a5.62,5.62,0,0,1,2.36-1,4.87,4.87,0,0,1,1-.09.76.76,0,0,0,.15,0,2.92,2.92,0,0,1,1.89.8,3,3,0,0,1,.76.94,11.44,11.44,0,0,1-2.1,1.05,1.55,1.55,0,0,0-.5-.52A1.41,1.41,0,0,0,22.2,18a1.51,1.51,0,0,0-1.08,1.22,1.78,1.78,0,0,0,0,.69A9.81,9.81,0,0,0,21.33,21a3.59,3.59,0,0,0,.48,1,1.38,1.38,0,0,0,1.7.48,1.39,1.39,0,0,0,1-1.42C24.52,20.94,24.55,20.79,24.58,20.58Z"/><path class="cls-1" d="M40.91,11.39c.24.11.49.08.72.19a2.21,2.21,0,0,1,1,.87,3.37,3.37,0,0,1,.5,1.78,2.22,2.22,0,0,1-.47,1.38,3,3,0,0,1-1.48,1c-.36.13-.73.22-1.1.32l-.48.12a.54.54,0,0,0-.24.12l.78,2.93c-.86.23-1.7.47-2.57.66l-2.11-8c.17-.17.4-.16.6-.22.68-.19,1.37-.35,2.05-.53s1.42-.38,2.15-.51a2.38,2.38,0,0,1,.38,0A.52.52,0,0,0,40.91,11.39Zm-.33,2.95c0-.09,0-.15,0-.22a.84.84,0,0,0-.84-.72,2,2,0,0,1-.35.06,4.36,4.36,0,0,0-.88.19,14.4,14.4,0,0,0,.44,1.69.36.36,0,0,0,.25,0,6.69,6.69,0,0,0,.86-.29.86.86,0,0,0,.51-.53Z"/><path class="cls-1" d="M12.76,28.57a.63.63,0,0,1,.42-.18l.91-.23a.37.37,0,0,1,.35.08c.23.18.41.41.65.59l.5.4a11.4,11.4,0,0,0,2.28,1.3,10.8,10.8,0,0,0,1.31.47,11.86,11.86,0,0,0,1.37.28,9.32,9.32,0,0,0,1.83.1A10.6,10.6,0,0,0,24,31.21c.43-.09.86-.18,1.27-.31a10.85,10.85,0,0,0,2.59-1.19,11.07,11.07,0,0,0,1.64-1.27,12.66,12.66,0,0,0,1.07-1.13,10.27,10.27,0,0,0,1-1.56,9,9,0,0,0,.85-2.06c.08-.35.34-.45.64-.5S33.66,23,34,23c0,0,.06,0,.14,0a12,12,0,0,1-2.49,5.31,11.84,11.84,0,0,1-4.69,3.56A12.28,12.28,0,0,1,12.76,28.57Z"/><path class="cls-1" d="M31.23,12.52a13.68,13.68,0,0,1-1.56.39c-3-2.69-6.43-3.78-10.36-2.73a10.61,10.61,0,0,0-7.65,7.46c-.52.13-1,.29-1.59.4a12.22,12.22,0,0,1,1.57-3.92A11.86,11.86,0,0,1,18.17,9a12,12,0,0,1,9.77.88A10.38,10.38,0,0,1,31.23,12.52Z"/><path class="cls-1" d="M7.35,11.37,10,12.78l-.34.6c-.38-.16-.71-.41-1.09-.56a.29.29,0,0,0-.12.25c.33.22.69.38,1,.58a1.79,1.79,0,0,1-.32.63L6.59,12.93a2.16,2.16,0,0,1,.33-.62c.31.12.59.31.88.45.11-.06.19-.12.13-.27L7.07,12C7.12,11.79,7.29,11.63,7.35,11.37Z"/><path class="cls-1" d="M17.86,3.43l1-.25L20,5.9a1.36,1.36,0,0,1-.7.13l-.15-.4c-.14-.06-.23,0-.33,0,0,.19.08.36,0,.54a5.54,5.54,0,0,1-.69.12Zm.73.48-.06,0,.15,1.25c.13,0,.22,0,.3-.1A7.3,7.3,0,0,0,18.59,3.91Z"/><path class="cls-1" d="M15.85,7.2a.6.6,0,0,1-.46.4A.37.37,0,0,1,15,7.45a3.06,3.06,0,0,1-.35-.64c-.15-.28-.28-.58-.43-.86a.48.48,0,0,1,.44-.67h.27c0-.21-.2-.37-.24-.59a2.69,2.69,0,0,1,.55-.31c.5.85.88,1.74,1.36,2.62C16.34,7.1,16.16,7.3,15.85,7.2Zm-1-1.67a.24.24,0,0,0,0,.28c.2.38.39.76.59,1.13,0,.09.11.16.22.1a.21.21,0,0,0,0-.27c-.17-.38-.37-.74-.56-1.1A.23.23,0,0,0,14.89,5.53Z"/><path class="cls-1" d="M11.14,31.55c-.11-.2-.34-.3-.37-.54.13-.2.36-.32.47-.54a.14.14,0,0,0,0-.15c-.05-.05-.11,0-.2,0a15.58,15.58,0,0,0-1.47,1.34.21.21,0,0,0,.18.18,1.32,1.32,0,0,0,.51-.39,2.31,2.31,0,0,1,.48.51,2,2,0,0,1-.66.47A1.09,1.09,0,0,1,9,31.52a.73.73,0,0,1,.28-.64c.25-.24.52-.47.78-.7l.34-.28a.83.83,0,0,1,1.22.19,1,1,0,0,1,.18.33.73.73,0,0,1-.14.69A2.39,2.39,0,0,1,11.14,31.55Z"/><path class="cls-1" d="M24.17,36.24a2,2,0,0,1-.6,0c-.17-.24,0-.52-.17-.75a.18.18,0,0,0-.18,0,.46.46,0,0,0-.11.35c.05.53,0,1.06.11,1.58l0,.13c.1.1.19.08.29,0s0-.4.07-.62a1.65,1.65,0,0,1,.59,0,1.76,1.76,0,0,1,0,.79.45.45,0,0,1-.22.25,1.14,1.14,0,0,1-1.09,0,.54.54,0,0,1-.3-.44,7.41,7.41,0,0,1-.11-1.76c0-.53.25-.67.82-.72a1.51,1.51,0,0,1,.3,0,.6.6,0,0,1,.57.56A2,2,0,0,1,24.17,36.24Z"/><path class="cls-1" d="M37.45,25c0,.1,0,.14.12.17.39.16.79.24,1.18.38l.61.19a2.13,2.13,0,0,1-.2.62c-.76-.18-1.48-.45-2.24-.65a2,2,0,0,1,.14-.6c.08-.07.16,0,.22-.08a.59.59,0,0,1-.07-.52.41.41,0,0,1,.48-.28,8,8,0,0,1,1,.26c.3.1.61.18.91.27l.08,0c0,.22-.13.4-.16.63l-.58-.15a11,11,0,0,0-1.24-.36A.19.19,0,0,0,37.45,25Z"/><path class="cls-1" d="M20.05,3.56c.2-.15.42-.07.6-.11s.07.12.11.17l0,0a.68.68,0,0,1,.39-.23.38.38,0,0,1,.49.29c.07.42.13.84.16,1.26a5.35,5.35,0,0,0,.07.56.3.3,0,0,1-.05.25l-.61.08c-.1-.68-.09-1.34-.21-2a.21.21,0,0,0-.22,0,.22.22,0,0,0-.06.23c.05.55.11,1.1.16,1.65a.21.21,0,0,1,0,.15,1.34,1.34,0,0,1-.63.07Z"/><path class="cls-1" d="M35.75,30.21c.26.29.62.45.92.73a2,2,0,0,1-.45.55L33.9,29.77a6.92,6.92,0,0,1,.59-.78l.12-.13a.54.54,0,0,1,.6-.1,3.26,3.26,0,0,1,.68.49.39.39,0,0,1,.09.5C35.9,29.9,35.83,30,35.75,30.21Zm-.32-.5a.73.73,0,0,0-.55-.42.26.26,0,0,0-.15.17,2.75,2.75,0,0,0,.59.44A.16.16,0,0,0,35.43,29.71Z"/><path class="cls-1" d="M28.12,34.75c.33.67.5,1.4.76,2.09-.19.15-.41.12-.62.24-.24-.64-.4-1.28-.65-1.87a.19.19,0,0,0-.22,0,.66.66,0,0,0,.06.44l.43,1.29c0,.06,0,.13.06.21a1.54,1.54,0,0,1-.64.19l-.72-2.2a2.69,2.69,0,0,1,.56-.22c.1,0,.1.1.15.16.13-.11.16-.31.34-.35A.76.76,0,0,1,28.12,34.75Z"/><path class="cls-1" d="M36.49,27.33a2,2,0,0,1,.84.32,4.36,4.36,0,0,1,.41.24A.74.74,0,0,1,38,29a2.43,2.43,0,0,1-.14.2.57.57,0,0,1-.71.19A6.3,6.3,0,0,1,36,28.77a.64.64,0,0,1-.27-.72C35.81,27.69,36.12,27.3,36.49,27.33Zm-.24.56c-.14.12-.08.21,0,.27l1.15.64a.17.17,0,0,0,.26-.05A3.64,3.64,0,0,0,36.25,27.89Z"/><path class="cls-1" d="M9,11.52a.68.68,0,0,1-.35-1A1.1,1.1,0,0,1,9,10a.48.48,0,0,1,.55,0,18.3,18.3,0,0,1,1.53,1.08s0,0,0,.05c-.07.19-.24.31-.33.48s-.12-.08-.21,0,0,.07,0,.12a.48.48,0,0,1-.19.47.45.45,0,0,1-.46,0,1.59,1.59,0,0,1-.46-.32.29.29,0,0,1-.08-.29c0-.25.08-.5.11-.75a.59.59,0,0,0-.42-.33c-.12.15-.12.2,0,.3a.86.86,0,0,1,.24.23A4.06,4.06,0,0,1,9,11.52Zm1.45,0A1.73,1.73,0,0,0,9.79,11a.6.6,0,0,0,.38.59A.17.17,0,0,0,10.41,11.51Z"/><path class="cls-1" d="M32.34,34.85a1.45,1.45,0,0,1-.65-.6c-.14-.19-.27-.39-.4-.6a.68.68,0,0,1,.31-1,1.4,1.4,0,0,1,.4-.16.78.78,0,0,1,.72.41,7.11,7.11,0,0,1,.5.72A.71.71,0,0,1,33,34.65,1.12,1.12,0,0,1,32.34,34.85Zm-.58-1.91a.18.18,0,0,0,0,.25l.8,1.06c0,.06.11.13.22.08C32.87,34.09,32.05,33,31.76,32.94Z"/><path class="cls-1" d="M12.07,8.1c-.14-.29-.26-.38-.46-.36-.11.25.22.33.22.54a2.13,2.13,0,0,1-.45.34.71.71,0,0,1,0-1.18A1,1,0,0,1,12,7.18a.52.52,0,0,1,.42.2l1,1.19a.45.45,0,0,1,.12.2,3,3,0,0,1-.44.37c-.09,0-.12-.08-.21-.06a.51.51,0,0,1-.4.56c-.3,0-.54-.17-.78-.68,0-.13.1-.28.16-.43Zm.71.82a1.59,1.59,0,0,0-.46-.55c-.14.25,0,.46.33.69C12.7,9,12.76,9,12.78,8.92Z"/><path class="cls-1" d="M18.82,37.63l-.53-.14c-.08-.05,0-.14-.08-.19s-.17.07-.26.12a.56.56,0,0,1-.54-.29c-.07-.15,0-.28,0-.41.05-.31.17-.56.54-.58a3.76,3.76,0,0,0,.54-.12.54.54,0,0,0,.15-.46.32.32,0,0,0-.14-.14c-.2.1-.15.32-.26.49a1.52,1.52,0,0,1-.55-.16c.09-.54.29-.73.8-.68a1,1,0,0,1,.66.27.43.43,0,0,1,.14.4c-.11.61-.28,1.21-.43,1.8A.35.35,0,0,1,18.82,37.63Zm-.6-.51a1.14,1.14,0,0,0,.24-.77.55.55,0,0,0-.42.52A.21.21,0,0,0,18.22,37.12Z"/><path class="cls-1" d="M24.7,36a.54.54,0,0,1,.37-.58.94.94,0,0,1,1,0,.44.44,0,0,1,.17.23,5.24,5.24,0,0,1,.26,1.41c0,.33-.23.58-.64.64a1,1,0,0,1-.58,0,.52.52,0,0,1-.3-.33A5.48,5.48,0,0,1,24.7,36Zm1.12,1.33a3.41,3.41,0,0,0-.36-1.63.15.15,0,0,0-.09,0l-.06.09c.08.51.16,1,.28,1.49A.2.2,0,0,0,25.82,37.33Z"/><path class="cls-1" d="M23.87,5.82a1.79,1.79,0,0,0-.58-.09l-.09-.17a.52.52,0,0,1-.59.19.43.43,0,0,1-.29-.37V5.32c0-.67,0-.68.65-1a.64.64,0,0,0,.28-.15.69.69,0,0,0,0-.47.2.2,0,0,0-.25,0c-.05.14,0,.3-.1.44a.88.88,0,0,1-.53-.05.68.68,0,0,1,.82-.83,1.29,1.29,0,0,1,.46.11.5.5,0,0,1,.25.43V5.39C23.93,5.52,23.89,5.65,23.87,5.82Zm-.59-1.25c-.29.17-.42.64-.26.8a.17.17,0,0,0,.17,0C23.33,5.14,23.23,4.87,23.28,4.57Z"/><path class="cls-1" d="M26.2,6.52c-.26-.09-.55,0-.79-.22a.21.21,0,0,1,.07-.22c.27-.07.29-.08.3-.39,0-.58,0-1.15.06-1.72,0-.09,0-.18.06-.26a.86.86,0,0,1,.52.08c0,.53-.09,1-.09,1.59A9,9,0,0,0,26.84,4a1,1,0,0,1,.58.09,6.64,6.64,0,0,1-.26.79c-.15.41-.32.82-.48,1.23A.61.61,0,0,1,26.2,6.52Z"/><path class="cls-1" d="M29.11,5.36c-.18,0-.32-.12-.48-.15s0-.24,0-.38-.07,0-.13-.06-.24.32-.11.49a4,4,0,0,0,.26.32c.35.38.25.7,0,1.09a.36.36,0,0,1-.31.16,1.19,1.19,0,0,1-.83-.27.58.58,0,0,1-.07-.81,1.13,1.13,0,0,1,.5.16c0,.14-.09.25-.06.38A.18.18,0,0,0,28,6.4h.06a.33.33,0,0,0,.09-.5c-.09-.14-.2-.26-.3-.39a.86.86,0,0,1,0-1,.38.38,0,0,1,.26-.13,1.22,1.22,0,0,1,.86.26A.53.53,0,0,1,29.11,5.36Z"/><path class="cls-1" d="M31.3,6.64a6.11,6.11,0,0,0,.27.58c.24.42,0,.73-.29,1a.54.54,0,0,1-.45,0,1.06,1.06,0,0,1-.63-.4A.6.6,0,0,1,30.31,7a1.4,1.4,0,0,1,.47.28c0,.17-.23.28-.1.47.11,0,.21,0,.27-.07A.4.4,0,0,0,31,7.33a3.19,3.19,0,0,1-.3-.65A.82.82,0,0,1,31,6a.51.51,0,0,1,.6-.07,1.31,1.31,0,0,1,.46.3A.52.52,0,0,1,32,7c-.14-.1-.32-.14-.43-.3s.16-.23.05-.37S31.4,6.32,31.3,6.64Z"/><path class="cls-1" d="M17.19,35.56c-.18,0-.31-.14-.46-.18s.11-.33,0-.51a.16.16,0,0,0-.18,0,1.72,1.72,0,0,0-.24.49c-.12.26-.22.51-.33.77s0,.29.15.34.17-.31.32-.43a.93.93,0,0,1,.5.16.77.77,0,0,1-.6.65,1.08,1.08,0,0,1-.91-.35.57.57,0,0,1-.08-.44,5.44,5.44,0,0,1,.55-1.4.45.45,0,0,1,.33-.2.92.92,0,0,1,.89.27C17.4,34.93,17.39,35.21,17.19,35.56Z"/><path class="cls-1" d="M32.22,31.46a3.07,3.07,0,0,1,.46-.4l2,2.15c-.2.15-.31.36-.55.44l-1.88-2S32.2,31.51,32.22,31.46Z"/><path class="cls-1" d="M9.94,9.49a.57.57,0,0,1-.31-.28l.76-.81c.17.15.35.25.44.46.17.37.35.72.53,1.08a.26.26,0,0,0,.11.15c.15-.08.23-.26.39-.33a.83.83,0,0,1,.26.23.46.46,0,0,1-.18.28c-.17.15-.31.33-.47.5s-.16.13-.24,0a1.32,1.32,0,0,1-.32-.38c-.19-.41-.4-.82-.6-1.22C10.11,9.22,10.08,9.43,9.94,9.49Z"/><path class="cls-1" d="M20.19,37.84a5,5,0,0,1-.66-.09c.1-1,.32-1.9.41-2.87a2.23,2.23,0,0,1,.68.09C20.51,35.93,20.35,36.87,20.19,37.84Z"/><path class="cls-1" d="M24.73,3c.23-.1.43,0,.68,0L25,5.92l-.66-.08C24.44,4.87,24.6,3.94,24.73,3Z"/><path class="cls-1" d="M30.28,35.94l.1.24a1.25,1.25,0,0,1-.74.23.3.3,0,0,1-.21-.17c-.22-.33-.32-.7-.51-1a1.94,1.94,0,0,0-.22-.43l-.14,0a.36.36,0,0,1-.08-.2l.05-.14c0-.11-.07-.18-.09-.28.14-.17.37-.18.53-.31.12.07.13.19.2.27s.14,0,.2,0a.27.27,0,0,1,.09.21c0,.08-.11.08-.1.17.23.47.41,1,.66,1.4C30.12,36,30.19,35.89,30.28,35.94Z"/><path class="cls-1" d="M13.82,33.4a.27.27,0,0,1,0-.34c.05-.05.12,0,.17,0s.12-.18.23-.25l.5.31c0,.15-.1.21-.13.34s.09.08.09.15-.08.15-.11.21-.11,0-.21,0a10.76,10.76,0,0,0-.8,1.32l.09.19a.32.32,0,0,1-.19.22,1.63,1.63,0,0,1-.47-.32.36.36,0,0,1,0-.46,8.1,8.1,0,0,1,.42-.7Z"/><path class="cls-1" d="M37.86,23.73s-.06.09-.15.11a.48.48,0,0,1-.12,0c-.1-.06-.09-.13-.14-.18a.82.82,0,0,0-.3-.08,2,2,0,0,1,.1-.6c.11-.08.22,0,.32,0s.08-.09.13-.12a.22.22,0,0,1,.23,0s0,.11.09.2l1.51.27.15-.16a.48.48,0,0,1,.24,0,1,1,0,0,1-.2.75.38.38,0,0,1-.29,0Z"/><path class="cls-1" d="M12.35,32c.16.06.34-.06.48.1-.16.16-.29.36-.45.49s-.21-.09-.38-.09-.37.28-.54.46-.35.4-.55.59c-.22-.08-.33-.28-.53-.43L12,31.4a3.92,3.92,0,0,1,.47.4C12.48,31.91,12.37,32,12.35,32Z"/><path class="cls-1" d="M13.94,6.54c-.33.23-.21.45,0,.71s.31.47.47.71a.25.25,0,0,1,.07.19,1.71,1.71,0,0,1-.52.36L12.6,6.56a2.27,2.27,0,0,1,.53-.38c.11.05.1.17.2.2.1-.14,0-.35.17-.48A3.29,3.29,0,0,1,13.94,6.54Z"/><path class="cls-1" d="M30.6,33.33A2.58,2.58,0,0,1,31,34l-.2.22a.52.52,0,0,0,0,.37c.14.3.33.56.48.86a.32.32,0,0,1,.07.23,1.08,1.08,0,0,1-.57.26l-1.15-2a1.75,1.75,0,0,1,.53-.32c.11,0,.12.16.2.22C30.49,33.66,30.41,33.44,30.6,33.33Z"/><path class="cls-1" d="M29.52,7.48,29,7.2A.28.28,0,0,1,29,7L30,5a1.66,1.66,0,0,1,.63.3Z"/><path class="cls-1" d="M38.9,27a2,2,0,0,1-.28.61,21,21,0,0,1-2.16-.93,3.58,3.58,0,0,1,.25-.59C37.45,26.35,38.15,26.68,38.9,27Z"/><path class="cls-1" d="M11.65,34.24l1.41-1.85a.71.71,0,0,1,.19.06,2.91,2.91,0,0,1,.33.26.18.18,0,0,1,0,.19c-.41.58-.86,1.14-1.3,1.72C12,34.59,11.86,34.38,11.65,34.24Z"/><path class="cls-1" d="M15.11,33.68l.52.28s0,0,0,.07l-1.1,2.08a2.55,2.55,0,0,1-.59-.35C14.34,35.06,14.71,34.38,15.11,33.68Z"/><path class="cls-1" d="M17.49,5.27a.51.51,0,0,1-.52.56.56.56,0,0,1-.59-.53.59.59,0,0,1,.55-.6A.55.55,0,0,1,17.49,5.27Z"/><path class="cls-1" d="M34.18,30.87c.45,0,.67.11.73.42a.56.56,0,0,1-.38.66.55.55,0,0,1-.68-.32A.61.61,0,0,1,34.18,30.87Z"/><path class="cls-1" d="M21.4,37.06a.52.52,0,0,1-.52-.54.53.53,0,0,1,.55-.56.55.55,0,1,1,0,1.1Z"/><path class="cls-1" d="M36.2,26.6a.63.63,0,0,1-.24-.13,4.71,4.71,0,0,1,.22-.59c.13,0,.25,0,.3.16A3.25,3.25,0,0,1,36.2,26.6Z"/><path class="cls-1" d="M30.24,4.55a2.62,2.62,0,0,1,.58.29c0,.13-.07.19-.17.26l-.51-.27C30.09,4.7,30.18,4.64,30.24,4.55Z"/><path class="cls-1" d="M14,32.34c-.09.09-.12.21-.26.2a2.1,2.1,0,0,1-.42-.37.22.22,0,0,1,.13-.22A1.8,1.8,0,0,1,14,32.34Z"/><path class="cls-1" d="M15.93,33.52a.32.32,0,0,1-.15.24,1.8,1.8,0,0,1-.5-.25.19.19,0,0,1,0-.23C15.56,33.24,15.73,33.4,15.93,33.52Z"/></g></g></svg>