<svg width="40" height="40" viewBox="0 0 40 40" fill="none" xmlns="http://www.w3.org/2000/svg">
<path d="M39.8697 25.6563C38.0069 25.3129 36.0918 25.4648 34.2993 26.0979C31.3965 27.1183 28.0148 28.2301 24.5982 28.1448C28.6621 23.2713 28.8508 16.168 23.6867 13.7586C18.5227 11.3492 8.77221 9.24445 3.89553 13.7586C1.98592 15.5674 0.645555 17.9428 0.0522461 20.5695C0.196214 18.7084 0.568926 16.8748 1.16111 15.1141C2.90278 9.88715 5.47465 3.97793 13.5037 0.66693C13.5037 0.66693 25.5503 -3.24717 33.8697 7.88898C38.5983 14.2216 40.5461 20.4598 39.8697 25.6563" fill="#AE231C"/>
<path d="M24.5983 28.1449C21.7574 28.1146 19.0101 27.0752 16.8043 25.1963C11.0655 20.3806 7.33838 19.4759 3.6083 20.0791C1.70408 20.3837 0.705519 22.4245 0.168505 24.3435C-0.00772354 23.0943 -0.0466824 21.828 0.0523933 20.5695C0.645702 17.9428 1.98607 15.5674 3.89568 13.7586C8.77235 9.24445 18.5228 11.3523 23.6868 13.7586C28.8509 16.165 28.6651 23.2682 24.5983 28.1449Z" fill="#DF0600"/>
<path d="M39.8698 25.6561C39.356 29.5946 37.3299 32.9421 33.8698 35.2784C25.8349 40.6942 14.9262 42.0344 7.48057 36.18C2.90288 32.5918 0.746111 28.4828 0.168457 24.3433C0.696763 22.4243 1.70403 20.3835 3.60825 20.0789C7.33833 19.4697 11.0655 20.3835 16.8043 25.1962C19.0107 27.0738 21.7576 28.113 24.5983 28.1447C28.0148 28.233 31.385 27.1182 34.2994 26.0978C36.0919 25.4646 38.007 25.3127 39.8698 25.6561" fill="#80302F"/>
</svg>
