<svg width="560" height="534" viewBox="0 0 560 534" fill="none" xmlns="http://www.w3.org/2000/svg">
<g clip-path="url(#clip0)">
<path d="M558.17 342.513C532.091 337.929 505.28 339.956 480.185 348.409C439.546 362.032 392.202 376.874 344.37 375.736C401.265 310.673 403.906 215.845 331.61 183.679C259.314 151.514 122.809 123.415 54.5359 183.679C27.8017 207.827 9.03666 239.538 0.730408 274.604C2.74594 249.76 7.96386 225.28 16.2544 201.775C40.6375 131.995 76.6433 53.1073 189.05 8.90547C189.05 8.90547 357.7 -43.3478 474.17 105.32C540.37 189.86 567.639 273.14 558.17 342.513Z" fill="#AE231C"/>
<path d="M344.372 375.736C304.599 375.331 266.137 361.456 235.257 336.373C154.914 272.083 102.734 260.006 50.5139 268.057C23.8549 272.124 9.87526 299.369 2.35712 324.987C-0.110051 308.31 -0.655471 291.405 0.731578 274.604C9.03783 239.538 27.8028 207.827 54.5371 183.68C122.81 123.415 259.315 151.555 331.611 183.68C403.907 215.804 401.306 310.633 344.372 375.736Z" fill="#DF0600"/>
<path d="M558.172 342.513C550.979 395.092 522.613 439.782 474.172 470.971C361.684 543.271 208.965 561.164 104.727 483.007C40.6395 435.105 10.445 380.249 2.35791 324.987C9.75414 299.369 23.8557 272.124 50.5147 268.057C102.735 259.925 154.915 272.124 235.258 336.373C266.148 361.439 304.604 375.312 344.372 375.736C392.204 376.915 439.386 362.032 480.187 348.41C505.281 339.957 532.093 337.929 558.172 342.513Z" fill="#80302F"/>
<path d="M392.488 343.815C388.728 341.177 384.274 339.708 379.683 339.592C375.093 339.476 370.57 340.719 366.683 343.164C363.631 345.569 361.198 348.669 359.587 352.206C357.975 355.743 357.231 359.613 357.417 363.496C357.322 365.626 357.513 367.76 357.986 369.839C358.304 371.245 358.781 372.609 359.408 373.906C360.653 376.352 362.372 378.525 364.465 380.298C366.558 382.071 368.984 383.41 371.6 384.235C382.125 388.016 394.195 382.649 401.591 373.865C403.095 372.15 404.199 370.123 404.825 367.928C405.45 365.734 405.581 363.429 405.208 361.178C404.297 357.588 402.686 354.214 400.468 351.248C398.251 348.282 395.47 345.784 392.285 343.896" fill="white"/>
<path fill-rule="evenodd" clip-rule="evenodd" d="M237.167 216.292C242.49 233.534 248.139 252.32 253.422 269.562L289.103 258.298C293.414 255.79 297.054 252.274 299.71 248.051C304.235 242.115 306.249 234.638 305.318 227.231C304.58 223.021 302.937 219.023 300.502 215.512C298.067 212.002 294.899 209.062 291.216 206.899C284.389 203.402 276.627 204.865 268.865 206.37L237.167 216.089V216.292ZM152.395 177.499L264.354 143.178C275.791 140.368 287.62 139.502 299.344 140.616C315.744 142.346 331.282 148.833 344.046 159.281C358.329 171.911 368.6 188.451 373.591 206.858C377.489 222.187 377.194 238.283 372.737 253.459C369.805 263.923 364.3 273.485 356.726 281.273C349.403 289.336 340.975 296.319 331.692 302.012C322.727 307.193 313.178 311.288 303.245 314.211L271.344 324.296L293.654 398.06L227.332 418.636L152.395 177.499Z" fill="white"/>
</g>
<defs>
<clipPath id="clip0">
<rect width="560" height="534" fill="white"/>
</clipPath>
</defs>
</svg>
