<svg width="194" height="64" viewBox="0 0 194 64" fill="none" xmlns="http://www.w3.org/2000/svg">
<path d="M229 0H0V64H229V0Z" fill="#AE231C"/>
<path fill-rule="evenodd" clip-rule="evenodd" d="M69.012 64C74.8015 38.4535 72.6271 26.0223 58.5202 1.72491C58.0582 1.15985 57.7863 0.446097 57.433 0H0.0815424L0 64H69.012Z" fill="#80302F"/>
<path fill-rule="evenodd" clip-rule="evenodd" d="M49 0.0297522H50.139C51.7932 2.58867 53.0407 4.40372 55.4813 6.45681C63.0203 12.6458 70.4236 20.9772 89.0541 22.9113C107.657 24.8453 128.159 28.9813 143.671 32.7006C159.183 36.4497 177.189 45.3167 186.898 46.864C215.535 51.595 213.148 26.1546 197.799 22.4054C174.938 16.9008 148.118 3.39206 143.833 0C114.274 0.0297549 78.5592 0.0297522 49 0.0297522Z" fill="#DF0600"/>
</svg>
