<svg viewBox="0 0 160 58" fill="none" xmlns="http://www.w3.org/2000/svg">
  <g>
    <path d="M159.884 -0.0585938H-0.0400391V40.7397H159.884V-0.0585938Z" fill="#AE231C"/>
    <path d="M48.1513 40.7414C52.1988 24.4562 50.6786 16.5316 40.8164 1.0427C40.4934 0.68249 40.3033 0.22749 40.0563 -0.0568848H-0.038696L-0.0957031 40.7414H48.1513Z" fill="#DF0600"/>
    <path d="M34.0522 -0.056727H34.8503C36.0095 1.57369 36.8836 2.73015 38.5938 4.03827C43.8765 7.9816 49.0641 13.2899 62.1187 14.5222C75.1544 15.7545 89.5202 18.3897 100.39 20.7595C111.259 23.1483 123.876 28.7978 130.679 29.7837C150.746 32.798 149.074 16.5887 138.318 14.1999C122.299 10.6926 103.506 2.08556 100.504 -0.0756836C79.791 -0.0567253 54.7648 -0.056727 34.0522 -0.056727Z" fill="#80302F"/>
    <path d="M127.753 40.7416H159.867V29.2908C154.356 28.267 142.993 30.6937 138.432 32.7412C133.891 34.8076 128.95 38.0305 127.753 40.7416Z" fill="#DF0600"/>
    <path d="M145.292 33.9544H154.014L145.349 19.8494L153.881 6.73022H145.786L139.288 17.271H135.563V6.74918H127.905V33.9733H135.563V23.5083H139.097L145.292 33.9544ZM105.463 22.9775L108.941 14.2377L112.475 22.9775H105.463ZM116.903 33.9544H124.941L112.798 6.73022H105.216L93.1307 33.9544H101.036L103.183 28.6839H114.755L116.903 33.9544ZM74.8504 28.4185V22.5225H80.4182C83.0785 22.5225 84.4087 23.5083 84.4087 25.461C84.4087 27.4327 83.0215 28.3996 80.4182 28.3996H74.8504V28.4185ZM67.2685 33.9544H80.9312C88.0191 33.9544 92.1806 30.7504 92.1806 25.2146C92.1806 19.9442 88.5702 17.1004 81.9383 17.1004H74.8504V12.6452H90.0904V6.74918H67.2685V33.9544ZM35.2685 33.9544H42.5464L53.7958 17.9725V33.9544H61.3778V6.73022H54.0999L42.8504 22.7121V6.73022H35.2685V33.9544ZM19.1355 20.7404H14.8409V12.7969H19.1355C22.3659 12.7969 23.9431 14.2188 23.9431 16.816C23.9431 19.3185 22.3659 20.7404 19.1355 20.7404ZM19.5915 6.73022H7.12598V33.9544H14.8409V26.8071H19.5915C27.0595 26.8071 31.7911 22.9775 31.7911 16.816C31.7911 10.5788 27.0405 6.73022 19.5915 6.73022Z" fill="white"/>
    <path d="M133.72 49.3674H135.544V52.7609H133.625C132.466 52.7609 131.801 52.2111 131.801 51.1305C131.782 50.0499 132.466 49.3674 133.72 49.3674ZM133.625 47.7369C131.212 47.7369 129.672 48.9692 129.672 51.1305C129.672 52.6282 130.357 53.5761 131.592 54.1259L129.672 56.9886H131.877L133.511 54.4103H135.544V56.9886H137.577V47.7369H133.625ZM125.815 56.9886H127.943V47.7369H125.815V56.9886ZM120.209 52.6471H118.48V49.3863H120.209C121.558 49.3863 122.243 50.0688 122.243 51.0167C122.243 52.0974 121.558 52.6471 120.209 52.6471ZM120.323 47.7369H116.371V56.9886H118.499V54.4103H120.323C122.832 54.4103 124.371 53.0453 124.371 51.0167C124.371 48.9692 122.813 47.7369 120.323 47.7369ZM109.606 55.2255C107.972 55.2255 106.718 53.9932 106.718 52.3628C106.718 50.5996 107.972 49.3674 109.606 49.3674C111.24 49.3674 112.494 50.5996 112.494 52.3628C112.513 53.9932 111.259 55.2255 109.606 55.2255ZM109.606 57.1213C112.494 57.1213 114.718 55.0738 114.718 52.3628C114.718 49.5001 112.494 47.4715 109.606 47.4715C106.718 47.4715 104.589 49.519 104.589 52.3628C104.608 55.0928 106.718 57.1213 109.606 57.1213ZM104.019 47.7369H95.9242V49.3674H98.9076V56.9886H101.036V49.3674H104.019V47.7369ZM91.7817 57.1213C93.4159 57.1213 94.7651 56.4388 95.6392 55.4909L94.195 54.1259C93.6249 54.9411 92.8458 55.2065 91.8767 55.2065C90.1475 55.2065 88.9883 53.9742 88.9883 52.3438C88.9883 50.5807 90.1475 49.3484 91.8767 49.3484C92.8458 49.3484 93.6059 49.7655 94.195 50.429L95.6392 49.064C94.7651 48.1161 93.4159 47.4336 91.7817 47.4336C88.8933 47.4336 86.7651 49.4811 86.7651 52.3249C86.7651 55.0928 88.8933 57.1213 91.7817 57.1213ZM83.0026 56.9886H85.1309V47.7369H83.0026V56.9886ZM71.3351 53.3107L72.7793 49.7655L74.2235 53.3107H71.3351ZM75.7817 56.9886H78.005L73.8625 47.7369H71.7342L67.5917 56.9886H69.815L70.6891 54.9411H74.9266L75.7817 56.9886ZM64.2093 47.7369V51.2821H59.9717V47.7369H57.8435V56.9886H59.9717V53.178H64.2093V56.9886H66.3375V47.7369H64.2093ZM52.6368 57.1213C54.271 57.1213 55.6202 56.4388 56.4943 55.4909L55.0501 54.1259C54.48 54.9411 53.7009 55.2065 52.7318 55.2065C51.0026 55.2065 49.7484 53.9742 49.7484 52.3438C49.7484 50.5807 51.0026 49.3484 52.7318 49.3484C53.7009 49.3484 54.461 49.7655 55.0501 50.429L56.4943 49.064C55.6202 48.1161 54.271 47.4336 52.6368 47.4336C49.7484 47.4336 47.6202 49.4811 47.6202 52.3249C47.6202 55.0928 49.7484 57.1213 52.6368 57.1213ZM42.0335 49.3674H43.8577V52.7609H41.9385C40.7793 52.7609 40.1142 52.2111 40.1142 51.1305C40.1142 50.0499 40.7793 49.3674 42.0335 49.3674ZM41.9385 47.7369C39.5252 47.7369 37.986 48.9692 37.986 51.1305C37.986 52.6282 38.6701 53.5761 39.9052 54.1259L37.986 56.9886H40.2092L41.8434 54.4103H43.8767V56.9886H45.986V47.7369H41.9385ZM35.6677 47.0544C34.8886 47.0544 34.3185 47.4715 34.3185 48.2867C34.3185 48.8365 34.6035 49.2346 35.0026 49.3674L34.5275 51.5476H35.7817L36.5608 49.6517C36.8458 48.8365 36.9408 48.7038 36.9408 48.2867C36.9218 47.6042 36.3518 47.0544 35.6677 47.0544ZM32.6843 56.9886V47.7369H30.9551L27.5727 53.4623L24.0952 47.7559H22.271V57.0076H24.3043V51.5665L27.0026 55.9269H27.9717L30.67 51.4338L30.7651 57.0076H32.6843V56.9886Z" fill="#1F1F1F"/>
  </g>
</svg>
