<svg width="221" height="166" viewBox="0 0 221 166" fill="none" xmlns="http://www.w3.org/2000/svg">
<path d="M110.502 164.923C57.8029 164.923 15.0819 159.775 15.0819 153.423C15.0819 147.072 57.8029 141.923 110.502 141.923C163.201 141.923 205.922 147.072 205.922 153.423C205.922 159.775 163.201 164.923 110.502 164.923Z" fill="#EEEEEE"/>
<path fill-rule="evenodd" clip-rule="evenodd" d="M216.712 37.1877C214.493 36.5198 212.152 37.7745 211.478 39.9909L211.471 40.0129C211.463 40.0393 211.447 40.0884 211.423 40.1585C211.376 40.2989 211.298 40.5234 211.186 40.8202C210.963 41.4147 210.606 42.2951 210.096 43.3694C209.071 45.5258 207.449 48.4162 205.073 51.3348C200.361 57.1214 192.738 62.9908 180.691 63.6147C178.371 63.7349 176.589 65.7123 176.709 68.0316C176.829 70.3508 178.806 72.1336 181.125 72.0135C196.088 71.2386 205.762 63.8082 211.594 56.6447C214.49 53.0881 216.451 49.5908 217.692 46.9785C218.315 45.6682 218.762 44.5689 219.058 43.7797C219.207 43.3848 219.318 43.0665 219.395 42.837C219.434 42.7223 219.464 42.6296 219.486 42.5606C219.497 42.5261 219.506 42.4975 219.513 42.475L219.522 42.4459L219.525 42.4347L219.526 42.4301C219.527 42.428 219.528 42.426 215.501 41.2144L219.528 42.426C220.197 40.2021 218.936 37.8568 216.712 37.1877Z" fill="#1F1F1F"/>
<path fill-rule="evenodd" clip-rule="evenodd" d="M1.45922 85.7917C1.45852 85.7941 1.45785 85.7965 5.50211 86.948L1.45785 85.7965C0.82188 88.03 2.117 90.3563 4.35058 90.9923C6.57858 91.6266 8.89876 90.3396 9.54156 88.1163C9.54317 88.1107 9.54477 88.1051 9.54636 88.0995L5.60677 86.9778C9.54635 88.0996 9.54575 88.1017 9.54516 88.1037L9.54411 88.1074L9.5425 88.113L9.54656 88.0997C9.55369 88.0763 9.56802 88.03 9.59 87.9626C9.634 87.8277 9.70844 87.6086 9.81696 87.3183C10.0344 86.7366 10.3862 85.8756 10.9006 84.8374C11.934 82.7513 13.5936 80.01 16.0856 77.3814C20.9393 72.2615 29.2092 67.2616 43.2255 68.8829C45.5325 69.1497 47.619 67.4959 47.8858 65.1889C48.1527 62.8819 46.4988 60.7954 44.1918 60.5286C27.3509 58.5806 16.5175 64.7018 9.98229 71.5954C6.77974 74.9735 4.67345 78.4621 3.36461 81.1041C2.70781 82.4299 2.2444 83.5575 1.93937 84.3735C1.78667 84.782 1.67308 85.1139 1.59436 85.3554C1.55498 85.4761 1.52427 85.5744 1.50171 85.6485C1.49042 85.6855 1.48117 85.7165 1.47388 85.7412L1.46442 85.7736L1.46078 85.7862L1.45922 85.7917Z" fill="#1F1F1F"/>
<path fill-rule="evenodd" clip-rule="evenodd" d="M80.7389 124.074C78.5325 123.349 76.1564 124.55 75.4317 126.757L69.6542 144.346H63.368C61.0457 144.346 59.163 146.229 59.163 148.551C59.163 150.874 61.0457 152.756 63.368 152.756H72.699C74.5158 152.756 76.1271 151.59 76.6941 149.864L83.4217 129.381C84.1464 127.174 82.9452 124.798 80.7389 124.074Z" fill="#1F1F1F"/>
<path fill-rule="evenodd" clip-rule="evenodd" d="M130.177 127.427C127.922 126.871 125.643 128.249 125.087 130.503L120.885 147.545C120.36 149.674 121.559 151.848 123.64 152.541L132.044 155.339C134.247 156.072 136.628 154.881 137.362 152.677C138.095 150.474 136.904 148.093 134.7 147.359L129.98 145.788L133.253 132.517C133.809 130.262 132.432 127.983 130.177 127.427Z" fill="#1F1F1F"/>
<path d="M174.862 49.7406C166.591 31.3062 151.498 16.6408 132.603 9.4802C121.601 5.30595 107.913 3.08561 92.7647 7.14884C54.4971 17.4124 35.8351 62.2133 45.1661 92.0769C54.4971 121.941 68.4797 130.345 113.297 132.21C158.115 134.075 187.035 104.217 182.367 75.2801C181.009 66.4716 178.486 57.883 174.862 49.7406V49.7406Z" fill="#ED1B24"/>
<g style="mix-blend-mode:darken">
<path d="M45.1661 92.0827C54.4971 121.946 68.4797 130.35 113.297 132.215C158.115 134.08 187.035 104.217 182.367 75.2803C181.48 69.6288 180.132 64.0594 178.337 58.6277C160.507 68.1918 111.21 88.2138 43.8784 63.7123C42.1132 73.6372 42.4795 83.4789 45.1661 92.0827Z" fill="#AF1F28"/>
</g>
<path fill-rule="evenodd" clip-rule="evenodd" d="M93.8547 11.2103C107.964 7.42566 120.735 9.47462 131.112 13.4117L131.114 13.4123C148.916 20.1589 163.189 33.9985 171.024 51.4565C174.494 59.2561 176.911 67.483 178.211 75.9204L178.214 75.9351L178.216 75.9498C182.3 101.265 156.742 129.809 113.473 128.008C91.1079 127.078 77.3501 124.511 68.0645 119.023C59.0859 113.716 53.704 105.301 49.1803 90.8229C44.9046 77.1384 46.9767 59.6127 54.8613 44.1756C62.7143 28.8006 76.0876 15.9755 93.8546 11.2103L93.8547 11.2103ZM174.863 49.7403L178.699 48.0193C169.992 28.6115 154.08 13.1228 134.095 5.54868M174.863 49.7403L178.704 48.0308C182.478 56.5097 185.106 65.453 186.521 74.6252C191.761 107.177 159.482 138.34 113.123 136.411C90.6704 135.477 75.0281 132.908 63.7851 126.263C52.2353 119.436 45.9604 108.717 41.1531 93.331C36.0979 77.152 38.6913 57.3453 47.3717 40.3502C56.0839 23.2929 71.1754 8.58574 91.676 3.08739C107.862 -1.25422 122.467 1.13712 134.094 5.5481" fill="#1F1F1F"/>
<g style="mix-blend-mode:lighten" opacity="0.5">
<path fill-rule="evenodd" clip-rule="evenodd" d="M103.599 17.2781C102.234 12.8414 97.5308 10.3512 93.094 11.7161L95.5654 19.7495C93.094 11.7161 93.0913 11.7169 93.0884 11.7178L93.0683 11.724L93.0335 11.7349C93.0074 11.7431 92.9754 11.7532 92.9375 11.7653C92.8619 11.7895 92.7631 11.8215 92.6424 11.8615C92.4012 11.9416 92.072 12.054 91.6649 12.2002C90.8517 12.4923 89.7228 12.9212 88.3601 13.4992C85.6451 14.6509 81.9444 16.4191 77.9376 18.9149C70.0453 23.8309 60.2506 32.0208 55.1192 44.566C53.3619 48.8625 55.4202 53.7701 59.7166 55.5274C64.0131 57.2848 68.9206 55.2265 70.678 50.93C73.9451 42.9427 80.4838 37.1333 86.8253 33.1832C89.9353 31.246 92.8266 29.8644 94.9245 28.9745C95.9681 28.5318 96.8008 28.217 97.3475 28.0206C97.6205 27.9226 97.8209 27.8545 97.9392 27.8152C97.9984 27.7956 98.0369 27.7832 98.0536 27.7778C98.0563 27.777 98.0584 27.7763 98.06 27.7758C102.482 26.4017 104.961 21.7071 103.599 17.2781Z" fill="white"/>
</g>
<path fill-rule="evenodd" clip-rule="evenodd" d="M153.884 38.9155C154.93 40.9762 157.445 41.8083 159.514 40.7735C161.592 39.7349 162.434 37.2091 161.395 35.1319L157.721 36.9691C161.395 35.1319 161.394 35.1298 161.393 35.1277L161.391 35.1231L161.385 35.1129L161.373 35.0884C161.364 35.0701 161.352 35.0483 161.339 35.0229C161.313 34.9722 161.278 34.9073 161.236 34.8297C161.151 34.6745 161.034 34.4674 160.884 34.2184C160.584 33.7219 160.149 33.0509 159.575 32.2901C158.438 30.786 156.682 28.8349 154.253 27.2152C151.796 25.5765 148.624 24.2637 144.774 24.1494C140.921 24.0351 136.708 25.1299 132.186 27.7942C130.185 28.973 129.519 31.5507 130.697 33.5516C131.876 35.5526 134.454 36.219 136.455 35.0402C139.856 33.0362 142.52 32.4962 144.524 32.5557C146.53 32.6153 148.197 33.2849 149.587 34.212C151.006 35.1582 152.106 36.3565 152.865 37.3603C153.238 37.8536 153.51 38.2761 153.681 38.5597C153.766 38.7008 153.824 38.8053 153.857 38.8643C153.872 38.8916 153.881 38.909 153.884 38.9155Z" fill="#1F1F1F"/>
<path fill-rule="evenodd" clip-rule="evenodd" d="M113.563 31.4983C113.557 31.4945 113.546 31.4859 113.527 31.4728C113.481 31.4403 113.397 31.3813 113.276 31.3033C113.034 31.1462 112.659 30.9184 112.179 30.6759C111.196 30.1791 109.906 29.6862 108.509 29.5266C107.157 29.3723 105.73 29.5284 104.284 30.2924C102.824 31.0632 101.024 32.6229 99.2297 35.8111C98.0906 37.8349 95.5266 38.5521 93.5028 37.4131C91.4789 36.274 90.7617 33.71 91.9007 31.6861C94.3084 27.4084 97.1766 24.535 100.356 22.8559C103.548 21.1699 106.731 20.859 109.463 21.1709C112.15 21.4777 114.418 22.3842 115.973 23.1704C116.762 23.5694 117.4 23.9539 117.855 24.2487C118.083 24.3967 118.267 24.5236 118.403 24.6205C118.471 24.6689 118.527 24.7101 118.572 24.7427C118.594 24.759 118.613 24.7733 118.628 24.7853L118.65 24.8016L118.659 24.8084L118.663 24.8115C118.665 24.813 118.667 24.8144 116.103 28.1478L118.667 24.8144C120.508 26.2301 120.852 28.8701 119.437 30.7111C118.027 32.5446 115.402 32.894 113.563 31.4983Z" fill="#1F1F1F"/>
<path fill-rule="evenodd" clip-rule="evenodd" d="M133.73 87.0085C132.748 86.0266 131.156 86.0252 130.172 87.004C130.171 87.0048 130.17 87.0062 130.168 87.0082C130.16 87.0152 130.146 87.0295 130.124 87.0502C130.08 87.0918 130.007 87.1593 129.907 87.2469C129.708 87.4226 129.405 87.6764 129.018 87.9642C128.232 88.5476 127.15 89.2308 125.911 89.7081C124.674 90.1843 123.367 90.4226 122.069 90.2374C120.809 90.0577 119.374 89.4554 117.866 87.9472C116.882 86.9631 115.287 86.9631 114.302 87.9472C113.318 88.9313 113.318 90.5269 114.302 91.511C116.527 93.7358 118.943 94.8826 121.357 95.2269C123.733 95.5658 125.926 95.1029 127.722 94.4115C129.515 93.7209 131 92.7697 132.022 92.0107C132.538 91.6274 132.95 91.2829 133.239 91.0282C133.384 90.9006 133.499 90.7947 133.582 90.7169C133.623 90.6779 133.656 90.6459 133.681 90.6216L133.713 90.5909L133.723 90.5801L133.728 90.5758L133.73 90.574C133.73 90.5731 133.731 90.5723 131.949 88.791L133.731 90.5723C134.715 89.5879 134.715 87.9923 133.73 87.0085Z" fill="#1F1F1F"/>
<path d="M143.633 58.017C139.767 58.017 136.634 53.6281 136.634 48.2142C136.634 42.8002 139.767 38.4114 143.633 38.4114C147.499 38.4114 150.633 42.8002 150.633 48.2142C150.633 53.6281 147.499 58.017 143.633 58.017Z" fill="#1F1F1F"/>
<path d="M106.766 55.6855C102.9 55.6855 99.7664 51.2966 99.7664 45.8826C99.7664 40.4687 102.9 36.0798 106.766 36.0798C110.632 36.0798 113.766 40.4687 113.766 45.8826C113.766 51.2966 110.632 55.6855 106.766 55.6855Z" fill="#1F1F1F"/>
<g style="mix-blend-mode:lighten" opacity="0.5">
<path d="M141.769 48.2142C140.224 48.2142 138.971 46.9616 138.971 45.4165C138.971 43.8714 140.224 42.6189 141.769 42.6189C143.314 42.6189 144.566 43.8714 144.566 45.4165C144.566 46.9616 143.314 48.2142 141.769 48.2142Z" fill="white"/>
</g>
<g style="mix-blend-mode:lighten" opacity="0.5">
<path d="M105.366 45.4109C103.821 45.4109 102.569 44.1584 102.569 42.6133C102.569 41.0682 103.821 39.8157 105.366 39.8157C106.911 39.8157 108.164 41.0682 108.164 42.6133C108.164 44.1584 106.911 45.4109 105.366 45.4109Z" fill="white"/>
</g>
</svg>
