<svg width="221" height="210" viewBox="0 0 221 210" fill="none" xmlns="http://www.w3.org/2000/svg">
<path d="M110.498 209C163.197 209 205.918 203.851 205.918 197.5C205.918 191.149 163.197 186 110.498 186C57.7991 186 15.0781 191.149 15.0781 197.5C15.0781 203.851 57.7991 209 110.498 209Z" fill="#EEEEEE"/>
<path fill-rule="evenodd" clip-rule="evenodd" d="M4.28753 81.2646C6.50743 80.5967 8.84825 81.8514 9.52215 84.0678L9.52905 84.0898C9.53746 84.1162 9.55328 84.1653 9.57686 84.2354C9.62402 84.3758 9.70206 84.6003 9.81368 84.8972C10.0372 85.4916 10.3936 86.372 10.904 87.4463C11.9286 89.6028 13.5512 92.4931 15.9275 95.4117C20.6389 101.198 28.262 107.068 40.3095 107.692C42.6287 107.812 44.4115 109.789 44.2914 112.109C44.1713 114.428 42.1938 116.211 39.8745 116.09C24.9116 115.315 15.2382 107.885 9.40575 100.722C6.51007 97.165 4.54896 93.6677 3.30777 91.0554C2.68526 89.7452 2.23828 88.6458 1.9416 87.8566C1.79313 87.4617 1.68189 87.1434 1.6048 86.9139C1.56624 86.7992 1.53618 86.7065 1.51425 86.6375C1.50329 86.603 1.49435 86.5744 1.48739 86.5519L1.47843 86.5228L1.47505 86.5116L1.47363 86.507C1.473 86.5049 1.47239 86.5029 5.49908 85.2913L1.47239 86.5029C0.803274 84.279 2.06365 81.9338 4.28753 81.2646Z" fill="#1F1F1F"/>
<path fill-rule="evenodd" clip-rule="evenodd" d="M219.541 109.6C219.541 109.598 219.542 109.595 215.498 108.444L219.542 109.595C220.178 107.362 218.883 105.036 216.649 104.4C214.421 103.765 212.101 105.052 211.458 107.276C211.457 107.281 211.455 107.287 211.454 107.292L215.393 108.414C211.454 107.292 211.454 107.29 211.455 107.288L211.456 107.284L211.457 107.279L211.453 107.292C211.446 107.316 211.432 107.362 211.41 107.429C211.366 107.564 211.292 107.783 211.183 108.074C210.966 108.655 210.614 109.516 210.099 110.554C209.066 112.641 207.406 115.382 204.914 118.01C200.061 123.13 191.791 128.13 177.774 126.509C175.468 126.242 173.381 127.896 173.114 130.203C172.847 132.51 174.501 134.596 176.808 134.863C193.649 136.811 204.482 130.69 211.018 123.796C214.22 120.418 216.327 116.93 217.635 114.288C218.292 112.962 218.756 111.834 219.061 111.018C219.213 110.61 219.327 110.278 219.406 110.036C219.445 109.916 219.476 109.817 219.498 109.743C219.51 109.706 219.519 109.675 219.526 109.651L219.536 109.618L219.539 109.606L219.541 109.6Z" fill="#1F1F1F"/>
<path fill-rule="evenodd" clip-rule="evenodd" d="M140.261 168.151C142.468 167.426 144.844 168.627 145.568 170.833L151.346 188.423H157.632C159.954 188.423 161.837 190.306 161.837 192.628C161.837 194.951 159.954 196.833 157.632 196.833H148.301C146.484 196.833 144.873 195.666 144.306 193.94L137.578 173.458C136.854 171.251 138.055 168.875 140.261 168.151Z" fill="#1F1F1F"/>
<path fill-rule="evenodd" clip-rule="evenodd" d="M90.8233 171.504C93.0781 170.948 95.3567 172.326 95.9127 174.58L100.115 191.622C100.64 193.75 99.4406 195.925 97.3602 196.618L88.9562 199.416C86.7527 200.149 84.3718 198.957 83.6383 196.754C82.9048 194.551 84.0964 192.17 86.2999 191.436L91.0197 189.865L87.7473 176.594C87.1913 174.339 88.5685 172.06 90.8233 171.504Z" fill="#1F1F1F"/>
<path d="M91.8281 52.3802L106.294 15.3171C106.294 15.3171 145.499 -14.5743 160.437 27.4013C156.701 53.5347 154.553 65.8909 154.553 65.8909L91.8281 52.3802Z" fill="#454545"/>
<path fill-rule="evenodd" clip-rule="evenodd" d="M109.755 18.0092L97.5383 49.3093L151.127 60.8521C151.348 59.492 151.619 57.8066 151.938 55.7902C152.912 49.6258 154.328 40.3677 156.122 27.8522C152.679 18.6907 148.156 13.9101 143.684 11.5098C139.018 9.00523 133.775 8.7521 128.549 9.74899C123.307 10.7491 118.371 12.9588 114.675 14.9884C112.844 15.9936 111.359 16.9318 110.34 17.6118C110.123 17.7569 109.927 17.89 109.755 18.0092ZM154.55 65.8911C158.693 66.6113 158.693 66.6111 158.693 66.6109L158.694 66.608L158.72 66.458C158.737 66.3584 158.762 66.2102 158.796 66.013C158.863 65.6187 158.962 65.0286 159.093 64.2399C159.354 62.6625 159.741 60.2907 160.245 57.1024C161.252 50.7258 162.726 41.0831 164.597 27.9965L164.744 26.9693L164.396 25.9916C160.411 14.7933 154.589 7.81814 147.662 4.09984C140.775 0.403406 133.416 0.258956 126.973 1.48796C120.547 2.71379 114.748 5.35346 110.627 7.61669C108.548 8.75796 106.854 9.82712 105.67 10.6178C105.077 11.0137 104.61 11.3414 104.284 11.5754C104.121 11.6925 103.993 11.7862 103.902 11.8536C103.856 11.8872 103.82 11.9143 103.793 11.9344L103.76 11.9592L103.749 11.9676L103.745 11.9708C103.743 11.9721 103.742 11.9733 106.291 15.3172L103.742 11.9733L102.803 12.6889L86.1133 55.4513L157.944 70.9234L158.693 66.6109L154.55 65.8911Z" fill="#1F1F1F"/>
<path d="M46.1381 93.8175C54.4089 75.3831 69.5017 60.7177 88.3968 53.5571C99.3986 49.3829 113.087 47.1625 128.235 51.2257C166.503 61.4893 185.165 106.29 175.834 136.154C166.503 166.017 152.52 174.421 107.703 176.287C62.885 178.152 33.9651 148.294 38.6333 119.357C39.9906 110.548 42.5143 101.96 46.1381 93.8175V93.8175Z" fill="#ED1B24"/>
<g style="mix-blend-mode:darken">
<path d="M175.834 136.159C166.503 166.023 152.52 174.427 107.703 176.292C62.885 178.157 33.9651 148.294 38.6333 119.357C39.5204 113.705 40.8682 108.136 42.6633 102.704C60.4926 112.268 109.79 132.29 177.122 107.789C178.887 117.714 178.52 127.556 175.834 136.159Z" fill="#AF1F28"/>
</g>
<path fill-rule="evenodd" clip-rule="evenodd" d="M127.145 55.2872C113.036 51.5026 100.265 53.5515 89.8879 57.4886L89.8863 57.4892C72.0836 64.2358 57.8109 78.0754 49.9765 95.5334C46.5059 103.333 44.0888 111.56 42.7887 119.997L42.7865 120.012L42.7841 120.027C38.7 145.342 64.2582 173.886 107.527 172.085C129.892 171.154 143.65 168.588 152.935 163.1C161.914 157.793 167.296 149.378 171.82 134.9C176.095 121.215 174.023 103.69 166.139 88.2525C158.286 72.8775 144.912 60.0524 127.145 55.2872L127.145 55.2872ZM46.137 93.8172L42.301 92.0962C51.0084 72.6884 66.9195 57.1997 86.9045 49.6256M46.137 93.8172L42.2958 92.1077C38.5223 100.587 35.8936 109.53 34.479 118.702C29.2388 151.254 61.5178 182.417 107.877 180.488C130.33 179.554 145.972 176.985 157.215 170.34C168.765 163.513 175.04 152.794 179.847 137.408C184.902 121.229 182.309 101.422 173.628 84.4271C164.916 67.3698 149.825 52.6626 129.324 47.1643C113.138 42.8227 98.5325 45.214 86.9061 49.625" fill="#1F1F1F"/>
<g style="mix-blend-mode:lighten" opacity="0.5">
<path fill-rule="evenodd" clip-rule="evenodd" d="M117.401 61.3548C118.766 56.918 123.469 54.4278 127.906 55.7927L125.435 63.8262C127.906 55.7927 127.909 55.7936 127.912 55.7945L127.932 55.8007L127.966 55.8115C127.993 55.8197 128.025 55.8299 128.062 55.8419C128.138 55.8661 128.237 55.8981 128.358 55.9382C128.599 56.0183 128.928 56.1307 129.335 56.2769C130.148 56.569 131.277 56.9978 132.64 57.5759C135.355 58.7275 139.056 60.4957 143.062 62.9915C150.955 67.9076 160.749 76.0974 165.881 88.6427C167.638 92.9391 165.58 97.8467 161.283 99.6041C156.987 101.361 152.079 99.3031 150.322 95.0067C147.055 87.0194 140.516 81.2099 134.175 77.2599C131.065 75.3226 128.173 73.9411 126.076 73.0512C125.032 72.6085 124.199 72.2937 123.652 72.0973C123.38 71.9992 123.179 71.9312 123.061 71.8919C123.002 71.8722 122.963 71.8598 122.946 71.8545C122.944 71.8536 122.942 71.8529 122.94 71.8525C118.518 70.4783 116.039 65.7838 117.401 61.3548Z" fill="white"/>
</g>
<path fill-rule="evenodd" clip-rule="evenodd" d="M67.1158 82.9922C66.0702 85.0529 63.5552 85.885 61.4855 84.8502C59.4084 83.8116 58.5664 81.2857 59.605 79.2086L63.2794 81.0458C59.605 79.2085 59.6061 79.2065 59.6071 79.2044L59.6094 79.1998L59.6146 79.1896L59.627 79.165C59.6363 79.1468 59.6476 79.1249 59.6609 79.0996C59.6874 79.0488 59.7218 78.984 59.7643 78.9064C59.8491 78.7512 59.9664 78.544 60.1164 78.2951C60.4157 77.7986 60.8505 77.1275 61.4253 76.3668C62.5619 74.8627 64.3182 72.9116 66.7469 71.2919C69.2041 69.6531 72.3755 68.3404 76.2264 68.2261C80.079 68.1118 84.2918 69.2065 88.8141 71.8708C90.815 73.0497 91.4815 75.6274 90.3027 77.6283C89.1238 79.6292 86.5461 80.2957 84.5452 79.1168C81.1437 77.1129 78.4803 76.5729 76.4759 76.6324C74.4698 76.6919 72.8033 77.3615 71.4131 78.2886C69.9943 79.2349 68.8936 80.4332 68.1351 81.437C67.7624 81.9302 67.4902 82.3528 67.3192 82.6364C67.2342 82.7775 67.1756 82.882 67.1433 82.941C67.1284 82.9683 67.1192 82.9857 67.1158 82.9922Z" fill="#1F1F1F"/>
<path fill-rule="evenodd" clip-rule="evenodd" d="M107.437 75.575C107.443 75.5712 107.454 75.5625 107.473 75.5495C107.519 75.517 107.603 75.458 107.724 75.38C107.966 75.2229 108.341 74.995 108.821 74.7525C109.804 74.2558 111.094 73.7628 112.491 73.6033C113.843 73.449 115.27 73.605 116.716 74.369C118.176 75.1399 119.976 76.6996 121.77 79.8877C122.909 81.9115 125.473 82.6288 127.497 81.4897C129.521 80.3507 130.238 77.7866 129.099 75.7628C126.692 71.485 123.823 68.6117 120.644 66.9325C117.452 65.2465 114.269 64.9356 111.537 65.2476C108.85 65.5543 106.582 66.4609 105.027 67.2471C104.238 67.646 103.6 68.0305 103.145 68.3254C102.917 68.4733 102.733 68.6002 102.597 68.6971C102.529 68.7456 102.473 68.7867 102.428 68.8194C102.406 68.8357 102.387 68.8499 102.372 68.8619L102.35 68.8782L102.341 68.8851L102.337 68.8882C102.335 68.8896 102.333 68.8911 104.897 72.2245L102.333 68.8911C100.492 70.3068 100.148 72.9468 101.563 74.7878C102.973 76.6213 105.598 76.9707 107.437 75.575Z" fill="#1F1F1F"/>
<path fill-rule="evenodd" clip-rule="evenodd" d="M87.2699 138.679C88.2525 139.661 89.8438 139.663 90.828 138.684C90.8289 138.683 90.8303 138.682 90.8324 138.68C90.8396 138.673 90.8543 138.659 90.8764 138.638C90.9205 138.596 90.9934 138.529 91.0928 138.441C91.2922 138.265 91.5947 138.012 91.9824 137.724C92.7682 137.14 93.8498 136.457 95.0892 135.98C96.3262 135.504 97.6327 135.265 98.9313 135.451C100.191 135.63 101.626 136.233 103.134 137.741C104.118 138.725 105.713 138.725 106.698 137.741C107.682 136.757 107.682 135.161 106.698 134.177C104.473 131.952 102.057 130.805 99.6429 130.461C97.267 130.122 95.0741 130.585 93.2782 131.277C91.4848 131.967 90.0002 132.918 88.9779 133.677C88.4616 134.061 88.0497 134.405 87.7606 134.66C87.6158 134.787 87.501 134.893 87.4184 134.971C87.3771 135.01 87.3438 135.042 87.3188 135.066L87.2875 135.097L87.2765 135.108L87.2722 135.112L87.2704 135.114C87.2696 135.115 87.2688 135.116 89.0512 136.897L87.2688 135.116C86.285 136.1 86.2855 137.696 87.2699 138.679Z" fill="#1F1F1F"/>
<path d="M77.3668 102.094C81.2326 102.094 84.3664 97.7048 84.3664 92.2908C84.3664 86.8769 81.2326 82.488 77.3668 82.488C73.501 82.488 70.3672 86.8769 70.3672 92.2908C70.3672 97.7048 73.501 102.094 77.3668 102.094Z" fill="#1F1F1F"/>
<path d="M114.234 99.7621C118.1 99.7621 121.234 95.3733 121.234 89.9593C121.234 84.5454 118.1 80.1565 114.234 80.1565C110.368 80.1565 107.234 84.5454 107.234 89.9593C107.234 95.3733 110.368 99.7621 114.234 99.7621Z" fill="#1F1F1F"/>
<g style="mix-blend-mode:lighten" opacity="0.5">
<path d="M79.2312 92.2908C80.7763 92.2908 82.0288 91.0383 82.0288 89.4932C82.0288 87.9481 80.7763 86.6956 79.2312 86.6956C77.6861 86.6956 76.4336 87.9481 76.4336 89.4932C76.4336 91.0383 77.6861 92.2908 79.2312 92.2908Z" fill="white"/>
</g>
<g style="mix-blend-mode:lighten" opacity="0.5">
<path d="M115.634 89.4876C117.179 89.4876 118.431 88.2351 118.431 86.69C118.431 85.1449 117.179 83.8923 115.634 83.8923C114.089 83.8923 112.836 85.1449 112.836 86.69C112.836 88.2351 114.089 89.4876 115.634 89.4876Z" fill="white"/>
</g>
<path d="M99.7637 113.756L96.9883 117.492C96.9883 117.492 100.718 124.025 111.92 125.89C123.122 127.755 125.919 125.89 124.987 124.025C124.054 122.16 99.7637 113.756 99.7637 113.756Z" fill="#1F1F1F"/>
<path d="M95.0999 117.492L91.3642 113.756L69.899 123.092C69.899 123.092 65.2307 124.957 69.899 126.823C74.5673 128.688 89.4991 124.025 95.0999 117.492Z" fill="#1F1F1F"/>
</svg>
