<svg width="220" height="210" viewBox="0 0 220 210" fill="none" xmlns="http://www.w3.org/2000/svg">
<path d="M110 210C162.699 210 205.42 204.851 205.42 198.5C205.42 192.149 162.699 187 110 187C57.3011 187 14.5801 192.149 14.5801 198.5C14.5801 204.851 57.3011 210 110 210Z" fill="#EEEEEE"/>
<path d="M5 86.2913C5 86.2913 12.5825 111.492 39.5929 112.891" stroke="#1F1F1F" stroke-width="8.41" stroke-linecap="round" stroke-linejoin="round"/>
<path d="M215 109.444C215 109.444 207.651 135.255 176.793 131.686" stroke="#1F1F1F" stroke-width="8.41" stroke-linecap="round" stroke-linejoin="round"/>
<path d="M141.074 173.146L147.801 193.628H157.132" stroke="#1F1F1F" stroke-width="8.41" stroke-linecap="round" stroke-linejoin="round"/>
<path d="M87.1304 196.426L95.5344 193.628L91.3324 176.587" stroke="#1F1F1F" stroke-width="8.41" stroke-linecap="round" stroke-linejoin="round"/>
<path d="M91.3271 53.3802L105.793 16.3171C105.793 16.3171 144.998 -13.5743 159.936 28.4013C156.2 54.5347 154.052 66.8909 154.052 66.8909L91.3271 53.3802Z" fill="#454545" stroke="#1F1F1F" stroke-width="8.41" stroke-miterlimit="10"/>
<path d="M45.6376 94.8172C53.9084 76.3828 69.0012 61.7175 87.8963 54.5569C98.8981 50.3826 112.587 48.1623 127.735 52.2255C166.002 62.489 184.664 107.29 175.333 137.154C166.002 167.017 152.02 175.421 107.202 177.286C62.3845 179.151 33.4646 149.293 38.1329 120.357C39.4901 111.548 42.0138 102.96 45.6376 94.8172Z" fill="#ED1B24" stroke="#1F1F1F" stroke-width="8.41" stroke-miterlimit="10"/>
<g style="mix-blend-mode:darken">
<path d="M175.333 137.159C166.002 167.023 152.02 175.427 107.202 177.292C62.3845 179.157 33.4646 149.294 38.1329 120.357C39.0199 114.705 40.3677 109.136 42.1628 103.704C59.9921 113.268 109.289 133.29 176.621 108.789C178.386 118.714 178.02 128.556 175.333 137.159Z" fill="#AF1F28"/>
</g>
<g style="mix-blend-mode:lighten" opacity="0.5">
<path d="M124.932 64.8262C124.932 64.8262 149.2 72.2921 157.598 92.8247" stroke="white" stroke-width="16.81" stroke-miterlimit="10" stroke-linecap="round"/>
</g>
<path d="M62.8677 82.0892C62.8677 82.0892 70.3336 67.1573 86.1813 76.4939" stroke="#1F1F1F" stroke-width="8.41" stroke-miterlimit="10" stroke-linecap="round"/>
<path d="M104.399 73.2245C104.399 73.2245 116.533 63.8935 124.937 78.8253" stroke="#1F1F1F" stroke-width="8.41" stroke-miterlimit="10" stroke-linecap="round"/>
<path d="M88.5513 137.897C88.5513 137.897 96.9497 129.493 104.416 136.959" stroke="#1F1F1F" stroke-width="5.04" stroke-miterlimit="10" stroke-linecap="round"/>
<path d="M76.8668 103.094C80.7326 103.094 83.8664 98.7048 83.8664 93.2908C83.8664 87.8769 80.7326 83.488 76.8668 83.488C73.001 83.488 69.8672 87.8769 69.8672 93.2908C69.8672 98.7048 73.001 103.094 76.8668 103.094Z" fill="#1F1F1F"/>
<path d="M113.735 100.762C117.601 100.762 120.735 96.3733 120.735 90.9593C120.735 85.5454 117.601 81.1565 113.735 81.1565C109.87 81.1565 106.736 85.5454 106.736 90.9593C106.736 96.3733 109.87 100.762 113.735 100.762Z" fill="#1F1F1F"/>
<g style="mix-blend-mode:lighten" opacity="0.5">
<path d="M78.7322 93.2908C80.2773 93.2908 81.5298 92.0383 81.5298 90.4932C81.5298 88.9481 80.2773 87.6956 78.7322 87.6956C77.1871 87.6956 75.9346 88.9481 75.9346 90.4932C75.9346 92.0383 77.1871 93.2908 78.7322 93.2908Z" fill="white"/>
</g>
<g style="mix-blend-mode:lighten" opacity="0.5">
<path d="M115.135 90.4876C116.68 90.4876 117.932 89.2351 117.932 87.69C117.932 86.1449 116.68 84.8923 115.135 84.8923C113.589 84.8923 112.337 86.1449 112.337 87.69C112.337 89.2351 113.589 90.4876 115.135 90.4876Z" fill="white"/>
</g>
<path d="M99.2647 114.756L96.4893 118.492C96.4893 118.492 100.219 125.025 111.421 126.89C122.623 128.755 125.42 126.89 124.488 125.025C123.555 123.16 99.2647 114.756 99.2647 114.756Z" fill="#1F1F1F"/>
<path d="M94.6019 118.492L90.8661 114.756L69.401 124.092C69.401 124.092 64.7327 125.957 69.401 127.823C74.0692 129.688 89.001 125.025 94.6019 118.492Z" fill="#1F1F1F"/>
</svg>
