<svg width="40" height="39" viewBox="0 0 40 39" fill="none" xmlns="http://www.w3.org/2000/svg">
<g clip-path="url(#clip0_1878:37775)">
<path d="M39.8689 25.015C38.0061 24.6802 36.091 24.8283 34.2985 25.4456C31.3957 26.4405 28.014 27.5245 24.5975 27.4414C28.6613 22.6896 28.85 15.7639 23.686 13.4148C18.522 11.0657 8.77164 9.01349 3.89501 13.4148C1.98542 15.1784 0.645061 17.4943 0.0517578 20.0554C0.195724 18.2409 0.568433 16.4531 1.16061 14.7364C2.90227 9.64013 5.47411 3.87863 13.5031 0.650409C13.5031 0.650409 25.5496 -3.16584 33.8689 7.69191C38.5975 13.8662 40.5452 19.9485 39.8689 25.015Z" fill="#AE231C"/>
<path d="M24.5981 27.4413C21.7572 27.4118 19.0099 26.3985 16.8042 24.5665C11.0655 19.8712 7.33831 18.9892 3.60827 19.5772C1.70406 19.8742 0.705513 21.864 0.168503 23.735C-0.00772348 22.517 -0.046682 21.2824 0.0523929 20.0553C0.645696 17.4943 1.98605 15.1784 3.89564 13.4148C8.77228 9.01349 18.5226 11.0686 23.6866 13.4148C28.8507 15.761 28.6649 22.6866 24.5981 27.4413Z" fill="#DF0600"/>
<path d="M39.87 25.015C39.3562 28.855 37.3301 32.1189 33.87 34.3968C25.8351 39.6771 14.9266 40.9839 7.48099 35.2758C2.90334 31.7774 0.746594 27.771 0.168945 23.735C0.697247 21.864 1.7045 19.8742 3.60871 19.5772C7.33876 18.9833 11.0659 19.8742 16.8047 24.5666C19.0111 26.3973 21.7579 27.4105 24.5986 27.4414C28.0151 27.5275 31.3852 26.4406 34.2996 25.4457C36.0921 24.8283 38.0072 24.6802 39.87 25.015Z" fill="#80302F"/>
</g>
<defs>
<clipPath id="clip0_1878:37775">
<rect width="40" height="39" fill="white"/>
</clipPath>
</defs>
</svg>
