<svg width="40" height="39" viewBox="0 0 40 39" fill="none" xmlns="http://www.w3.org/2000/svg">
<g clip-path="url(#clip0_1878:37775)">
<path d="M39.8689 25.015C38.0061 24.6802 36.091 24.8283 34.2985 25.4456C31.3957 26.4405 28.014 27.5245 24.5975 27.4414C28.6613 22.6896 28.85 15.7639 23.686 13.4148C18.522 11.0657 8.77164 9.01349 3.89501 13.4148C1.98542 15.1784 0.645061 17.4943 0.0517578 20.0554C0.195724 18.2409 0.568433 16.4531 1.16061 14.7364C2.90227 9.64013 5.47411 3.87863 13.5031 0.650409C13.5031 0.650409 25.5496 -3.16584 33.8689 7.69191C38.5975 13.8662 40.5452 19.9485 39.8689 25.015" fill="#AE231C"/>
<path d="M24.5981 27.4413C21.7572 27.4118 19.0099 26.3985 16.8042 24.5665C11.0655 19.8712 7.33831 18.9892 3.60827 19.5772C1.70406 19.8742 0.705513 21.864 0.168503 23.735C-0.00772348 22.517 -0.046682 21.2824 0.0523929 20.0553C0.645696 17.4943 1.98605 15.1784 3.89564 13.4148C8.77228 9.01349 18.5226 11.0686 23.6866 13.4148C28.8507 15.761 28.6649 22.6866 24.5981 27.4413Z" fill="#DF0600"/>
<path d="M39.87 25.015C39.3562 28.855 37.3301 32.1189 33.87 34.3968C25.8351 39.6771 14.9266 40.9839 7.48099 35.2758C2.90334 31.7774 0.746594 27.771 0.168945 23.735C0.697247 21.864 1.7045 19.8742 3.60871 19.5772C7.33876 18.9833 11.0659 19.8742 16.8047 24.5666C19.0111 26.3973 21.7579 27.4105 24.5986 27.4414C28.0151 27.5275 31.3852 26.4406 34.2996 25.4457C36.0921 24.8283 38.0072 24.6802 39.87 25.015" fill="#80302F"/>
<path d="M28.0354 25.1101C27.7668 24.9174 27.4487 24.8101 27.1208 24.8017C26.7929 24.7932 26.4698 24.884 26.1921 25.0625C25.9742 25.2382 25.8004 25.4646 25.6853 25.7229C25.5702 25.9812 25.517 26.2639 25.5303 26.5475C25.5235 26.7031 25.5372 26.8589 25.571 27.0108C25.5936 27.1134 25.6277 27.213 25.6726 27.3077C25.7614 27.4864 25.8842 27.6451 26.0338 27.7746C26.1833 27.9041 26.3565 28.0018 26.5434 28.0621C27.2952 28.3383 28.1573 27.9463 28.6856 27.3048C28.793 27.1795 28.8719 27.0314 28.9166 26.8712C28.9613 26.7109 28.9706 26.5426 28.944 26.3782C28.8789 26.116 28.7638 25.8695 28.6054 25.6529C28.447 25.4363 28.2484 25.2539 28.0209 25.116" fill="white"/>
<path fill-rule="evenodd" clip-rule="evenodd" d="M16.9409 15.7966C17.3212 17.0559 17.7246 18.4279 18.102 19.6871L20.6506 18.8645C20.9586 18.6814 21.2185 18.4246 21.4082 18.1161C21.7315 17.6826 21.8754 17.1365 21.8088 16.5955C21.7561 16.2881 21.6388 15.9961 21.4649 15.7397C21.2909 15.4833 21.0646 15.2686 20.8016 15.1106C20.3139 14.8552 19.7595 14.9621 19.205 15.072L16.9409 15.7818V15.7966ZM10.8857 12.9634L18.8828 10.4569C19.6998 10.2517 20.5447 10.1884 21.3821 10.2698C22.5536 10.3961 23.6634 10.8699 24.5751 11.6329C25.5953 12.5553 26.329 13.7633 26.6855 15.1076C26.9639 16.2272 26.9429 17.4027 26.6245 18.5111C26.4151 19.2753 26.0219 19.9737 25.4808 20.5425C24.9578 21.1313 24.3558 21.6413 23.6927 22.0571C23.0524 22.4355 22.3702 22.7346 21.6608 22.948L19.3821 23.6845L20.9757 29.0718L16.2384 30.5746L10.8857 12.9634Z" fill="white"/>
</g>
<defs>
<clipPath id="clip0_1878:37775">
<rect width="40" height="39" fill="white"/>
</clipPath>
</defs>
</svg>
