<svg width="250" height="250" viewBox="0 0 250 250" fill="none" xmlns="http://www.w3.org/2000/svg">
<rect width="250" height="250" fill="#F7F8FB"/>
<path d="M125 125C133.805 125 140.941 117.837 140.941 109C140.941 100.163 133.805 93 125 93C116.195 93 109.059 100.163 109.059 109C109.059 117.837 116.195 125 125 125ZM136.159 129H134.079C131.314 130.275 128.238 131 125 131C121.762 131 118.698 130.275 115.921 129H113.841C104.6 129 97.1025 136.525 97.1025 145.8V151C97.1025 154.312 99.7802 157 103.081 157H146.919C150.22 157 152.897 154.312 152.897 151V145.8C152.897 136.525 145.4 129 136.159 129Z" fill="#CCCCCC"/>
</svg>
