<svg width="360" height="300" viewBox="0 0 360 300" fill="none" xmlns="http://www.w3.org/2000/svg">
<path d="M230.94 178.649C229.269 177.469 227.29 176.811 225.25 176.76C223.21 176.708 221.201 177.264 219.473 178.358C218.117 179.435 217.036 180.822 216.32 182.405C215.604 183.987 215.274 185.72 215.356 187.457C215.314 188.411 215.399 189.366 215.609 190.296C215.75 190.925 215.962 191.536 216.241 192.116C216.794 193.21 217.558 194.183 218.488 194.977C219.418 195.77 220.496 196.369 221.658 196.738C226.335 198.431 231.698 196.029 234.985 192.098C235.653 191.33 236.144 190.423 236.422 189.441C236.699 188.459 236.758 187.427 236.592 186.42C236.187 184.813 235.471 183.303 234.486 181.976C233.5 180.649 232.265 179.531 230.849 178.686" fill="#EEEEEE"/>
<path fill-rule="evenodd" clip-rule="evenodd" d="M161.764 121.905C164.135 129.582 166.652 137.947 169.005 145.624L184.9 140.608C186.821 139.492 188.442 137.926 189.625 136.046C191.641 133.403 192.538 130.073 192.123 126.775C191.795 124.901 191.063 123.121 189.978 121.558C188.894 119.994 187.482 118.686 185.842 117.722C182.8 116.165 179.342 116.817 175.885 117.487L161.764 121.814V121.905ZM124 104.632L173.875 89.3503C178.97 88.0993 184.239 87.7137 189.462 88.2096C196.768 88.9797 203.69 91.8683 209.376 96.5203C215.739 102.144 220.314 109.508 222.537 117.704C224.274 124.53 224.143 131.697 222.157 138.454C220.851 143.113 218.399 147.371 215.024 150.838C211.763 154.428 208.008 157.537 203.873 160.072C199.879 162.379 195.625 164.203 191.2 165.504L176.989 169.994L186.928 202.838L157.383 212L124 104.632Z" fill="#EEEEEE"/>
</svg>
