<svg width="50" height="64" viewBox="0 0 50 64" fill="none" xmlns="http://www.w3.org/2000/svg">
<path d="M18.9805 16.0829C18.6839 15.8734 18.3326 15.7568 17.9706 15.7476C17.6086 15.7384 17.2519 15.8371 16.9453 16.0312C16.7046 16.2222 16.5128 16.4684 16.3857 16.7492C16.2586 17.03 16.1999 17.3373 16.2146 17.6456C16.207 17.8147 16.2221 17.9841 16.2594 18.1492C16.2845 18.2608 16.3221 18.3692 16.3716 18.4721C16.4697 18.6663 16.6053 18.8388 16.7704 18.9797C16.9355 19.1205 17.1268 19.2267 17.3331 19.2922C18.1632 19.5925 19.1151 19.1663 19.6984 18.4689C19.817 18.3327 19.9041 18.1717 19.9534 17.9975C20.0027 17.8233 20.0131 17.6402 19.9836 17.4615C19.9117 17.1765 19.7847 16.9085 19.6098 16.6731C19.4349 16.4376 19.2156 16.2392 18.9644 16.0893" fill="#EEEEEE"/>
<path fill-rule="evenodd" clip-rule="evenodd" d="M6.70265 6.01537C7.12357 7.3774 7.5702 8.86151 7.98791 10.2235L10.8091 9.33372C11.1499 9.13563 11.4377 8.85786 11.6477 8.52421C12.0055 8.05532 12.1648 7.46465 12.0911 6.87949C12.0328 6.54698 11.9029 6.23111 11.7104 5.95377C11.5179 5.67643 11.2673 5.44425 10.9761 5.27332C10.4363 4.99705 9.82262 5.1127 9.20891 5.23156L6.70265 5.99931V6.01537ZM0 2.95079L8.85225 0.23957C9.75657 0.0176107 10.6918 -0.0508008 11.6188 0.0371928C12.9155 0.173818 14.144 0.686311 15.1532 1.51166C16.2825 2.50936 17.0946 3.81601 17.4892 5.2701C17.7975 6.48105 17.7742 7.75261 17.4217 8.95145C17.1899 9.77808 16.7547 10.5335 16.1558 11.1487C15.5768 11.7856 14.9104 12.3372 14.1764 12.787C13.4676 13.1963 12.7126 13.5198 11.9272 13.7507L9.40491 14.5474L11.1689 20.3746L5.92506 22L0 2.95079Z" fill="#EEEEEE"/>
<path d="M18.9805 48.0829C18.6839 47.8734 18.3326 47.7568 17.9706 47.7476C17.6086 47.7384 17.2519 47.8371 16.9453 48.0312C16.7046 48.2222 16.5128 48.4684 16.3857 48.7492C16.2586 49.03 16.1999 49.3373 16.2146 49.6456C16.207 49.8147 16.2221 49.9841 16.2594 50.1492C16.2845 50.2608 16.3221 50.3692 16.3716 50.4721C16.4697 50.6663 16.6053 50.8388 16.7704 50.9797C16.9355 51.1205 17.1268 51.2267 17.3331 51.2922C18.1632 51.5925 19.1151 51.1663 19.6984 50.4689C19.817 50.3327 19.9041 50.1717 19.9534 49.9975C20.0027 49.8233 20.0131 49.6402 19.9836 49.4615C19.9117 49.1765 19.7847 48.9085 19.6098 48.6731C19.4349 48.4376 19.2156 48.2392 18.9644 48.0893" fill="#EEEEEE"/>
<path fill-rule="evenodd" clip-rule="evenodd" d="M6.70265 38.0154C7.12357 39.3774 7.5702 40.8615 7.98791 42.2235L10.8091 41.3337C11.1499 41.1356 11.4377 40.8579 11.6477 40.5242C12.0055 40.0553 12.1648 39.4647 12.0911 38.8795C12.0328 38.547 11.9029 38.2311 11.7104 37.9538C11.5179 37.6764 11.2673 37.4443 10.9761 37.2733C10.4363 36.9971 9.82262 37.1127 9.20891 37.2316L6.70265 37.9993V38.0154ZM0 34.9508L8.85225 32.2396C9.75657 32.0176 10.6918 31.9492 11.6188 32.0372C12.9155 32.1738 14.144 32.6863 15.1532 33.5117C16.2825 34.5094 17.0946 35.816 17.4892 37.2701C17.7975 38.4811 17.7742 39.7526 17.4217 40.9515C17.1899 41.7781 16.7547 42.5335 16.1558 43.1487C15.5768 43.7856 14.9104 44.3372 14.1764 44.787C13.4676 45.1963 12.7126 45.5198 11.9272 45.7507L9.40491 46.5474L11.1689 52.3746L5.92506 54L0 34.9508Z" fill="#EEEEEE"/>
<path d="M48.9805 26.0829C48.6839 25.8734 48.3326 25.7568 47.9706 25.7476C47.6086 25.7384 47.2519 25.8371 46.9453 26.0312C46.7046 26.2222 46.5128 26.4684 46.3857 26.7492C46.2586 27.03 46.1999 27.3373 46.2146 27.6456C46.207 27.8147 46.2221 27.9841 46.2594 28.1492C46.2845 28.2608 46.3221 28.3692 46.3716 28.4721C46.4697 28.6663 46.6053 28.8388 46.7704 28.9797C46.9355 29.1205 47.1268 29.2267 47.3331 29.2922C48.1632 29.5925 49.1151 29.1663 49.6984 28.4689C49.817 28.3327 49.9041 28.1717 49.9534 27.9975C50.0027 27.8233 50.0131 27.6402 49.9836 27.4615C49.9117 27.1765 49.7847 26.9085 49.6098 26.6731C49.4349 26.4376 49.2156 26.2392 48.9644 26.0893" fill="#EEEEEE"/>
<path fill-rule="evenodd" clip-rule="evenodd" d="M36.7026 16.0154C37.1236 17.3774 37.5702 18.8615 37.9879 20.2235L40.8091 19.3337C41.1499 19.1356 41.4377 18.8579 41.6477 18.5242C42.0055 18.0553 42.1648 17.4647 42.0911 16.8795C42.0328 16.547 41.9029 16.2311 41.7104 15.9538C41.5179 15.6764 41.2673 15.4443 40.9761 15.2733C40.4363 14.9971 39.8226 15.1127 39.2089 15.2316L36.7026 15.9993V16.0154ZM30 12.9508L38.8522 10.2396C39.7566 10.0176 40.6918 9.9492 41.6188 10.0372C42.9155 10.1738 44.144 10.6863 45.1532 11.5117C46.2825 12.5094 47.0946 13.816 47.4892 15.2701C47.7975 16.4811 47.7742 17.7526 47.4217 18.9515C47.1899 19.7781 46.7547 20.5335 46.1558 21.1487C45.5768 21.7856 44.9104 22.3372 44.1764 22.787C43.4676 23.1963 42.7126 23.5198 41.9272 23.7507L39.4049 24.5474L41.1689 30.3746L35.9251 32L30 12.9508Z" fill="#EEEEEE"/>
<path d="M48.9805 58.0829C48.6839 57.8734 48.3326 57.7568 47.9706 57.7476C47.6086 57.7384 47.2519 57.8371 46.9453 58.0312C46.7046 58.2222 46.5128 58.4684 46.3857 58.7492C46.2586 59.03 46.1999 59.3373 46.2146 59.6456C46.207 59.8147 46.2221 59.9841 46.2594 60.1492C46.2845 60.2608 46.3221 60.3692 46.3716 60.4721C46.4697 60.6663 46.6053 60.8388 46.7704 60.9797C46.9355 61.1205 47.1268 61.2267 47.3331 61.2922C48.1632 61.5925 49.1151 61.1663 49.6984 60.4689C49.817 60.3327 49.9041 60.1717 49.9534 59.9975C50.0027 59.8233 50.0131 59.6402 49.9836 59.4615C49.9117 59.1765 49.7847 58.9085 49.6098 58.6731C49.4349 58.4376 49.2156 58.2392 48.9644 58.0893" fill="#EEEEEE"/>
<path fill-rule="evenodd" clip-rule="evenodd" d="M36.7026 48.0154C37.1236 49.3774 37.5702 50.8615 37.9879 52.2235L40.8091 51.3337C41.1499 51.1356 41.4377 50.8579 41.6477 50.5242C42.0055 50.0553 42.1648 49.4647 42.0911 48.8795C42.0328 48.547 41.9029 48.2311 41.7104 47.9538C41.5179 47.6764 41.2673 47.4443 40.9761 47.2733C40.4363 46.9971 39.8226 47.1127 39.2089 47.2316L36.7026 47.9993V48.0154ZM30 44.9508L38.8522 42.2396C39.7566 42.0176 40.6918 41.9492 41.6188 42.0372C42.9155 42.1738 44.144 42.6863 45.1532 43.5117C46.2825 44.5094 47.0946 45.816 47.4892 47.2701C47.7975 48.4811 47.7742 49.7526 47.4217 50.9515C47.1899 51.7781 46.7547 52.5335 46.1558 53.1487C45.5768 53.7856 44.9104 54.3372 44.1764 54.787C43.4676 55.1963 42.7126 55.5198 41.9272 55.7507L39.4049 56.5474L41.1689 62.3746L35.9251 64L30 44.9508Z" fill="#EEEEEE"/>
</svg>
