<svg width="60" height="74" viewBox="0 0 60 74" fill="none" xmlns="http://www.w3.org/2000/svg">
<path d="M23.9805 21.0829C23.6839 20.8734 23.3326 20.7568 22.9706 20.7476C22.6086 20.7384 22.2519 20.8371 21.9453 21.0312C21.7046 21.2222 21.5128 21.4684 21.3857 21.7492C21.2586 22.03 21.1999 22.3373 21.2145 22.6456C21.207 22.8147 21.2221 22.9841 21.2594 23.1492C21.2845 23.2608 21.3221 23.3692 21.3716 23.4721C21.4697 23.6663 21.6053 23.8388 21.7704 23.9797C21.9355 24.1205 22.1268 24.2267 22.3331 24.2922C23.1632 24.5925 24.1151 24.1663 24.6984 23.4689C24.817 23.3327 24.9041 23.1717 24.9534 22.9975C25.0027 22.8233 25.0131 22.6402 24.9836 22.4615C24.9117 22.1765 24.7847 21.9085 24.6098 21.6731C24.4349 21.4376 24.2156 21.2392 23.9644 21.0893" fill="#EEEEEE"/>
<path fill-rule="evenodd" clip-rule="evenodd" d="M11.7026 11.0154C12.1236 12.3774 12.5702 13.8615 12.9879 15.2235L15.8091 14.3337C16.1499 14.1356 16.4377 13.8579 16.6477 13.5242C17.0055 13.0553 17.1648 12.4647 17.0911 11.8795C17.0328 11.547 16.9029 11.2311 16.7104 10.9538C16.5179 10.6764 16.2673 10.4443 15.9761 10.2733C15.4363 9.99705 14.8226 10.1127 14.2089 10.2316L11.7026 10.9993V11.0154ZM5 7.95079L13.8522 5.23957C14.7566 5.01761 15.6918 4.9492 16.6188 5.03719C17.9155 5.17382 19.144 5.68631 20.1532 6.51166C21.2825 7.50936 22.0946 8.81601 22.4892 10.2701C22.7975 11.4811 22.7742 12.7526 22.4217 13.9515C22.1899 14.7781 21.7547 15.5335 21.1558 16.1487C20.5768 16.7856 19.9104 17.3372 19.1764 17.787C18.4676 18.1963 17.7126 18.5198 16.9272 18.7507L14.4049 19.5474L16.1689 25.3746L10.9251 27L5 7.95079Z" fill="#EEEEEE"/>
<path d="M23.9805 53.0829C23.6839 52.8734 23.3326 52.7568 22.9706 52.7476C22.6086 52.7384 22.2519 52.8371 21.9453 53.0312C21.7046 53.2222 21.5128 53.4684 21.3857 53.7492C21.2586 54.03 21.1999 54.3373 21.2145 54.6456C21.207 54.8147 21.2221 54.9841 21.2594 55.1492C21.2845 55.2608 21.3221 55.3692 21.3716 55.4721C21.4697 55.6663 21.6053 55.8388 21.7704 55.9797C21.9355 56.1205 22.1268 56.2267 22.3331 56.2922C23.1632 56.5925 24.1151 56.1663 24.6984 55.4689C24.817 55.3327 24.9041 55.1717 24.9534 54.9975C25.0027 54.8233 25.0131 54.6402 24.9836 54.4615C24.9117 54.1765 24.7847 53.9085 24.6098 53.6731C24.4349 53.4376 24.2156 53.2392 23.9644 53.0893" fill="#EEEEEE"/>
<path fill-rule="evenodd" clip-rule="evenodd" d="M11.7026 43.0154C12.1236 44.3774 12.5702 45.8615 12.9879 47.2235L15.8091 46.3337C16.1499 46.1356 16.4377 45.8579 16.6477 45.5242C17.0055 45.0553 17.1648 44.4647 17.0911 43.8795C17.0328 43.547 16.9029 43.2311 16.7104 42.9538C16.5179 42.6764 16.2673 42.4443 15.9761 42.2733C15.4363 41.9971 14.8226 42.1127 14.2089 42.2316L11.7026 42.9993V43.0154ZM5 39.9508L13.8522 37.2396C14.7566 37.0176 15.6918 36.9492 16.6188 37.0372C17.9155 37.1738 19.144 37.6863 20.1532 38.5117C21.2825 39.5094 22.0946 40.816 22.4892 42.2701C22.7975 43.4811 22.7742 44.7526 22.4217 45.9515C22.1899 46.7781 21.7547 47.5335 21.1558 48.1487C20.5768 48.7856 19.9104 49.3372 19.1764 49.787C18.4676 50.1963 17.7126 50.5198 16.9272 50.7507L14.4049 51.5474L16.1689 57.3746L10.9251 59L5 39.9508Z" fill="#EEEEEE"/>
<path d="M53.9805 31.0829C53.6839 30.8734 53.3326 30.7568 52.9706 30.7476C52.6086 30.7384 52.2519 30.8371 51.9453 31.0312C51.7046 31.2222 51.5128 31.4684 51.3857 31.7492C51.2586 32.03 51.1999 32.3373 51.2145 32.6456C51.207 32.8147 51.2221 32.9841 51.2594 33.1492C51.2845 33.2608 51.3221 33.3692 51.3716 33.4721C51.4697 33.6663 51.6053 33.8388 51.7704 33.9797C51.9355 34.1205 52.1268 34.2267 52.3331 34.2922C53.1632 34.5925 54.1151 34.1663 54.6984 33.4689C54.817 33.3327 54.9041 33.1717 54.9534 32.9975C55.0027 32.8233 55.0131 32.6402 54.9836 32.4615C54.9117 32.1765 54.7847 31.9085 54.6098 31.6731C54.4349 31.4376 54.2156 31.2392 53.9644 31.0893" fill="#EEEEEE"/>
<path fill-rule="evenodd" clip-rule="evenodd" d="M41.7026 21.0154C42.1236 22.3774 42.5702 23.8615 42.9879 25.2235L45.8091 24.3337C46.1499 24.1356 46.4377 23.8579 46.6477 23.5242C47.0055 23.0553 47.1648 22.4647 47.0911 21.8795C47.0328 21.547 46.9029 21.2311 46.7104 20.9538C46.5179 20.6764 46.2673 20.4443 45.9761 20.2733C45.4363 19.9971 44.8226 20.1127 44.2089 20.2316L41.7026 20.9993V21.0154ZM35 17.9508L43.8522 15.2396C44.7566 15.0176 45.6918 14.9492 46.6188 15.0372C47.9155 15.1738 49.144 15.6863 50.1532 16.5117C51.2825 17.5094 52.0946 18.816 52.4892 20.2701C52.7975 21.4811 52.7742 22.7526 52.4217 23.9515C52.1899 24.7781 51.7547 25.5335 51.1558 26.1487C50.5768 26.7856 49.9104 27.3372 49.1764 27.787C48.4676 28.1963 47.7126 28.5198 46.9272 28.7507L44.4049 29.5474L46.1689 35.3746L40.9251 37L35 17.9508Z" fill="#EEEEEE"/>
<path d="M53.9805 63.0829C53.6839 62.8734 53.3326 62.7568 52.9706 62.7476C52.6086 62.7384 52.2519 62.8371 51.9453 63.0312C51.7046 63.2222 51.5128 63.4684 51.3857 63.7492C51.2586 64.03 51.1999 64.3373 51.2145 64.6456C51.207 64.8147 51.2221 64.9841 51.2594 65.1492C51.2845 65.2608 51.3221 65.3692 51.3716 65.4721C51.4697 65.6663 51.6053 65.8388 51.7704 65.9797C51.9355 66.1205 52.1268 66.2267 52.3331 66.2922C53.1632 66.5925 54.1151 66.1663 54.6984 65.4689C54.817 65.3327 54.9041 65.1717 54.9534 64.9975C55.0027 64.8233 55.0131 64.6402 54.9836 64.4615C54.9117 64.1765 54.7847 63.9085 54.6098 63.6731C54.4349 63.4376 54.2156 63.2392 53.9644 63.0893" fill="#EEEEEE"/>
<path fill-rule="evenodd" clip-rule="evenodd" d="M41.7026 53.0154C42.1236 54.3774 42.5702 55.8615 42.9879 57.2235L45.8091 56.3337C46.1499 56.1356 46.4377 55.8579 46.6477 55.5242C47.0055 55.0553 47.1648 54.4647 47.0911 53.8795C47.0328 53.547 46.9029 53.2311 46.7104 52.9538C46.5179 52.6764 46.2673 52.4443 45.9761 52.2733C45.4363 51.9971 44.8226 52.1127 44.2089 52.2316L41.7026 52.9993V53.0154ZM35 49.9508L43.8522 47.2396C44.7566 47.0176 45.6918 46.9492 46.6188 47.0372C47.9155 47.1738 49.144 47.6863 50.1532 48.5117C51.2825 49.5094 52.0946 50.816 52.4892 52.2701C52.7975 53.4811 52.7742 54.7526 52.4217 55.9515C52.1899 56.7781 51.7547 57.5335 51.1558 58.1487C50.5768 58.7856 49.9104 59.3372 49.1764 59.787C48.4676 60.1963 47.7126 60.5198 46.9272 60.7507L44.4049 61.5474L46.1689 67.3746L40.9251 69L35 49.9508Z" fill="#EEEEEE"/>
</svg>
