<svg width="530" height="583" viewBox="0 0 530 583" fill="none" xmlns="http://www.w3.org/2000/svg">
<path d="M502.664 426.093C494.811 420.544 485.508 417.454 475.92 417.21C466.332 416.967 456.887 419.581 448.767 424.724C442.394 429.784 437.312 436.306 433.946 443.745C430.58 451.185 429.026 459.327 429.414 467.494C429.215 471.976 429.615 476.464 430.603 480.838C431.266 483.794 432.263 486.664 433.573 489.392C436.173 494.537 439.763 499.108 444.135 502.839C448.507 506.569 453.573 509.384 459.037 511.12C481.02 519.075 506.229 507.784 521.677 489.307C524.818 485.699 527.125 481.434 528.431 476.818C529.737 472.203 530.011 467.353 529.231 462.618C527.328 455.067 523.964 447.968 519.332 441.729C514.7 435.491 508.892 430.235 502.24 426.264" fill="white"/>
<path fill-rule="evenodd" clip-rule="evenodd" d="M177.507 159.368C188.655 195.453 200.483 234.772 211.545 270.857L286.258 247.283C295.286 242.035 302.907 234.675 308.468 225.836C317.945 213.413 322.162 197.765 320.211 182.262C318.667 173.452 315.227 165.084 310.128 157.736C305.029 150.388 298.395 144.237 290.683 139.708C276.387 132.389 260.134 135.453 243.881 138.602L177.507 158.942V159.368ZM0 78.1767L234.436 6.34704C258.385 0.466567 283.152 -1.34589 307.702 0.985367C342.043 4.60505 374.578 18.1828 401.306 40.0491C431.213 66.4818 452.72 101.099 463.17 139.623C471.334 171.706 470.716 205.394 461.383 237.155C455.244 259.055 443.717 279.068 427.856 295.368C412.524 312.243 394.875 326.856 375.438 338.772C356.666 349.616 336.669 358.187 315.871 364.304L249.072 385.41L295.789 539.793L156.915 582.857L0 78.1767Z" fill="white"/>
</svg>
