<svg width="697" height="767" viewBox="0 0 697 767" fill="none" xmlns="http://www.w3.org/2000/svg">
<path d="M661.468 560.71C651.134 553.407 638.892 549.341 626.275 549.021C613.658 548.7 601.228 552.14 590.542 558.909C582.156 565.567 575.469 574.149 571.039 583.939C566.61 593.729 564.565 604.443 565.076 615.191C564.814 621.088 565.34 626.995 566.639 632.751C567.513 636.641 568.824 640.418 570.549 644.007C573.969 650.777 578.694 656.793 584.448 661.702C590.201 666.611 596.867 670.315 604.057 672.599C632.986 683.067 666.159 668.209 686.487 643.895C690.62 639.148 693.656 633.534 695.375 627.461C697.094 621.388 697.454 615.005 696.428 608.775C693.923 598.837 689.496 589.496 683.401 581.286C677.306 573.077 669.663 566.161 660.909 560.935" fill="#F7F7F7"/>
<path fill-rule="evenodd" clip-rule="evenodd" d="M233.587 209.718C248.256 257.203 263.821 308.944 278.378 356.43L376.696 325.407C388.576 318.501 398.605 308.817 405.922 297.185C418.393 280.838 423.942 260.245 421.375 239.844C419.343 228.251 414.816 217.239 408.107 207.57C401.397 197.901 392.666 189.807 382.519 183.847C363.706 174.215 342.318 178.247 320.93 182.391L233.587 209.158V209.718ZM-0.000976562 102.875L308.501 8.35227C340.016 0.613972 372.608 -1.7711 404.915 1.29668C450.105 6.05994 492.919 23.9273 528.091 52.7019C567.446 87.4855 595.748 133.04 609.5 183.735C620.242 225.953 619.43 270.284 607.148 312.08C599.069 340.899 583.901 367.235 563.029 388.684C542.853 410.89 519.628 430.121 494.05 445.801C469.347 460.072 443.033 471.35 415.664 479.399L327.761 507.174L389.237 710.331L206.488 767L-0.000976562 102.875Z" fill="#F7F7F7"/>
</svg>
