<svg width="20" height="21" viewBox="0 0 20 21" fill="none" xmlns="http://www.w3.org/2000/svg">
<g clip-path="url(#clip0_1855:3968)">
<path d="M17.4896 12.3828V7.9895C17.4896 7.66591 17.2272 7.40356 16.9036 7.40356H11.8828C11.5592 7.40356 11.2969 7.66591 11.2969 7.9895V12.3828C11.2969 13.8897 12.3793 15.148 13.8073 15.4228V19.3281H12.5104C12.1868 19.3281 11.9245 19.5904 11.9245 19.914C11.9245 20.2376 12.1868 20.5 12.5104 20.5H16.2761C16.5996 20.5 16.862 20.2376 16.862 19.914C16.862 19.5904 16.5996 19.3281 16.2761 19.3281H14.9792V15.4228C16.4072 15.1481 17.4896 13.8897 17.4896 12.3828Z" fill="#C61D19"/>
<path d="M8.07684 1.08594C8.07684 0.762344 7.81449 0.5 7.4909 0.5H4.98047C4.65688 0.5 4.39453 0.762344 4.39453 1.08594V4.26562H8.07684V1.08594Z" fill="#C61D19"/>
<path d="M8.07684 7.47387V5.4375H4.39453V7.47375C3.3152 7.73723 2.51172 8.71243 2.51172 9.87177V19.9141C2.51172 20.2377 2.77406 20.5 3.09766 20.5H9.37371C9.6973 20.5 9.95965 20.2377 9.95965 19.9141V17.9896H5.60809C5.28449 17.9896 5.02215 17.7272 5.02215 17.4037V10.5C5.02215 10.1764 5.28449 9.91407 5.60809 9.91407H9.95965V9.87177C9.95965 8.71262 9.15633 7.7375 8.07684 7.47387Z" fill="#C61D19"/>
<path d="M6.19531 11.0859H9.96094V14.3073H6.19531V11.0859Z" fill="#C61D19"/>
<path d="M6.19531 15.4791H9.96094V16.8177H6.19531V15.4791Z" fill="#C61D19"/>
</g>
<defs>
<clipPath id="clip0_1855:3968">
<rect width="20" height="20" fill="white" transform="translate(0 0.5)"/>
</clipPath>
</defs>
</svg>
