<svg width="12" height="12" viewBox="0 0 12 12" fill="none" xmlns="http://www.w3.org/2000/svg">
<path d="M9.8401 4.99346L6.00009 8.9668L2.16009 4.99346C2.05578 4.88517 1.99875 4.73987 2.00156 4.58953C2.00438 4.43918 2.0668 4.29612 2.17509 4.1918C2.28339 4.08748 2.42869 4.03045 2.57903 4.03327C2.72938 4.03608 2.87244 4.0985 2.97676 4.2068L6.00009 7.3368L9.02676 4.2068C9.13108 4.0985 9.27415 4.03608 9.42449 4.03327C9.57483 4.03045 9.72013 4.08748 9.82843 4.1918C9.93673 4.29612 9.99915 4.43918 10.002 4.58953C10.0048 4.73987 9.94775 4.88517 9.84343 4.99346H9.8401Z" fill="#C61D19"/>
</svg>
