<svg width="12" height="18" viewBox="0 0 12 18" fill="none" xmlns="http://www.w3.org/2000/svg">
<path d="M9.8401 10.4935L6.00009 14.4668L2.16009 10.4935C2.05578 10.3852 1.99875 10.2399 2.00156 10.0895C2.00438 9.93918 2.0668 9.79612 2.17509 9.6918C2.28339 9.58748 2.42869 9.53045 2.57903 9.53327C2.72938 9.53608 2.87244 9.5985 2.97676 9.7068L6.00009 12.8368L9.02676 9.7068C9.13108 9.5985 9.27415 9.53608 9.42449 9.53327C9.57483 9.53045 9.72013 9.58748 9.82843 9.6918C9.93673 9.79612 9.99915 9.93918 10.002 10.0895C10.0048 10.2399 9.94775 10.3852 9.84343 10.4935H9.8401Z" fill="#C61D19"/>
</svg>
