<svg width="12" height="12" viewBox="0 0 12 12" fill="none" xmlns="http://www.w3.org/2000/svg">
<path d="M9.84013 4.49346L6.00013 8.4668L2.16013 4.49346C2.05581 4.38517 1.99878 4.23987 2.00159 4.08952C2.00441 3.93918 2.06683 3.79612 2.17513 3.6918C2.28342 3.58748 2.42872 3.53045 2.57907 3.53327C2.72941 3.53608 2.87247 3.5985 2.97679 3.7068L6.00013 6.8368L9.02679 3.7068C9.13111 3.5985 9.27418 3.53608 9.42452 3.53327C9.57486 3.53045 9.72016 3.58748 9.82846 3.6918C9.93676 3.79612 9.99918 3.93918 10.002 4.08952C10.0048 4.23987 9.94778 4.38517 9.84346 4.49346H9.84013Z" fill="#1F1F1F"/>
</svg>
