<svg width="36" height="36" viewBox="0 0 36 36" fill="none" xmlns="http://www.w3.org/2000/svg">
<g clip-path="url(#clip0)">
<path d="M29.269 29.8871L28.9404 29.7893L29.269 29.6915C30.0674 29.4535 30.7265 28.9188 31.122 28.1856C31.519 27.4525 31.6069 26.6087 31.3696 25.8111C31.1323 25.012 30.5977 24.3528 29.8652 23.9559C29.1299 23.5574 28.2832 23.471 27.4892 23.7098L18.0007 26.5339L8.51061 23.7099C7.71516 23.4733 6.87 23.559 6.1346 23.956C5.40215 24.3529 4.86749 25.0121 4.63018 25.8105C4.39288 26.6088 4.48077 27.4525 4.87775 28.1857C5.27326 28.9189 5.93245 29.4535 6.73078 29.6908L7.06055 29.789L6.73078 29.8871C5.3369 30.3018 4.45946 31.6106 4.51374 33.0003C4.51374 33.0027 4.51304 33.0049 4.51304 33.0073H4.51367C4.52408 33.2598 4.55488 33.5138 4.63025 33.7668C4.86756 34.5659 5.40222 35.2251 6.13467 35.622C6.59754 35.8725 7.10442 35.9992 7.61567 35.9992C7.91597 35.9992 8.21628 35.956 8.51068 35.8681L18.0004 33.0444L27.4893 35.8681C27.7838 35.956 28.0855 35.9999 28.3843 35.9999C28.8971 35.9999 29.4039 35.8717 29.8668 35.6213C30.5992 35.2243 31.1324 34.5659 31.3697 33.7675C31.4451 33.5142 31.4758 33.26 31.4863 33.0072H31.4869C31.4869 33.0048 31.4862 33.0026 31.4862 33.0002C31.5401 31.6104 30.6628 30.3018 29.269 29.8871ZM27.917 25.1469C28.3359 25.0253 28.771 25.0715 29.1504 25.2751C29.5312 25.4817 29.8081 25.823 29.9312 26.2382C30.0557 26.6528 30.0103 27.0915 29.8037 27.4724C29.5971 27.8525 29.2558 28.1301 28.8412 28.2531V28.2538L26.3114 29.0067L22.8989 27.9916L20.6297 27.3163L27.917 25.1469ZM7.72177 34.4651C7.4209 34.4845 7.1213 34.4493 6.84947 34.303C6.46858 34.0964 6.19176 33.7551 6.06871 33.3398C6.02688 33.1992 6.03426 33.0592 6.03089 32.919C6.07905 32.1353 6.71672 31.5073 7.51301 31.5073C8.34066 31.5073 9.013 32.1804 9.013 33.0073C9.01307 33.7603 8.44641 34.3592 7.72177 34.4651ZM10.3903 33.7445C10.4622 33.5239 10.5131 33.2857 10.5131 33.0073C10.5131 32.056 10.0595 31.2169 9.36681 30.667L9.68835 30.5713L15.3705 32.2624L10.3903 33.7445ZM25.4868 33.0073C25.4868 33.2857 25.5377 33.5237 25.6096 33.7444L7.15856 28.2531C6.744 28.1301 6.4027 27.8525 6.19612 27.4724C5.98954 27.0915 5.94419 26.6528 6.06864 26.2375C6.19169 25.8229 6.46851 25.4816 6.8494 25.275C7.23028 25.0714 7.66531 25.0253 8.08283 25.1468L26.6329 30.667C25.9403 31.217 25.4868 32.0559 25.4868 33.0073ZM29.9312 33.3406C29.8081 33.7551 29.5312 34.0964 29.1519 34.3022C28.8809 34.4498 28.5803 34.4847 28.2782 34.4651C27.5535 34.3592 26.9868 33.7603 26.9868 33.0073C26.9868 32.1804 27.6592 31.5073 28.4868 31.5073C29.2832 31.5073 29.921 32.1355 29.9691 32.9193C29.9657 33.0597 29.9731 33.1996 29.9312 33.3406Z" fill="white"/>
<path d="M17.9986 23.9998C22.9601 23.9998 26.9972 19.9334 26.9972 14.9346C26.9972 14.6827 26.9811 14.449 26.9635 14.2154L26.9474 13.9869C26.6735 10.4119 25.0343 8.18605 23.587 6.22165C22.2936 4.4653 21.1759 2.94914 21.1759 0.749686C21.1759 0.468434 21.0177 0.210597 20.7671 0.081713C20.5181 -0.0457643 20.2149 -0.0230533 19.9879 0.141057C17.5445 1.90254 16.0474 5.0373 15.5069 7.18697C15.1055 8.78955 15.022 10.5656 15.0044 11.8496C13.418 11.1772 12.9214 8.47757 12.9156 8.44677C12.8746 8.2146 12.7281 8.01463 12.5171 7.90768C12.3077 7.80221 12.0601 7.79708 11.8477 7.90184C11.7378 7.95528 9.1582 9.2759 9.01174 14.4161C9 14.5882 9 14.7618 9 14.9346C9 19.9334 13.0372 23.9998 17.9986 23.9998ZM10.5103 14.4864C10.5806 12.0298 11.234 10.6638 11.776 9.94823C12.274 11.3714 13.4092 13.4997 15.7501 13.4997C16.1647 13.4997 16.5001 13.1643 16.5001 12.7497C16.5001 11.1274 16.5353 9.25382 16.963 7.55239C17.3834 5.87803 18.3941 3.76794 19.8253 2.27161C20.2077 4.16274 21.2682 5.60339 22.3786 7.11146C23.7717 9.00112 25.2116 10.9553 25.4504 14.0922L25.4665 14.3265C25.4826 14.5243 25.4973 14.7214 25.4973 14.9345C25.4973 19.1056 22.134 22.4997 17.9987 22.4997C13.8634 22.4997 10.5001 19.1056 10.5001 14.9345C10.5001 14.794 10.5001 14.6541 10.5103 14.4864Z" fill="white"/>
</g>
<defs>
<clipPath id="clip0">
<rect width="36" height="36" fill="white"/>
</clipPath>
</defs>
</svg>
