<svg width="36" height="36" viewBox="0 0 36 36" fill="none" xmlns="http://www.w3.org/2000/svg">
<g clip-path="url(#clip0)">
<path d="M7.73666 18.6709L2.26813 13.2023C0.80742 11.7416 0.00292969 9.79955 0.00292969 7.73373C0.00292969 3.46937 3.4723 0 7.73666 0C12.0011 0 15.4704 3.46937 15.4704 7.73373C15.4704 9.79955 14.666 11.7416 13.2052 13.2023L7.73666 18.6709ZM7.73666 2.10912C4.63527 2.10912 2.11205 4.63234 2.11205 7.73373C2.11205 9.23613 2.69712 10.6486 3.75949 11.711L7.73666 15.6882L11.7139 11.711C12.7763 10.6486 13.3613 9.23613 13.3613 7.73373C13.3613 4.63234 10.8381 2.10912 7.73666 2.10912Z" fill="white"/>
<path d="M7.7358 11.2492C5.79745 11.2492 4.22046 9.67221 4.22046 7.73385C4.22046 5.7955 5.79745 4.21851 7.7358 4.21851C9.67416 4.21851 11.2512 5.7955 11.2512 7.73385C11.2512 9.67221 9.67416 11.2492 7.7358 11.2492ZM7.7358 6.32763C6.96042 6.32763 6.32958 6.95847 6.32958 7.73385C6.32958 8.50924 6.96042 9.14008 7.7358 9.14008C8.51119 9.14008 9.14203 8.50924 9.14203 7.73385C9.14203 6.95847 8.51119 6.32763 7.7358 6.32763Z" fill="white"/>
<path d="M30.3734 36L26.3961 32.0229C25.3339 30.9605 24.7488 29.548 24.7488 28.0456C24.7488 24.9442 27.272 22.421 30.3734 22.421C33.4748 22.421 35.998 24.9442 35.998 28.0456C35.998 29.548 35.413 30.9604 34.3506 32.0229L30.3734 36ZM27.8875 30.5314L30.3734 33.0173L32.8592 30.5314C33.5232 29.8674 33.8889 28.9845 33.8889 28.0456C33.8889 26.1071 32.3118 24.5301 30.3734 24.5301C28.435 24.5301 26.8579 26.1071 26.8579 28.0456C26.8579 28.9846 27.2236 29.8675 27.8875 30.5314Z" fill="white"/>
<path d="M25.2414 35.9957H13.4688C9.7262 35.9957 6.6814 32.9509 6.6814 29.2083C6.6814 25.4657 9.7262 22.4209 13.4688 22.4209H17.3822C18.5365 22.4209 19.4755 21.4818 19.4755 20.3275C19.4755 19.1732 18.5365 18.2341 17.3822 18.2341H13.2903V16.125H17.3822C19.6995 16.125 21.5847 18.0102 21.5847 20.3275C21.5847 22.6448 19.6995 24.53 17.3822 24.53H13.4688C10.8892 24.53 8.79052 26.6286 8.79052 29.2082C8.79052 31.7878 10.8891 33.8866 13.4688 33.8866H25.2415V35.9957H25.2414Z" fill="white"/>
</g>
<defs>
<clipPath id="clip0">
<rect width="36" height="36" fill="white"/>
</clipPath>
</defs>
</svg>
