<svg width="36" height="36" viewBox="0 0 36 36" fill="none" xmlns="http://www.w3.org/2000/svg">
<g clip-path="url(#clip0)">
<path d="M31.9579 4.1027C29.3513 1.49616 25.8858 0.0606689 22.1996 0.0606689C18.5133 0.0606689 15.0477 1.49616 12.4413 4.1027C6.74234 9.80155 2.9357 15.4174 1.12723 20.7944C-0.340104 25.1567 -0.0274429 28.0339 0.175116 29.0685C0.559281 31.0307 1.00792 32.2805 2.39405 33.6666C3.86054 35.1332 5.81047 35.9409 7.8845 35.9409C9.95853 35.9409 11.9084 35.1332 13.375 33.6666C18.7775 28.2642 21.3663 27.9716 23.8701 27.6886C26.0975 27.4368 28.4007 27.1765 31.9579 23.6193C34.5644 21.0128 35.9999 17.5472 35.9999 13.861C35.9999 10.1748 34.5644 6.70924 31.9579 4.1027ZM23.6332 25.5927C20.9025 25.9013 17.8075 26.2511 11.8834 32.1752C9.67835 34.3802 6.09051 34.3802 3.88543 32.1752C2.94421 31.2339 2.60694 30.5119 2.24506 28.6633C2.11218 27.9847 1.78321 25.4603 3.12638 21.4668C4.83016 16.4012 8.46595 11.0608 13.9326 5.59415C16.1407 3.38598 19.0767 2.16992 22.1995 2.16992C25.3222 2.16992 28.2582 3.38598 30.4664 5.59415C32.6745 7.80233 33.8906 10.7382 33.8906 13.861C33.8906 16.9838 32.6745 19.9197 30.4664 22.1279C27.4309 25.1634 25.7549 25.3529 23.6332 25.5927Z" fill="white"/>
<path d="M23.6051 9.21436C22.4381 9.21436 21.341 9.66883 20.5159 10.494C18.8124 12.1975 18.8124 14.9691 20.5159 16.6725C21.341 17.4977 22.4382 17.9521 23.6051 17.9521C24.7721 17.9521 25.8691 17.4977 26.6943 16.6725C27.5194 15.8473 27.9739 14.7502 27.9739 13.5832C27.9739 12.4163 27.5194 11.3192 26.6943 10.494C25.8692 9.66883 24.772 9.21436 23.6051 9.21436ZM25.2028 15.181C25.2028 15.1811 25.2028 15.1811 25.2028 15.181C24.776 15.6078 24.2086 15.8429 23.605 15.8429C23.0015 15.8429 22.434 15.6079 22.0072 15.1811C21.1262 14.3 21.1262 12.8665 22.0072 11.9855C22.4339 11.5587 23.0015 11.3236 23.605 11.3236C24.2086 11.3236 24.776 11.5586 25.2028 11.9855C25.6296 12.4123 25.8646 12.9797 25.8646 13.5832C25.8646 14.1868 25.6297 14.7543 25.2028 15.181Z" fill="white"/>
</g>
<defs>
<clipPath id="clip0">
<rect width="35.9999" height="35.9999" fill="white"/>
</clipPath>
</defs>
</svg>
