<svg xmlns="http://www.w3.org/2000/svg" viewBox="0 0 75.76 83.19"><defs><style>.cls-1{fill:#ad241c;}</style></defs><g id="Layer_2" data-name="Layer 2"><g id="Layer_1-2" data-name="Layer 1"><path class="cls-1" d="M71.3,4.45H67.92A2.93,2.93,0,0,0,68.33,3a3,3,0,0,0-3-3H46.05a2.94,2.94,0,0,0-2.56,1.49A3,3,0,0,0,43.08,3a2.93,2.93,0,0,0,.41,1.48H32.27A2.93,2.93,0,0,0,32.68,3a3,3,0,0,0-3-3H10.4A3,3,0,0,0,7.84,1.49,3,3,0,0,0,7.43,3a2.93,2.93,0,0,0,.41,1.48H4.45A4.47,4.47,0,0,0,0,8.91v10.4H75.76V8.91A4.47,4.47,0,0,0,71.3,4.45Zm-57.18,11a3,3,0,1,1,3-3,3,3,0,0,1-3,3Zm11.14,0a3,3,0,1,1,3-3,3,3,0,0,1-3,3Zm12.61,0a3,3,0,1,1,3-3,3,3,0,0,1-3,3Zm11.89,0a3,3,0,1,1,3-3,3,3,0,0,1-3,3Zm11.88,0a3,3,0,1,1,3-3,3,3,0,0,1-3,3Z"/><path class="cls-1" d="M0,78.72a4.47,4.47,0,0,0,4.45,4.47H71.3a4.47,4.47,0,0,0,4.46-4.47V22.28H0Zm11.88-52H62.39a1.49,1.49,0,0,1,0,3H11.88a1.49,1.49,0,0,1,0-3Zm-3,11.89a4.46,4.46,0,0,1,4.46-4.46h49a4.46,4.46,0,0,1,4.45,4.46v31.2a4.46,4.46,0,0,1-4.45,4.45h-49a4.46,4.46,0,0,1-4.46-4.45Z"/><path class="cls-1" d="M27.8,37.14,11.88,48.26v5.13L35.14,37.14Z"/><path class="cls-1" d="M62.39,71.3h1.48V37.14H41.75L11.88,58V71.3H62.39Z"/></g></g></svg>