<svg width="32" height="32" viewBox="0 0 32 32" fill="none" xmlns="http://www.w3.org/2000/svg">
<g clip-path="url(#clip0)">
<path d="M16.0009 4.48877C10.3146 4.48877 5.68848 9.1429 5.68848 14.8636C5.68848 20.5499 10.3145 25.176 16.0009 25.176C21.6871 25.176 26.3132 20.5499 26.3132 14.8636C26.3132 9.1429 21.6871 4.48877 16.0009 4.48877ZM16.0009 23.3011C11.3485 23.3011 7.56345 19.516 7.56345 14.8636C7.56345 10.1768 11.3484 6.36375 16.0009 6.36375C20.6532 6.36375 24.4383 10.1768 24.4383 14.8636C24.4383 19.516 20.6532 23.3011 16.0009 23.3011Z" fill="#C61D19"/>
<path d="M31.721 25.0274L28.8215 22.1748C29.2942 21.3162 29.4159 20.3257 29.1614 19.3759C28.9854 18.7208 29.1743 18.0158 29.6539 17.5362C30.3678 16.8223 30.7609 15.8732 30.7609 14.8637C30.7609 13.8542 30.3677 12.9051 29.6539 12.1913C29.181 11.7183 28.9829 10.9539 29.161 10.2891C29.7004 8.27613 28.5015 6.19959 26.4885 5.66016C25.8334 5.4846 25.3174 4.96861 25.1418 4.31343C24.8805 3.33831 24.2551 2.52326 23.3808 2.01852C22.5066 1.51377 21.4881 1.37971 20.5129 1.64102C19.8781 1.81108 19.1732 1.60615 18.6732 1.10615C17.1996 -0.367457 14.8019 -0.367394 13.3282 1.10621C12.8283 1.60621 12.1234 1.81108 11.4886 1.64102C10.5135 1.37971 9.49504 1.51377 8.62068 2.01858C7.74644 2.52332 7.12101 3.33838 6.8597 4.31355C6.68414 4.96861 6.16814 5.48466 5.51296 5.66022C3.49999 6.19959 2.30112 8.27613 2.84056 10.2892C3.01868 10.9539 2.82062 11.7183 2.34762 12.1913C1.63376 12.9052 1.24064 13.8543 1.24064 14.8638C1.24064 15.8734 1.63382 16.8225 2.34762 17.5363C2.82724 18.0159 3.01612 18.7208 2.84056 19.3759C2.57818 20.355 2.72799 21.3486 3.18174 22.1736L0.281023 25.0273C0.0479009 25.2567 -0.0489104 25.591 0.0257137 25.9094C0.100338 26.2279 0.33546 26.4844 0.646206 26.5864L4.2356 27.7643L5.41359 31.3537C5.51546 31.6643 5.77177 31.8993 6.08996 31.974C6.40676 32.0485 6.74132 31.9534 6.97176 31.7197L10.4904 28.1527C10.4975 28.1528 10.5044 28.1531 10.5115 28.1531C10.8343 28.1531 11.1625 28.1114 11.4888 28.024C12.1438 27.8484 12.8488 28.0373 13.3285 28.517C14.0653 29.2538 15.0331 29.6221 16.001 29.6221C16.9688 29.6221 17.9368 29.2537 18.6736 28.5169C19.1532 28.0373 19.858 27.8485 20.5133 28.024C20.8466 28.1133 21.1815 28.154 21.511 28.1522L25.0302 31.7198C25.2598 31.9525 25.5939 32.0488 25.912 31.9741C26.2302 31.8994 26.4865 31.6643 26.5884 31.3538L27.7664 27.7644L31.3558 26.5865C31.6665 26.4845 31.9017 26.2279 31.9763 25.9095C32.0508 25.5911 31.9541 25.2567 31.721 25.0274ZM6.71582 29.3091L5.86915 26.7291C5.77621 26.4458 5.55402 26.2237 5.27072 26.1307L2.69287 25.2847L4.46297 23.5433C4.77966 23.745 5.13165 23.9026 5.51309 24.0048C6.1682 24.1804 6.6842 24.6964 6.85976 25.3516C7.11151 26.2912 7.69837 27.053 8.45718 27.5438L6.71582 29.3091ZM21.9428 26.2229C21.7996 26.2079 21.6537 26.2264 21.517 26.2772C21.3458 26.2795 21.1717 26.2592 20.9983 26.2128C19.6982 25.8645 18.2993 26.2394 17.3476 27.1911C16.6051 27.9337 15.3968 27.9337 14.6542 27.191C13.9376 26.4744 12.9674 26.0849 11.9768 26.0849C11.6518 26.0849 11.3246 26.1269 11.0035 26.2129C9.98897 26.4847 8.94273 25.8805 8.67093 24.8662C8.32262 23.5662 7.29857 22.5422 5.99839 22.1938C5.50702 22.0621 5.09634 21.747 4.84203 21.3064C4.58772 20.8659 4.52016 20.3526 4.65178 19.8612C5.00016 18.5611 4.62535 17.1623 3.67361 16.2105C3.31393 15.8508 3.1158 15.3725 3.1158 14.8638C3.11562 14.355 3.31374 13.8768 3.67355 13.517C4.61885 12.5716 5.00284 11.1141 4.65166 9.8038C4.37985 8.78944 4.98397 7.74307 5.99839 7.47126C7.29844 7.12289 8.32249 6.09884 8.67086 4.79873C8.80255 4.30736 9.11767 3.89668 9.55823 3.64237C9.99879 3.388 10.512 3.32044 11.0034 3.45212C12.283 3.79506 13.682 3.40419 14.6542 2.43201C15.3968 1.68952 16.605 1.68946 17.3476 2.43201C18.3197 3.40419 19.7187 3.79499 20.9983 3.45212C21.4898 3.32044 22.003 3.388 22.4435 3.64237C22.8841 3.89674 23.1992 4.30743 23.3309 4.79886C23.6792 6.09891 24.7032 7.12289 26.0034 7.47133C27.0177 7.74314 27.6218 8.7895 27.35 9.80386C26.9989 11.1142 27.3828 12.5717 28.3282 13.5171C28.6879 13.8768 28.886 14.3551 28.886 14.8638C28.886 15.3725 28.6879 15.8508 28.3281 16.2105C27.3764 17.1622 27.0016 18.5611 27.35 19.8612C27.6218 20.8755 27.0177 21.9219 26.0033 22.1938C24.7032 22.5422 23.6792 23.5662 23.3309 24.8662C23.1448 25.5605 22.5959 26.0624 21.9428 26.2229ZM26.7309 26.1307C26.4476 26.2237 26.2255 26.4458 26.1325 26.7291L25.2858 29.3091L23.5446 27.544C24.3034 27.0531 24.8901 26.291 25.1419 25.3515C25.3175 24.6964 25.8335 24.1804 26.4887 24.0049C26.866 23.9038 27.2188 23.7476 27.5395 23.5442L29.3087 25.2848L26.7309 26.1307Z" fill="#C61D19"/>
<path d="M21.5634 13.5253C21.453 13.1859 21.1597 12.9385 20.8066 12.8872L18.0668 12.4891L16.8416 10.0064C16.6837 9.68645 16.3577 9.48389 16.0009 9.48389C15.6441 9.48389 15.3182 9.68645 15.1602 10.0064L13.935 12.4891L11.1953 12.8872C10.8422 12.9385 10.5487 13.1859 10.4385 13.5253C10.3282 13.8646 10.4202 14.2372 10.6757 14.4863L12.658 16.4187L12.19 19.1474C12.1297 19.4991 12.2743 19.8546 12.5629 20.0644C12.8517 20.2741 13.2344 20.3018 13.5502 20.1357L16.0008 18.8475L18.4513 20.1357C18.7678 20.3022 19.1506 20.2737 19.4386 20.0644C19.7273 19.8546 19.8719 19.4992 19.8116 19.1474L19.3436 16.4187L21.3261 14.4863C21.5816 14.2372 21.6736 13.8646 21.5634 13.5253ZM17.6819 15.4202C17.461 15.6356 17.3601 15.9459 17.4123 16.25L17.6425 17.5923L16.4371 16.9585C16.3005 16.8867 16.1507 16.8509 16.0008 16.8509C15.851 16.8509 15.7012 16.8867 15.5646 16.9585L14.3592 17.5923L14.5894 16.25C14.6416 15.9459 14.5407 15.6356 14.3198 15.4202L13.3446 14.4696L14.6922 14.2737C14.9975 14.2293 15.2615 14.0376 15.398 13.7608L16.0008 12.5396L16.6035 13.7608C16.7401 14.0375 17.0041 14.2293 17.3094 14.2737L18.6571 14.4696L17.6819 15.4202Z" fill="#C61D19"/>
</g>
<defs>
<clipPath id="clip0">
<rect width="32" height="32" fill="white" transform="translate(0.000976562)"/>
</clipPath>
</defs>
</svg>
