<svg xmlns="http://www.w3.org/2000/svg" viewBox="0 0 75.76 88.51"><defs><style>.cls-1{fill:#ad241c;}</style></defs><g id="Layer_2" data-name="Layer 2"><g id="Layer_1-2" data-name="Layer 1"><path class="cls-1" d="M50.38,81.8A22.09,22.09,0,0,0,44,83.15C41,84,38.18,85.06,35.2,85.71a18.69,18.69,0,0,1-4.9.08c-4.28-.19-8.53-.64-12.82-.65-2.2,0-4.23.82-6.33,1.34-2.41.6-4.81,1.26-7.21,1.9A1.85,1.85,0,0,1,2,88a1.8,1.8,0,0,1-.32-2c.9-3,1.94-5.95,2.63-9a18.65,18.65,0,0,0,.09-5.17c-.11-2.16-.18-4.34-.5-6.48A15.76,15.76,0,0,1,5.36,56.8c.7-1.7,1.3-3.45,1.95-5.18a12.93,12.93,0,0,0,.07-9.11C6.18,39.15,5,35.79,3.76,32.43a9.55,9.55,0,0,1-.59-3.27c0-4,.12-8.09.37-12.13.2-3.34-.85-6.41-1.84-9.5C1.18,5.88.67,4.23.14,2.59a1.82,1.82,0,0,1,.39-2A1.85,1.85,0,0,1,2.65.29C5,1.2,7.29,2.4,9.82,2.89a20,20,0,0,0,4.1.23c3.3,0,6.62-.72,9.89.1a32.9,32.9,0,0,1,6.28,2.71,13.4,13.4,0,0,0,11.55.35c1.59-.68,3.18-1.37,4.72-2.14A14.56,14.56,0,0,1,53.81,2.9a56.71,56.71,0,0,0,9,.12,17.16,17.16,0,0,0,4-1.13L71.33.21a1.83,1.83,0,0,1,2.06.22,1.86,1.86,0,0,1,.34,2,74,74,0,0,0-2,7.36,19.56,19.56,0,0,0,.12,5.07c.27,2.56.67,5.11.82,7.68a10.73,10.73,0,0,1-.8,4.55C71.11,29.07,70.43,31,69.7,33a13.83,13.83,0,0,0-.13,9.37c1.3,4.09,2.63,8.19,3.68,12.36a4.25,4.25,0,0,1,.11,1.13Q73.19,61.9,72.67,68A26.22,26.22,0,0,0,73.92,78.5c.63,1.94,1.11,3.94,1.68,5.91a1.86,1.86,0,0,1-.42,2.17,1.89,1.89,0,0,1-2.22,0,14.31,14.31,0,0,0-8.58-1.1,9.44,9.44,0,0,1-6.55-1.42A14.12,14.12,0,0,0,50.38,81.8ZM45.14,59.43c.27,1.35.51,2.55.74,3.75.55,2.81,1.07,5.63,1.63,8.44a1.53,1.53,0,1,0,3-.63c-.31-1.54-.62-3.09-.92-4.64-.54-2.81-1.08-5.62-1.64-8.48A46.71,46.71,0,0,0,54,53.39c.37.22.7.4,1,.6l9,5.67c1,.63,1.9.53,2.4-.24a1.62,1.62,0,0,0-.76-2.29c-1.56-1-3.13-2-4.7-2.94l-4.57-2.91a3.47,3.47,0,0,1,.91-1.18c4-4.57,7.09-9.55,7.62-15.78.14-1.64.27-3.3-1-4.62a1.31,1.31,0,0,1-.29-.81A19.93,19.93,0,0,0,61.21,22a24.47,24.47,0,0,0-3-4.16,1.56,1.56,0,0,1,.57-.77l6.59-6.6a10.32,10.32,0,0,0,.91-1,1.55,1.55,0,0,0-.1-1.94,1.49,1.49,0,0,0-1.93-.18,4.92,4.92,0,0,0-.72.65L56.65,15c-.24.24-.44.56-.85.63-.11-.07-.25-.13-.36-.21A21.46,21.46,0,0,0,28,16.61a4.54,4.54,0,0,1-1.18.91A9.74,9.74,0,0,0,23,20.86c-.16.24-.25.54-.66.64-.2-.19-.44-.4-.67-.63l-6.7-6.61c-.47-.45-1-.88-1.7-.66a1.5,1.5,0,0,0-.54,2.69c2.47,2.46,5,4.91,7.44,7.36a2.31,2.31,0,0,1,.74.91,39.94,39.94,0,0,0-3.22,13.2,30.79,30.79,0,0,0,1.51,12.55,17.84,17.84,0,0,1,.6,8.23,2.36,2.36,0,0,1-.64,1.8,8.83,8.83,0,0,0-6.9,1.11,8.21,8.21,0,0,0-1.78,12.1,8.24,8.24,0,0,0,6.74,3c2.16,3.36,5,5,9,4.27A8.23,8.23,0,0,0,31.5,68.39a22.49,22.49,0,0,1-1.75-2.58c.27-.14.52.26,1,0a18.29,18.29,0,0,1,9.14-4.45A23.72,23.72,0,0,0,45.14,59.43ZM66.69,78.79a22.18,22.18,0,0,1-3.23.34c-1.09.21-1.77.76-1.71,1.61s.79,1.38,1.92,1.35A25.84,25.84,0,0,1,68.49,82a1.48,1.48,0,0,0,1.63-2c-.32-1.27-.68-2.54-1-3.8s-1-1.59-2-1.29c-.79.25-1.13,1.08-.86,2.12C66.35,77.61,66.51,78.14,66.69,78.79Z"/><path class="cls-1" d="M34.37,59.12c-5.58,0-9.35-2.76-11.64-7.7A25.11,25.11,0,0,1,20.58,42a35.91,35.91,0,0,1,2.65-15.37,22.26,22.26,0,0,1,2.39-4.29A5.68,5.68,0,0,1,29,20a3,3,0,0,1,2.58.52,14.52,14.52,0,0,1,3.54,3.75,29,29,0,0,0,3.14,4,12.52,12.52,0,0,0,8.28,3.78,65.73,65.73,0,0,0,14-.32c1.21-.14,1.39.09,1.42,1.33.09,4.28-1.68,7.92-4,11.31A35.8,35.8,0,0,1,40.74,58,17.31,17.31,0,0,1,34.37,59.12ZM28,34.42a1.53,1.53,0,0,0-3.05,0,1.53,1.53,0,0,0,3.05,0Zm3.29,6.29a1.46,1.46,0,1,0-1.44-1.5A1.38,1.38,0,0,0,31.29,40.71Zm-4.77,5.14A1.5,1.5,0,0,0,25,47.29a1.53,1.53,0,0,0,3.05,0A1.49,1.49,0,0,0,26.52,45.85Zm7.85-.15a1.51,1.51,0,0,0-1.47-1.53,1.52,1.52,0,0,0-1.45,1.46,1.49,1.49,0,0,0,1.42,1.57A1.51,1.51,0,0,0,34.37,45.7Zm3.28,6.47a1.53,1.53,0,0,0-1.5-1.52,1.5,1.5,0,0,0-1.52,1.48,1.45,1.45,0,0,0,1.44,1.46A1.5,1.5,0,0,0,37.65,52.17Zm-9.38,1.56a1.48,1.48,0,0,0,1.38,1.53,1.51,1.51,0,1,0,0-3A1.42,1.42,0,0,0,28.27,53.73ZM24.89,42.29a1.39,1.39,0,0,0,1.45-1.42,1.49,1.49,0,0,0-3,0A1.45,1.45,0,0,0,24.89,42.29Z"/><path class="cls-1" d="M32.23,17.12a18.36,18.36,0,0,1,17.05-1.78c5.94,2.24,10.43,8.08,11.09,13.4-1.19.11-2.37.24-3.56.34a41.39,41.39,0,0,1-11.55-.29,9.29,9.29,0,0,1-5.68-3.57c-.79-1-1.51-2.09-2.26-3.14a15.44,15.44,0,0,0-4.68-4.46A.62.62,0,0,1,32.23,17.12Z"/><path class="cls-1" d="M20.37,75.74c.47-.32.91-.6,1.32-.92a7.91,7.91,0,0,0,3.16-5.19c.16-1.07-.27-1.75-1.1-1.9s-1.57.31-1.82,1.42a5.35,5.35,0,0,1-5,4.38,5.21,5.21,0,1,1,.72-10.34c2.7.44,4.35-.48,4.87-2.74.12-.54.16-1.1.25-1.65s.15-.85.27-1.52a14.52,14.52,0,0,0,7.9,4.53c-.85.7-1.51,1.22-2.16,1.76a3.59,3.59,0,0,0-.43,5.6,5.22,5.22,0,0,1-2.39,8.65A5,5,0,0,1,20.37,75.74Z"/></g></g></svg>