<svg width="20" height="21" viewBox="0 0 20 21" fill="none" xmlns="http://www.w3.org/2000/svg">
<g clip-path="url(#clip0_1855:3958)">
<path d="M6.33631 12.9812C6.25133 12.9883 6.16656 12.992 6.08158 12.992C5.8491 12.992 5.623 12.9582 5.40159 12.907L0.278441 18.0303C0.0269779 18.2814 0.0269779 18.6893 0.278441 18.9404L1.60436 20.2666C1.85583 20.5178 2.26324 20.5178 2.51401 20.2666L8.67135 14.1105L7.53025 12.8793L6.33631 12.9812Z" fill="#C61D19"/>
<path d="M19.8189 4.77334C19.5785 4.53302 19.1894 4.53302 18.949 4.77334L15.6289 8.09329C15.3148 8.4071 14.8059 8.4071 14.4918 8.09329C14.179 7.77971 14.179 7.27127 14.4918 6.95778L17.7954 3.65486C18.045 3.40503 18.045 3.00003 17.7954 2.74963C17.5446 2.50012 17.1398 2.50012 16.8902 2.74963L13.5879 6.05222C13.2738 6.36636 12.7655 6.36636 12.4514 6.05222C12.1379 5.73877 12.1379 5.22996 12.4514 4.91675L15.7707 1.59713C16.0118 1.35645 16.0118 0.966596 15.7707 0.725587C15.5303 0.484863 15.1405 0.484863 14.8994 0.725587L11.1646 4.4605C10.2667 5.359 9.98307 6.6202 10.2738 7.76779L12.7774 10.2716C13.9249 10.5612 15.1867 10.2774 16.0836 9.37968L19.8189 5.64497C20.06 5.40428 20.06 5.01402 19.8189 4.77334Z" fill="#C61D19"/>
<path d="M1.67803 1.06308C1.55005 0.935064 1.37699 0.864868 1.19927 0.864868C1.16146 0.864868 1.12344 0.868094 1.08632 0.874301C0.8701 0.910889 0.684585 1.04969 0.589276 1.24725C-0.504701 3.50842 -0.0475091 6.21408 1.72833 7.99001L4.90536 11.1666C5.21881 11.4804 5.64264 11.6542 6.08219 11.6542C6.12919 11.6542 6.17631 11.6522 6.22331 11.6483L8.06788 11.4909L16.1112 20.1679C16.2361 20.3028 16.4111 20.3811 16.5953 20.3848C16.5991 20.3848 16.6031 20.3848 16.6071 20.3848C16.7873 20.3848 16.9598 20.3136 17.0878 20.1865L18.4653 18.8087C18.5926 18.6817 18.6637 18.5093 18.6637 18.3297C18.6637 18.1501 18.5926 17.9776 18.4658 17.8506L1.67803 1.06308Z" fill="#C61D19"/>
</g>
<defs>
<clipPath id="clip0_1855:3958">
<rect width="20" height="20" fill="white" transform="translate(0 0.5)"/>
</clipPath>
</defs>
</svg>
