<svg xmlns="http://www.w3.org/2000/svg" viewBox="0 0 75.76 75.8"><defs><style>.cls-1{fill:#ad241c;}</style></defs><g id="Layer_2" data-name="Layer 2"><g id="Layer_1-2" data-name="Layer 1"><path class="cls-1" d="M15.77,37.92a8.94,8.94,0,0,1-.72-6.76H6.59a8.87,8.87,0,0,1-1,7.24l-.17.27a9.28,9.28,0,0,0-.52,8.81L6.16,50.1h4A43.19,43.19,0,0,1,9.38,42a4.06,4.06,0,0,1,4.06-4.09Z"/><path class="cls-1" d="M46,26.42a2,2,0,0,0-2-2H31.79a2,2,0,0,0,0,4.06H44a2,2,0,0,0,2-2Z"/><path class="cls-1" d="M13.54,7.08a4.06,4.06,0,1,0-5.43,0,15.48,15.48,0,0,1,5.43,0Z"/><path class="cls-1" d="M42.82,37.92a8.94,8.94,0,0,1-.71-6.76H33.65a8.89,8.89,0,0,1-.71,6.76Z"/><path class="cls-1" d="M40.71,9.83a12.83,12.83,0,0,0-5.65,0c-3.92.88-6.65,3.53-6.65,6.45a6.41,6.41,0,0,0,3.86,5.41H43.5a6.42,6.42,0,0,0,3.85-5.41c0-2.92-2.73-5.57-6.64-6.45Z"/><path class="cls-1" d="M67.63,37.92l7.53-15.33a5.88,5.88,0,0,0-2.33-7.67l-.09-.05A5.88,5.88,0,0,0,65,16.73L50.81,37.92Z"/><path class="cls-1" d="M33.82,4.1a4,4,0,0,0,1.35,3,15.48,15.48,0,0,1,5.43,0,4,4,0,1,0-6.78-3Z"/><path class="cls-1" d="M5.21,21.69H16.44a6.4,6.4,0,0,0,3.85-5.41c0-2.92-2.73-5.57-6.64-6.45A12.78,12.78,0,0,0,8,9.83c-3.93.88-6.66,3.53-6.66,6.45a6.43,6.43,0,0,0,3.86,5.41Z"/><path class="cls-1" d="M4.47,53.19a1.35,1.35,0,0,0,.94,2.32h6.34a27.74,27.74,0,0,1-.9-2.71H5.41a1.33,1.33,0,0,0-.94.39Z"/><path class="cls-1" d="M75.36,41a1.4,1.4,0,0,0-1-.4H13.45A1.37,1.37,0,0,0,12.09,42,34.44,34.44,0,0,0,15,56.27l.06.12a18.21,18.21,0,0,0,3.46,4.93,34.17,34.17,0,0,1,5.69,7.36h0a24.88,24.88,0,0,1,2,4.43,4,4,0,0,0,3.82,2.68h27.7a4,4,0,0,0,3.82-2.68,30.51,30.51,0,0,1,7.72-11.8c5.54-5.54,6.42-14.49,6.45-19.33a1.39,1.39,0,0,0-.4-1ZM18.94,46h-2.7a1.36,1.36,0,1,1,0-2.71h2.7a1.36,1.36,0,0,1,0,2.71Zm52.77,0H24.35a1.36,1.36,0,0,1,0-2.71H71.71a1.36,1.36,0,0,1,0,2.71Z"/><path class="cls-1" d="M21.65,69.59a32.67,32.67,0,0,0-4.64-6H2.71A2.7,2.7,0,0,0,0,66.33V75.8H21.65Z"/><path class="cls-1" d="M2.71,60.92h12A22.11,22.11,0,0,1,13,58.22H2.71a1.22,1.22,0,0,0-.94.39,1.29,1.29,0,0,0-.42,1,1.35,1.35,0,0,0,1.36,1.35Z"/><path class="cls-1" d="M16.91,28.45a2,2,0,0,0,0-4.06H4.74a2,2,0,0,0,0,4.06Z"/></g></g></svg>