<svg width="32" height="32" viewBox="0 0 32 32" fill="none" xmlns="http://www.w3.org/2000/svg">
<g clip-path="url(#clip0)">
<path d="M8.49658 20.7483V8.38818C8.49658 7.87036 8.0769 7.45068 7.55908 7.45068C7.0415 7.45068 6.62158 7.87036 6.62158 8.38818V20.7483C4.97363 21.1672 3.75098 22.6633 3.75098 24.4402C3.75098 26.5403 5.45923 28.2488 7.55908 28.2488C9.65894 28.2488 11.3674 26.5403 11.3674 24.4402C11.3674 22.6633 10.1445 21.1672 8.49658 20.7483ZM7.55908 26.3738C6.49316 26.3738 5.62598 25.5063 5.62598 24.4402C5.62598 23.3738 6.49316 22.5063 7.55908 22.5063C8.62524 22.5063 9.49243 23.3738 9.49243 24.4402C9.49243 25.5063 8.62524 26.3738 7.55908 26.3738Z" fill="#C61D19"/>
<path d="M12.2119 18.4829V4.65332C12.2119 2.0874 10.1248 0 7.55908 0C4.99365 0 2.90649 2.0874 2.90649 4.65332V18.4829C1.07837 19.9119 0.000976562 22.103 0.000976562 24.4404C0.000976562 28.6089 3.3916 32 7.55908 32C11.7268 32 15.1174 28.6089 15.1174 24.4404C15.1174 22.103 14.04 19.9119 12.2119 18.4829ZM7.55908 30.125C4.42529 30.125 1.87598 27.575 1.87598 24.4404C1.87598 22.5549 2.80859 20.7957 4.37085 19.7344C4.62769 19.5598 4.78149 19.2693 4.78149 18.9587V4.65332C4.78149 3.12134 6.02759 1.875 7.55908 1.875C9.09082 1.875 10.3369 3.12134 10.3369 4.65332V18.9587C10.3369 19.2693 10.4907 19.5598 10.7476 19.7344C12.3098 20.7957 13.2424 22.5549 13.2424 24.4404C13.2424 27.575 10.6929 30.125 7.55908 30.125Z" fill="#C61D19"/>
<path d="M17.927 14.9688H15.0215C14.5037 14.9688 14.084 15.3884 14.084 15.9062C14.084 16.4241 14.5037 16.8438 15.0215 16.8438H17.927C18.4446 16.8438 18.8645 16.4241 18.8645 15.9062C18.8645 15.3884 18.4446 14.9688 17.927 14.9688Z" fill="#C61D19"/>
<path d="M17.927 11.2163H15.0215C14.5037 11.2163 14.084 11.636 14.084 12.1538C14.084 12.6716 14.5037 13.0913 15.0215 13.0913H17.927C18.4446 13.0913 18.8645 12.6716 18.8645 12.1538C18.8645 11.636 18.4446 11.2163 17.927 11.2163Z" fill="#C61D19"/>
<path d="M17.927 7.46606H15.0215C14.5037 7.46606 14.084 7.88574 14.084 8.40356C14.084 8.92139 14.5037 9.34106 15.0215 9.34106H17.927C18.4446 9.34106 18.8645 8.92139 18.8645 8.40356C18.8645 7.88574 18.4446 7.46606 17.927 7.46606Z" fill="#C61D19"/>
<path d="M15.0215 5.59106H17.927C18.4446 5.59106 18.8645 5.17139 18.8645 4.65356C18.8645 4.13599 18.4446 3.71606 17.927 3.71606H15.0215C14.5037 3.71606 14.084 4.13599 14.084 4.65356C14.084 5.17139 14.5037 5.59106 15.0215 5.59106Z" fill="#C61D19"/>
</g>
<defs>
<clipPath id="clip0">
<rect width="32" height="32" fill="white" transform="translate(0.000976562)"/>
</clipPath>
</defs>
</svg>
