<svg width="32" height="32" viewBox="0 0 32 32" fill="none" xmlns="http://www.w3.org/2000/svg">
<g clip-path="url(#clip0)">
<path d="M19.2329 29.2174C18.969 29.2832 18.7 29.3416 18.433 29.3907C17.7349 29.5205 17.2734 30.1919 17.4025 30.8906C17.4663 31.2343 17.6615 31.5206 17.9265 31.7075C18.1997 31.8998 18.5473 31.9866 18.9016 31.9207C19.2196 31.8617 19.5401 31.7923 19.8546 31.7138C20.5439 31.5422 20.9638 30.8439 20.7919 30.1549C20.6203 29.4653 19.9226 29.0457 19.2329 29.2174Z" fill="#C61D19"/>
<path d="M28.7464 11.9746C28.8365 12.2462 29.0085 12.4679 29.2258 12.6211C29.548 12.848 29.9696 12.9244 30.372 12.7913C31.0465 12.5673 31.412 11.84 31.1888 11.1658C31.0872 10.8585 30.9744 10.5501 30.8542 10.25C30.5903 9.59028 29.842 9.26911 29.182 9.53298C28.5227 9.79672 28.2014 10.5452 28.4655 11.2051C28.5664 11.4574 28.661 11.7164 28.7464 11.9746Z" fill="#C61D19"/>
<path d="M23.4132 27.3808C23.1862 27.5307 22.952 27.6757 22.7161 27.8115C22.1005 28.1666 21.8897 28.9535 22.2446 29.5688C22.341 29.7361 22.4693 29.873 22.6172 29.9775C23.014 30.2567 23.5529 30.2985 24.0016 30.04C24.2822 29.8782 24.5611 29.7061 24.8314 29.5274C25.4239 29.136 25.587 28.3378 25.1953 27.745C24.8037 27.152 24.0059 26.9891 23.4132 27.3808Z" fill="#C61D19"/>
<path d="M31.9888 15.5675C31.9608 14.8575 31.3628 14.3048 30.6525 14.3325C29.9432 14.3605 29.3901 14.9588 29.418 15.6685C29.4287 15.9399 29.4314 16.2153 29.4252 16.4864C29.4152 16.9317 29.633 17.3286 29.9714 17.5671C30.173 17.7091 30.4177 17.795 30.683 17.8011C31.393 17.8168 31.9814 17.2537 31.9972 16.5433C32.0043 16.2194 32.0016 15.8912 31.9888 15.5675Z" fill="#C61D19"/>
<path d="M28.5363 23.9966C27.967 23.5694 27.1615 23.6854 26.7351 24.2537C26.5718 24.4713 26.3998 24.6863 26.2237 24.8933C25.7635 25.4339 25.8285 26.246 26.3692 26.7066C26.4 26.7327 26.4312 26.7567 26.4635 26.7793C27.001 27.1582 27.748 27.0712 28.1826 26.5612C28.3929 26.3142 28.5979 26.0574 28.7931 25.7975C29.2195 25.2292 29.1041 24.4231 28.5363 23.9966Z" fill="#C61D19"/>
<path d="M30.4274 19.3464C29.7495 19.1338 29.0276 19.5112 28.8152 20.1891C28.7339 20.4481 28.6437 20.7083 28.5465 20.9631C28.3329 21.5242 28.5375 22.1415 29.0067 22.4723C29.0927 22.5327 29.1875 22.584 29.2905 22.6229C29.9542 22.8762 30.6975 22.5432 30.9505 21.8792C31.066 21.5762 31.1731 21.2666 31.2701 20.9587C31.4823 20.2806 31.1052 19.5589 30.4274 19.3464Z" fill="#C61D19"/>
<path d="M13.6208 29.4023C12.4707 29.1958 11.3674 28.8442 10.3212 28.3537C10.3088 28.3473 10.2978 28.3399 10.2848 28.334C10.0382 28.218 9.79211 28.0937 9.55356 27.9638C9.55273 27.9628 9.55122 27.9622 9.54991 27.9617C9.11221 27.7206 8.68504 27.4539 8.27005 27.1618C2.21866 22.899 0.763667 14.5078 5.02671 8.45644C5.95369 7.14109 7.07548 6.04372 8.32611 5.17397C8.34152 5.16324 8.35693 5.15258 8.3722 5.14178C12.7792 2.10522 18.7633 1.90057 23.4428 5.02092L22.4378 6.47309C22.1583 6.87729 22.3302 7.17184 22.8194 7.12781L27.1851 6.73696C27.6749 6.69294 27.9678 6.26927 27.8361 5.79629L26.6637 1.57232C26.5325 1.09878 26.1964 1.0421 25.9168 1.44623L24.9094 2.90184C21.4752 0.596566 17.3563 -0.282471 13.268 0.426454C12.8563 0.497718 12.4503 0.58494 12.0499 0.686471C12.0468 0.687021 12.0443 0.687365 12.0418 0.687915C12.0263 0.691699 12.0106 0.69672 11.9956 0.700916C8.47022 1.60623 5.39438 3.66236 3.19957 6.59601C3.18107 6.61796 3.16202 6.63942 3.14454 6.66329C3.07156 6.76159 2.99913 6.86215 2.92821 6.96272C2.81223 7.12754 2.69791 7.29648 2.58853 7.46542C2.57485 7.48578 2.56439 7.50649 2.55242 7.52705C0.741243 10.3337 -0.13236 13.5784 0.0174595 16.8817C0.0178034 16.8926 0.0171844 16.9035 0.0174595 16.9146C0.0319737 17.2373 0.0575627 17.5645 0.0923004 17.8865C0.0941577 17.9073 0.0987665 17.927 0.102275 17.9478C0.138182 18.2716 0.183238 18.5962 0.239712 18.9208C0.813676 22.2321 2.37571 25.2117 4.71634 27.5302C4.72178 27.5357 4.72742 27.5416 4.73292 27.5472C4.73485 27.5493 4.73698 27.5504 4.73884 27.5524C5.36769 28.1727 6.05172 28.7464 6.78822 29.2651C8.71565 30.6233 10.8619 31.521 13.1668 31.9346C13.8662 32.0603 14.5343 31.5947 14.6597 30.8957C14.7851 30.1962 14.32 29.5276 13.6208 29.4023Z" fill="#C61D19"/>
<path d="M15.2112 5.79419C14.6359 5.79419 14.1699 6.26057 14.1699 6.83502V17.2045L23.6537 22.1071C23.8063 22.1861 23.9698 22.2234 24.1306 22.2234C24.5073 22.2234 24.8711 22.0182 25.0561 21.6603C25.3199 21.1495 25.1202 20.522 24.6094 20.2582L16.2512 15.9371V6.83502C16.2512 6.26057 15.7857 5.79419 15.2112 5.79419Z" fill="#C61D19"/>
</g>
<defs>
<clipPath id="clip0">
<rect width="32.0001" height="32" fill="white" transform="translate(0.000976562)"/>
</clipPath>
</defs>
</svg>
