<svg width="32" height="32" viewBox="0 0 32 32" fill="none" xmlns="http://www.w3.org/2000/svg">
<path d="M25.0624 5.64638C26.9856 4.63325 28.5469 3.17844 29.5773 1.43925C29.7518 1.14462 29.7549 0.778938 29.5853 0.481375C29.4158 0.18375 29.0996 0 28.757 0H3.24431C2.90181 0 2.58563 0.18375 2.41606 0.481313C2.2465 0.778938 2.24957 1.14463 2.42413 1.43919C3.4545 3.17838 5.01575 4.63325 6.939 5.64631C8.5905 6.51631 10.4525 7.02988 12.3709 7.15088V9.6H7.8655C6.18094 9.6 4.75625 10.8609 4.5515 12.5329L2.62625 28.2554C2.51006 29.2039 2.80675 30.1583 3.44006 30.8739C4.07338 31.5896 4.98469 32 5.94025 32H26.0616C27.0172 32 27.9285 31.5896 28.5618 30.874C29.1951 30.1584 29.4918 29.204 29.3756 28.2555L27.4504 12.533C27.2457 10.8609 25.821 9.60013 24.1364 9.60013H19.6304V7.151C21.5488 7.02987 23.4109 6.51631 25.0624 5.64638ZM24.1364 11.5066C24.8591 11.5066 25.4701 12.0474 25.558 12.7647L27.4832 28.4872C27.5337 28.9001 27.4098 29.2989 27.1341 29.6105C26.8584 29.9219 26.4775 30.0935 26.0616 30.0935H5.94019C5.52425 30.0935 5.14338 29.9219 4.86775 29.6104C4.59207 29.299 4.46807 28.9001 4.51863 28.4872L6.44381 12.7647C6.53163 12.0476 7.14281 11.5067 7.86544 11.5067H24.1364V11.5066ZM14.2774 9.60006V7.17931H17.7239V9.60006H14.2774ZM18.7481 5.27275H13.2532C10.0209 5.27275 7.0555 4.01562 5.13213 1.90663H26.8692C24.9458 4.01556 21.9804 5.27275 18.7481 5.27275Z" fill="#C61D19"/>
<path d="M16.0018 12.9878C11.694 12.9878 8.18945 16.4924 8.18945 20.8001C8.18945 25.1079 11.6941 28.6125 16.0018 28.6125C20.3094 28.6125 23.8141 25.1079 23.8141 20.8001C23.8141 16.4924 20.3095 12.9878 16.0018 12.9878ZM16.0018 26.7059C12.7453 26.7059 10.0961 24.0566 10.0961 20.8001C10.0961 17.5437 12.7454 14.8944 16.0018 14.8944C19.2581 14.8944 21.9074 17.5437 21.9074 20.8001C21.9074 24.0565 19.2581 26.7059 16.0018 26.7059Z" fill="#C61D19"/>
<path d="M16.6755 20.1259C16.3032 19.7536 15.6996 19.7536 15.3274 20.1259L13.0322 22.4212C12.6599 22.7934 12.6599 23.397 13.0322 23.7693C13.2183 23.9554 13.4623 24.0485 13.7062 24.0485C13.9502 24.0485 14.1942 23.9554 14.3803 23.7693L16.6755 21.474C17.0477 21.1018 17.0477 20.4982 16.6755 20.1259Z" fill="#C61D19"/>
</svg>
